<mxfile host="app.diagrams.net" agent="Mozilla/5.0 (Windows NT 10.0; Win64; x64) AppleWebKit/537.36 (KHTML, like Gecko) Chrome/126.0.0.0 Safari/537.36" version="24.7.6">
  <diagram name="第 1 页" id="Z3iV2UAkzHk2Ah9j1TZ6">
    <mxGraphModel dx="320" dy="737" grid="1" gridSize="10" guides="1" tooltips="1" connect="1" arrows="1" fold="1" page="1" pageScale="1" pageWidth="827" pageHeight="1169" math="0" shadow="0">
      <root>
        <mxCell id="0" />
        <mxCell id="1" parent="0" />
        <mxCell id="iMMAIMDJ0-eKG2LeMNLO-1" value="" style="shape=image;verticalLabelPosition=bottom;labelBackgroundColor=default;verticalAlign=top;aspect=fixed;imageAspect=0;image=data:image/png,iVBORw0KGgoAAAANSUhEUgAAB64AAAHiCAYAAABY2uLOAAAAAXNSR0IArs4c6QAAIABJREFUeAHs3XmQHMd99nk7vOF4411HvO9ueP9RKDZC9lryK4V3tbJlW353ZVp+TdmSTFESxVdrWfJrS7Ylm+BNAAQv8ARvggdIEATACyRBEBQAkgCFgwQJAiAB8AAJkgB4Yi7MYDAzmHu6YTNy48nGr5FdU1VdfU3P8WXERPV0V2VlZX2qBuwnM+tXfuVXfuVXXOS/Tz75xP3bv/2bO378OD+0AQYwgAEMYAADGMAABjCAAQxgAAMYwAAGMIABDGAAAxjAAAYwgAEM1M2Asmhl0uF/yq1Lgut///d/r9sOCb4J/jGAAQxgAAMYwAAGMIABDGAAAxjAAAYwgAEMYAADGMAABjCAAQxgIM6Asmn7ryS4JrQGTBwY3sMFBjCAAQxgAAMYwAAGMIABDGAAAxjAAAYwgAEMYAADGMAABjDQCAMWXheDaw3FbsSOKBPAGMAABjCAAQxgAAMYwAAGMIABDGAAAxjAAAYwgAEMYAADGMAABjCQZEBZdTG45pnWQEmCwvvYwAAGMIABDGAAAxjAAAYwgAEMYAADGMAABjCAAQxgAAMYwAAGGmVAWbUPrhltDbJGIaNcbGEAAxjAAAYwgAEMYAADGMAABjCAAQxgAAMYwAAGMIABDGAAA+UM+OCa0dZAKQeFzzGCAQxgAAMYwAAGMIABDGAAAxjAAAYwgAEMYAADGMAABjCAAQw0ygDB9XFwNQoX5WILAxjAAAYwgAEMYAADGMAABjCAAQxgAAMYwAAGMIABDGAAAxjIYsAH11lWZB1AYQADGMAABjCAAQxgAAMYwAAGMIABDGAAAxjAAAYwgAEMYAADGMBAIwwQXDPi2jUCFmVyw8IABjCAAQxgAAMYwAAGMIABDGAAAxjAAAYwgAEMYAADGMAABrIaILgmuCa4xgAGMIABDGAAAxjAAAYwgAEMYAADGMAABjCAAQxgAAMYwAAGMNBUAwTXAGwqwKw9LFiP3jgYwAAGMIABDGAAAxjAAAYwgAEMYAADGMAABjCAAQxgAAMYmL4GCK4JrgmuMYABDGAAAxjAAAYwgAEMYAADGMAABjCAAQxgAAMYwAAGMIABDDTVAME1AJsKkF4x07dXDOeWc4sBDGAAAxjAAAYwgAEMYAADGMAABjCAAQxgAAMYwAAGMJDVAME1wTXBNQYwgAEMYAADGMAABjCAAQxgAAMYwAAGMIABDGAAAxjAAAYwgIGmGiC4BmBTAWbtYcF69MbBAAYwgAEMYAADGMAABjCAAQxgAAMYwAAGMIABDGAAAxjAwPQ1QHBNcE1wjQEMYAADGMAABjCAAQxgAAMYwAAGMIABDGAAAxjAAAYwgAEMYKCpBgiuAdhUgPSKmb69Yji3nFsMYAADGMAABjCAAQxgAAMYwAAGMIABDGAAAxjAAAYwgIGsBgiuCa4JrjGAAQxgAAMYwAAGMIABDGAAAxjAAAYwgAEMYAADGMAABjCAAQw01QDBNQCbCjBrDwvWozcOBjCAAQxgAAMYwAAGMIABDGAAAxjAAAYwgAEMYAADGMAABqavAYJrgmuCawxgAAMYwAAGMIABDGAAAxjAAAYwgAEMYAADGMAABjCAAQxgAANNNUBwDcCmAqRXzPTtFcO55dxiAAMYwAAGMIABDGAAAxjAAAYwgAEMYAADGMAABjCAAQxkNUBwTXBNcI0BDGAAAxjAAAYwgAEMYAADGMAABjCAAQxgAAMYwAAGMIABDGCgqQYIrgHYVIBZe1iwHr1xMIABDGAAAxjAAAYwgAEMYAADGMAABjCAAQxgAAMYwAAGMDB9DRBcE1wTXGMAAxjAAAYwgAEMYAADGMAABjCAAQxgAAMYwAAGMIABDGAAAxhoqgGCawA2FSC9YqZvrxjOLecWAxjAAAYwgAEMYAADGMAABjCAAQxgAAMYwAAGMIABDGAgqwGCa4JrgmsMYAADGMAABjCAAQxgAAMYwAAGMIABDGAAAxjAAAYwgAEMYAADTTVAcA3ApgLM2sOC9eiNgwEMYAADGMAABjCAAQxgAAMYwAAGMIABDGAAAxjAAAYwgIHpa4DgmuCa4BoDGMAABjCAAQxgAAMYwAAGMIABDGAAAxjAAAYwgAEMYAADGMBAUw0QXAOwqQDpFTN9e8Vwbjm3GMAABjCAAQxgAAMYwAAGMIABDGAAAxjAAAYwgAEMYAADWQ1M6uA6Pzrqhl/d446tWe16H1jmf/Ra7+mzrAfZqPXyuVE31L7d9b3zoOt5faH/0Wu9p88atd+s5Y7kRt22wzvc8oMr3M377vQ/eq339FnWcliPGwoGMIABDGAAAxjAAAYwgAEMYAADGMAABjCAAQxgAAMYwAAGMNBIA5MyuFYw3X3JHHfo1FNc5xmnud4zv+2Ofe+b/kev9Z4+0zpat5ENFFf2YNtL7shzP3UfP/Q7rmP177ueNV90fWs+73/0Wu/pM62jdePKaOR7CqZ/tP1n7tNPfMF9fv2fuN/d+BX3W5u+7H/0+vPrv+I+vfoLfh2t28i6UDY3MAxgAAMYwAAGMIABDGAAAxjAAAYwgAEMYAADGMAABjCAAQxgoJyBSRVcj3V1+jC64/RvuMEzvuU++fEZzv3dmbE/+kzraF0F2Nq23MHW+vnYQLsPo9tWftENrPu8+2Tz7zn33P8Z+6PPtI7WVYCtbWvdf7nt2wc6fBj9uaf+0H1my5fdZ1/+qvvcrj+N/dFnWkfrKuTWtuXK53NuKBjAAAYwgAEMYAADGMAABjCAAQxgAAMYwAAGMIABDGAAAxjAQCMMTJrgWiOn204vjKpOCquT3tdobG3byNHXGjndsrIwsjoprE56X6OxtW0jR19r5PTvrv0jP6o6KaxOel+jsbUto6+5yTTiJkOZuMIABjCAAQxgAAMYwAAGMIABDGAAAxjAAAYwgAEMYAADGChnYFIE1wqcW049xY2ceVrs6OqkwDp8f/jMwvThjQivFThr6u/hZ74QO7o6KbAO39e2KqMR4bUCZ039/dtb/zh2dHVSYB2+/9vP/7GfWpzwmptGuZsGn2MEAxjAAAYwgAEMYAADGMAABjCAAQxgAAMYwAAGMIABDGCg3gaaHlxrim+Nlq4ltLYAW+G1yqrntOGa4lujpWsJrS3AVhkqq57ThrcPdvjR0rWE1hZgK7zWyGuVWW9olMfNCwMYwAAGMIABDGAAAxjAAAYwgAEMYAADGMAABjCAAQxgAAMYSDLQ9OBaz6fWVN8WPte6VFkqM+mAK31fz6fWVN8WPte6VFkqs9J6JK3/ox0/q2p6cAuro0tNG65nXiftj/e5mWAAAxjAAAYwgAEMYAADGMAABjCAAQxgAAMYwAAGMIABDGAAA/U20NTgemjPbtdx+jfqFlpb6K0yVXatjaVpvdtWfrFuobWF3iqzHlOGv9ix3X3uqT+senrwaGhd/P2pP3Qqu9b2Y3tuWBjAAAYwgAEMYAADGMAABjCAAQxgAAMYwAAGMIABDGAAAxjAQBYDTQ2uNTJ68Ixv1T24Vpn1GHWtkdED6+o32tqCa5VZj1HXGhn9mS1frntwrTIZdc0NJMsNhHVwggEMYAADGMAABjCAAQxgAAMYwAAGMIABDGAAAxjAAAYwUA8DTQuu86Oj7tCpp7hPfnxG3YNrldly6ilO+6i2kfK5UffxQ7/jPtn8e3Ufca0yVbb2UW39RnOj7tOrv+A++/JX6x5cq0yVrX1UWz+24waFAQxgAAMYwAAGMIABDGAAAxjAAAYwgAEMYAADGMAABjCAAQxkNdC04Hr41T2u84zT6h5a23ThKlv7yNoQ0fWG2re7jtW/X/fQ2kZdq2ztI7rfrL9vO7zDfX79V+oeWtt04Spb+8haH9bjpoMBDGAAAxjAAAYwgAEMYAADGMAABjCAAQxgAAMYwAAGMIABDFRroGnB9bE1q13vmd9uWHCtsrWPahum750HXc+a+j/f2oJrla19VFu/5QdXuN/d2LjgWmVrH9XWj+24KWEAAxjAAAYwgAEMYAADGMAABjCAAQxgAAMYwAAGMIABDGAAA1kNNC247n1gmTv2vW82LLhW2dpH1oaIrtfz+kLXt6b+z7e24Fplax/R/Wb9/eZ9d7rf2lT/51vbiGuVrX1krQ/rcdPBAAYwgAEMYAADGMAABjCAAQxgAAMYwAAGMIABDGAAAxjAAAaqNUBwfTweD8E1wXW1FxXbxV9TtAvtggEMYAADGMAABjCAAQxgAAMYwAAGMIABDGAAAxjAAAYwkGSgacE1U4UzVXgSSt7nhoUBDGAAAxjAAAYwgAEMYAADGMAABjCAAQxgAAMYwAAGMICBmWWgacH18Kt7XOcZpzVsqnCVrX1UC3qofbvrWP37zqb2rvdSZWsf1dZv2+Ed7vPrG/eMa5WtfVRbP7abWTcSzjfnGwMYwAAGMIABDGAAAxjAAAYwgAEMYAADGMAABjCAAQxgoBYDTQuu86OjruXUU9wnPz6j7uG1yjx06ilO+6i2cfK5UffxQ7/jPtn8e3UPr1WmytY+qq3faG7UfXr1F9xnX/6qs+dS12upMlW29lFt/diOGxMGMIABDGAAAxjAAAYwgAEMYAADGMAABjCAAQxgAAMYwAAGMJDVQNOCa1Ww+5I5bvCMb9U9uFaZKjtrIyStd+S5n7qBdZ+ve3CtMlV20n6zvv+j7T9zn9ny5boH1ypTZWetB+txw8EABjCAAQxgAAMYwAAGMIABDGAAAxjAAAYwgAEMYAADGMAABmox0NTgemjPbtdx+jfqHlyrTJVdS8No28G2l1zbyi/WPbhWmSq71vq92LHdfe6pP6x7cK0yVXat9WN7bk4YwAAGMIABDGAAAxjAAAYwgAEMYAADGMAABjCAAQxgAAMYwEAWA00NrlVBjYw+9r1v1i28Vln1GG1tjaeR0X1r6jfqWmXVY7S11U8jo39rU/1GXausH+1gtLW1L0tupBjAAAYwgAEMYAADGMAABjCAAQxgAAMYwAAGMIABDGAAAxhovIGmB9djXZ2u7fRvuuEzT6s5vB458zRflsqsF56xgXbXsvKLbviZL9Q88lplqCyVWa/6tQ92uN9d+0fut5//45pHXv/21j/2ZanMetWPchp/EdPGtDEGMIABDGAAAxjAAAYwgAEMYAADGMAABjCAAQxgAAMYwMBUN9D04FoNOPzqHnfo1FNqCq8VWreojFf31D101bTeHz/0OzWF1wqtVUY9pgiPott2eIf79BNfqCm8Vmj96dVfcCorWj6/c6PDAAYwgAEMYAADGMAABjCAAQxgAAMYwAAGMIABDGAAAxjAAAYaaWBSBNc6QAXOGnldzbTh2saP2m5AaG2Nr8BZo6WrmTZc22jbRoTWVj8Fzhp5Xc204dpG2xJac7MxTyyxgAEMYAADGMAABjCAAQxgAAMYwAAGMIABDGAAAxjAAAYwMJEGJk1wrYPWFN96PnXH6d9wg2d8y33y4zMSpw/XZ1pH62qbek4PnnQCNMW3nk/dtvKLbmDd590nm38vcfpwfaZ1tK62qef04En1ax/ocHrm9eee+kP3mS1fdp99+auJ04frM62jdbWNtk0ql/e5KWEAAxjAAAYwgAEMYAADGMAABjCAAQxgAAMYwAAGMIABDGAAA400MKmCaztQjb5WGK3pwzvPOM31nvltPxJbI6v1Wu/pM63TiKnBrR5JS42cVhitqb87Vv++61lTGImtkdV6rff0mdZp5CjrpPpp5LTCaE39/fn1X3G/u/ErfiS2H1m98Svu8+v/xE8trnUYZc0NJskR72MDAxjAAAYwgAEMYAADGMAABjCAAQxgAAMYwAAGMIABDGBgogxMyuDaDj4/OuqD6WNrVrveB5b5H71WWK3PbL1mLfO5UTfUvt31vfOg63l9of/Ra72nz5pVL9vvSG7UB9PLD65wN++70//otcJqfWbrseSGgwEMYAADGMAABjCAAQxgAAMYwAAGMIABDGAAAxjAAAYwgAEMNNPApA6um9kw7JsLEwMYwAAGMIABDGAAAxjAAAYwgAEMYAADGMAABjCAAQxgAAMYwMDEGCC4Pj4xDQ1o2hkDGMAABjCAAQxgAAMYwAAGMIABDGAAAxjAAAYwgAEMYAADGMBAvAGCa4JrpgzHAAYwgAEMYAADGMAABjCAAQxgAAMYwAAGMIABDGAAAxjAAAYw0FQDBNcAbCpAepTE9yihXWgXDGAAAxjAAAYwgAEMYAADGMAABjCAAQxgAAMYwAAGMICBmWSA4JrgmuAaAxjAAAYwgAEMYAADGMAABjCAAQxgAAMYwAAGMIABDGAAAxjAQFMNEFwDsKkAZ1IvEY6VXlEYwAAGMIABDGAAAxjAAAYwgAEMYAADGMAABjCAAQxgAAMYiDdAcE1wTXCNAQxgAAMYwAAGMIABDGAAAxjAAAYwgAEMYAADGMAABjCAAQxgoKkGCK4B2FSA9CiJ71FCu9AuGMAABjCAAQxgAAMYwAAGMIABDGAAAxjAAAYwgAEMYAADM8kAwTXBNcE1BjCAAQxgAAMYwAAGMIABDGAAAxjAAAYwgAEMYAADGMAABjCAgaYaILgGYFMBzqReIhwrvaIwgAEMYAADGMAABjCAAQxgAAMYwAAGMIABDGAAAxjAAAYwEG+A4JrgmuAaAxjAAAYwgAEMYAADGMAABjCAAQxgAAMYwAAGMIABDGAAAxjAQFMNEFwDsKkA6VES36OEdqFdMIABDGAAAxjAAAYwgAEMYAADGMAABjCAAQxgAAMYwAAGZpIBgmuCa4JrDGAAAxjAAAYwgAEMYAADGMAABjCAAQxgAAMYwAAGMIABDGAAA001QHANwKYCnEm9RDhWekVhAAMYwAAGMIABDGAAAxjAAAYwgAEMYAADGMAABjCAAQxgIN4AwTXBNcE1BjCAAQxgAAMYwAAGMIABDGAAAxjAAAYwgAEMYAADGMAABjCAgaYaILgGYFMB0qMkvkcJ7UK7YAADGMAABjCAAQxgAAMYwAAGMIABDGAAAxjAAAYwgAEMzCQDBNcE1wTXGMAABjCAAQxgAAMYwAAGMIABDGAAAxjAAAYwgAEMYAADGMAABppqgOAagE0FOJN6iXCs9IrCAAYwgAEMYAADGMAABjCAAQxgAAMYwAAGMIABDGAAAxjAQLwBgmuCa4JrDGAAAxjAAAYwgAEMYAADGMAABjCAAQxgAAMYwAAGMIABDGAAA001QHANwKYCpEdJfI8S2oV2wQAGMIABDGAAAxjAAAYwgAEMYAADGMAABjCAAQxgAAMYmEkGCK4JrgmuMYABDGAAAxjAAAYwgAEMYAADGMAABjCAAQxgAAMYwAAGMIABDDTVAME1AJsKcCb1EuFY6RWFAQxgAAMYwAAGMIABDGAAAxjAAAYwgAEMYAADGMAABjCAgXgDBNcE1wTXGMAABjCAAQxgAAMYwAAGMIABDGAAAxjAAAYwgAEMYAADGMAABppqgOAagE0FSI+S+B4ltAvtggEMYAADGMAABjCAAQxgAAMYwAAGMIABDGAAAxjAAAYwMJMMEFwTXBNcYwADGMAABjCAAQxgAAMYwAAGMIABDGAAAxjAAAYwgAEMYAADGGiqAYJrADYV4EzqJcKx0isKAxjAAAYwgAEMYAADGMAABjCAAQxgAAMYwAAGMIABDGAAA/EGCK4JrgmuMYABDGAAAxjAAAYwgAEMYAADGMAABjCAAQxgAAMYwAAGMIABDDTVAME1AJsKkB4l8T1KaBfaBQMYwAAGMIABDGAAAxjAAAYwgAEMYAADGMAABjCAAQxgYCYZILgmuCa4xgAGMIABDGAAAxjAAAYwgAEMYAADGMAABjCAAQxgAAMYwAAGMNBUAwTXAGwqwJnUS4RjpVcUBjCAAQxgAAMYwAAGMIABDGAAAxjAAAYwgAEMYAADGMAABuINEFwTXBNcYwADGMAABjCAAQxgAAMYwAAGMIABDGAAAxjAAAYwgAEMYAADGGiqAYJrADYVID1K4nuU0C60CwYwgAEMYAADGMAABjCAAQxgAAMYwAAGMIABDGAAAxjAwEwyQHBNcE1wjQEMYAADGMAABjCAAQxgAAMYwAAGMIABDGAAAxjAAAYwgAEMYKCpBgiuAdhUgDOplwjHSq8oDGAAAxjAAAYwgAEMYAADGMAABjCAAQxgAAMYwAAGMIABDMQbILgmuCa4xgAGMIABDGAAAxjAAAYwgAEMYAADGMAABjCAAQxgAAMYwAAGMNBUAwTXAGwqQHqUxPcooV1oFwxgAAMYwAAGMIABDGAAAxjAAAYwgAEMYAADGMAABjCAgZlkgOCa4JrgGgMYwAAGMIABDGAAAxjAAAYwgAEMYAADGMAABjCAAQxgAAMYwEBTDRBcA7CpAGdSLxGOlV5RGMAABjCAAQxgAAMYwAAGMIABDGAAAxjAAAYwgAEMYAADGIg3QHBNcE1wjQEMYAADGMAABjCAAQxgAAMYwAAGMIABDGAAAxjAAAYwgAEMYKCpBgiuAdhUgPQoie9RQrvQLhjAAAYwgAEMYAADGMAABjCAAQxgAAMYwAAGMIABDGAAAzPJAME1wTXBNQYwgAEMYAADGMAABjCAAQxgAAMYwAAGMIABDGAAAxjAAAYwgIGmGiC4BmBTAc6kXiIcK72iMIABDGAAAxjAAAYwgAEMYAADGMAABjCAAQxgAAMYwAAGMBBvgOCa4JrgGgMYwAAGMIABDGAAAxjAAAYwgAEMYAADGMAABjCAAQxgAAMYwEBTDRBcA7CpAOlREt+jhHahXTCAAQxgAAMYwAAGMIABDGAAAxjAAAYwgAEMYAADGMAABmaSAYJrgmuCawxgAAMYwAAGMIABDGAAAxjAAAYwgAEMYAADGMAABjCAAQxgAANNNUBwDcCmApxJvUQ4VnpFYQADGMAABjCAAQxgAAMYwAAGMIABDGAAAxjAAAYwgAEMYCDeAME1wTXBNQYwgAEMYAADGMAABjCAAQxgAAMYwAAGMIABDGAAAxjAAAYwgIGmGiC4BmBTAdKjJL5HCe1Cu2AAAxjAAAYwgAEMYAADGMAABjCAAQxgAAMYwAAGMIABDMwkAwTXBNcE1xjAAAYwgAEMYAADGMAABjCAAQxgAAMYwAAGMIABDGAAAxjAAAaaaoDgGoBNBTiTeolwrPSKwgAGMIABDGAAAxjAAAYwgAEMYAADGMAABjCAAQxgAAMYwEC8AYJrgmuCawxgAAMYwAAGMIABDGAAAxjAAAYwgAEMYAADGMAABjCAAQxgAANNNUBwDcCmAqRHSXyPEtqFdsEABjCAAQxgAAMYwAAGMIABDGAAAxjAAAYwgAEMYAADGJhJBgiuCa4JrjGAAQxgAAMYwAAGMIABDGAAAxjAAAYwgAEMYAADGMAABjCAAQw01QDBNQCbCnAm9RKZzsfav+MVd2jWbHforIvc0VVrMHX8uBt+7wN3+KY7XMt5F/t2Udvop+uuJbQP992mGqjb9ZrPu+O5XFOPZTrfVzk2etJiAAMYwAAGMIABDGAAAxjAAAYwgAEMYAADM83ApAmuFeZYsDNuOWu2a513let+6DE31tlV9kvy3NCQ6123wbVddm0xTGu54BLXeftiHyZlOcljfcdczxNr/X4tkNOy7eIrXdei+9zAzl0uPzRcrEuuv991XHdL8jGcCK3GHdsUD7OGx3LutJVvuF+9Zov70n2vuMP9I8U2ydLOrDM9brr923YW7U/H4Hrj+93uN27Y6n7t2ufcva+2ljU++OY+13rhZcU2Ca97guvj7u2uAfephdv8feOCTQdcniC7rKl63itrvl5zOde//WXXNn+BU1n1rBtlTY+/CZxHziMGMIABDGAAAxjAAAYwgAEMYAADGMAABjBQjYGpEVwHoa9GLyqUPq6RXjFhx2jHYdd+5Q2xgZEPj2bNdj2r1yVurzI1Gq31gkuTy4gJm2dqcP38R0eLgd6y19tiz0nceeK96XXDqtsIzphrutlWRnJ5951Ve33I+gdLd7nuwdFU5+rQopHWut8ovD625QXf4UadbvxPb1/q9s0+3onY/+zNB317fvr2bW5/9+CMb4+JaPNwH7Ver4P73nEt51/ijRNcT697eeiE15xbDGAAAxjAAAYwgAEMYAADGMAABjCAAQxgYKINTLrguuX8eW5g5+6SoGfo3QOu684lJ0dPnzPX9W/bMS7s8OHx9QsLgfOs2a7znmVu5MOPfVnHtr7kR0srTGpJ2F6NH46UVHh99LHVbvjA+76M0dY217fxuUIwPmt26ZS/+bzLHe0pqbcFVd0PrSyG4H3PboldZ2wKhlkaJfmTp972AdRnF+1wLX1D487JRINmf9xE621gT3uf+81bXvTOb9jxUVnjuu41M4PuNUdXPll2/XrXd7KXp/uE7heapUH3D0ZbT71rluB66p2zyX5foH6YwgAGMIABDGAAAxjAAAYwgAEMYAADGMAABmRgEgbXlzh9KT4OaD7vejdsLobXmpZbQXW4Xt/mrcXPu5Y8MO7ZmyMfHXKtc+f7QKn96htdNCzWFOMdN97uP9fU5CMffVxSfrgvPb9WU4mH7yW91tTJfrT3WRdNq2lVKw30ktqH97kZTVYD1XTOINRL96zwX6G1OgPoHjJZzz31Sj6PGE9uG9zQNhjAAAYwgAEMYAADGMAABjCAAQxgAAMYwAAGqjcwdYLr48fdWE9vcRrw1osuL3ledcn0vLMvTwydu1esKoTIZ8/xz6kO8SiMVrkKmbsffKxugcp0DK4V6OnZtAqgmO63+gsw9MfrydeO4bOYNb11lnNEqJd8Hg/3j7gv3feKv29o+nVNw56lTVknuU2b0TYYn1znoxkG2CcGMIABDGAAAxjAAAYwgAEMYAADGMAABjCAgUYYmFLBtRqg664lPlhuOfdiN/ja3mLoMXKo1bXOucJ/pufLKsiOazBto20VTnfd92DJOuFn9Xxu53QMrvVcWgXWCq623dcMAAAgAElEQVTTAj21o9q67bJr3Vj3UTfywUf++b+arl3vt86+wh154BE31nes5FxEz134DPGeJ5/y62pK5iPLV/jnCKusQ7Nmu7Z5V/lnmGv0fLQM/a79aKS8RtRrfW2n56bLzODefanPPg/LG37/Q9e1eLlr0wj+oByN2B/Y/dq40f7htnqd6x/wMwioXaLbD776Rvl65PO+vqp3ywWFZ83asWg2gZ41T/up66P7Lfm9xjLs3Pq2D55DL+8l+0l4brVtr2m1/bT6fce8BT0X2h/LOXP9eVGHknLlqT11Xv35OGFB7TD4+pt+ZgbN0KAys9bN9pflWcxhiBdti7jfdQ+z8sNlfmTU17dr0X2FqcZPuPKuL7vWuy53nRTLO3FuO29f7FovKrSnb9MLLnF6b2j/wXRj+bzvGNS1aOlJXyeur+4Vj5e9Xov1iJz7Za+3uV+79jn3Gzdsdc9/dDS2HWzb4pTrs2Y7PZNZ7/vrTnU6r3APt7bp2/S8y48mPHs8l/Pt6q+VyHa96za4pHtFeM/pffqXTuend+36ojHdw9qvucllul6Duofnw9//lq/w/u24E5dNvF4rNa7nX2ubpGOp9T5crQ3NsqL7gq4F3auTzr3VW/9G0LqtKZ3hbF2W/CMdAxjAAAYwgAEMYAADGMAABjCAAQxgAAMYwEDtBqZscH1II6Zf2VP8Ylyv9Z6+ZE4bLT3acbgYPHQsuM3lBgaLZYTBdaUBVxrG6RhcZ53uNwwnj72w/WTIHASdPhi45GqnZ4gntWMYIqk9B996x4cJ2jb6Y0FotKyhd/YXnz0c3cb/Pmu2D8IVUEW3td/1mZ57bmFzbDlnXeQsXLftwmWWeigUT6qHArosdUgKSFWXepRh5zbaBlmvHdteHU4U9vsQP+Z8KsjWs+fDNgxf65puv/KGcQ5UL4WLCvGLz5zOGKqr/KzPYq401Es6L9YpJ9qe4e8K0AbfeCuxLVRvhfgKnFONBmFw2JZ6LXfqEJK2va/HW8nBZLRM/d4/Mua+9vCrvrOLlvo9bj17rxhOnnjEwrGtL50MrCNO4h4doXIUVHbednesDWtXuYu795Tccx5b7TrvWRZfzqzZhcdG5BNGj+sxF2vXe4u2z+hSQW//9pcT26PZ12ulxtOC6yz3P/lLuv/58xo8R173kUps2Kwruq8MH3g/sc3V0cruSZ13LE7uGBHpnGF+Wdb+D1TakDbEAAYwgAEMYAADGMAABjCAAQxgAAMYwMDMMzClguswSGi94FI39O6B4pfOfRufK4YKaaFh+GW0vpTW7wY/nCpcQdfwweQvtW2bLMvpFlxnDfTUNhZOKgRTiKjz1rt+o1PYOPLhx37UsgVkHdcvHPfccmvf8NwrRFBQqVGXGv2pchRyKYTovHuZH02t321bLceOdBdDCO1PwbBtp9DDj8BWGKYQavW6km2L5eTzJYGejGgkpkIv279G6KleSeHt0Nv7i+G92kKjhG37ob1vOR2bb4+UMEydNGzEugwfe+5F355WB4XaChaTAlIdTz3K0KwG2qd+dC3aaOekYy+244mgx2xoBgS1vwJsPcfebPig8MSo46TgSOFW58J7Ctf+rNnu8M13+rqoTnZeFaJZe2Wtm+qatXOG6jDWdaTYFgM7d7uW8+f5OvU9u6X4vrWVwtRoW+h3nS/Z0YhotY3aQdvIh0YGy4sCT7XVaEt8Jw+NID1866LivbBt/oISHzLWdecSb0z7iNZDAamuDR+szprtdE2qQ0+xHk//sjizRWuZzibRstfs73K/ft1z/kevo59Hf9c+rcPBkWUPu9a58wv3j3UbSq4ZnfO44NrfM65fWDwWHbecqlxd+0dXPulkQ8eqTkzR8xLec7yfs+fE+tL2+rx/247YYwqvtfD+p/N69JEnimG8glTdH6LtoN/DMqq95mu5Xis23nUkNniuy31Y9/MabOjvhM3qkHY/GNi5q9AZTp08Es5t3LnivZn3D2nOOeccAxjAAAYwgAEMYAADGMAABjCAAQxgAAP1MzClgutjz28rBlAKLvXMa8OgL6B92HJidJ69H12GYYRCEX0BbusotPHBoY3mmzXbj9bTF9jaztardJm1bpWW26z17321NfN0vxZO+nBH08dqOu5whFo+744+/otiuNS3eWvp5yfWDc+bRtZrSvCkjgWaNj56vjTi0ftICIQVIimI0zoKYFVGST0j4VHHgltdLvAXrqtQMS4U9KHizXf6fSSGfkF7JNWjOH2t6vnRoXH1VF0UNPnpoMO2Dl7Xo4zwmMMgKS0MCrcJbcSNqg5DaYXa5c6Jgm5tE+5D7aPA0+4NWetWy7OYw9GpcQ7C+oWvtV3a1MW6dixoTTqO3qefLY6U7rpnWWJ5KituFHsxIE24TlRf+baOHhq9Gh5D0uvhsZw7beUbfrT1Hyzd5boHS89T3HahKV3zmuJ5rPPI+P3l827ko4/HPR7C2kKhsv52xO2j2KazZrvovafknqNHSyxaOs5X2Ba+fpFOCTqfmpJa/uKMq07h37WkDhqT4XoN269a4/W4D6setdhQgK9p43VO4s6ZP8583nUtecCv03bpNb5jSnj8vK7fP0JpS9oSAxjAAAYwgAEMYAADGMAABjCAAQxgAAMYCA1MieBaI+GOPr6mODJNI1IVSoQHkjUcDsOIuDAsbdphBQ8ajeifuZs0LWwQDlr9stbN1p/MSwVOCp70bGsFUQqk0uobhpMKAo7HtJvaXEG0ggRN66sOBNEyw/Om868R9tF1kn4Pt00LIYqj9mNCrLBTgxykTTGbVA9N8dxy3jw/ik+jgZPWC5/XrhHd0fVsSum4UabRdZN+r0cZYdlhkJQUqobr63VoI2l6f7WTD50jjwawsoqBXso5Udm+jAqecR0+i3nj+93jzoHtP25ZbagXV1b4Xhi4dd5577hrSfdJe35vmvOwzPB1aLycLWvT6KwVYXnhaz3PWs+11vOt1fEl/CzpdWhK141GfietG30/bAsF+HH3FG3jj/nEVOIKM9XGVlZ430i75u3+rpkDonUMLSTd/8I6JHZWuWuJN1zuvFjdyy3Dts16vYZlhseVtXNG2J5pPtPuw1aHsP6V2lAZ6qSgvyN+25ip98O/SbrH2H5Z8g9oDGAAAxjAAAYwgAEMYAADGMAABjCAAQxgAAONNTDpgmsLmBKXJ6Z5jo6stPBA26V9kR5+eZ70HE6Nkutd+0ziM5T1hbem841OLZuENWvdkrafTO9XOt1vGE4mhbUlwU1k+nY79vC8KeRWsGCflVuGU8CnhRBp62kqaBtlmhSul6uHpiaWT4VTafUPj1WhW7RcC2u93+gI9piOE9Ht9Xs9ygjLDYOkrEFYaCPpmk0LyDTjgj3bOho6hnXTKGKN2FXbZ6lbpc9iDvel12l1jq6b9rscqF3DH3tec1yAqWmwbTrxpI4AafvzYd2J0emymraunTvtL3xkQ9w2+ePH3U+eett3dvnsoh3+2eFx60XfC03FHW90/fD3wTffLk7XnnTfsfXt/qzrW9e5vR9eh+3X3Oxyx+Jn3VBYrdBavqIdTfS73pc/ObSyo8ty602G6zWsczXG0+6vYdlZ1qvFhvalzkG6D+vcxF0r5YLtsL68buw/Umlf2hcDGMAABjCAAQxgAAMYwAAGMIABDGAAAzPLwJQJrjXda/s1N7nBV98YN9JQaC180BfRSSGY1gvDiNaLLi+Mnk4K+3I5N/LxIR9G6Bmoev6sDyFOTCWe9kzm8ELKWrdwm8n4uppAzwKupE4CdpwW6iadk/C8pYWUVl64DEOstOAyfP55dB9hUJNWRrjfktf5vNMo2dBPltdxz6kuTud84tm6WkfvZe1IoXrVo4zw+MIgKWv7ZLERtnv0ug73GddOVr+wjCx1q7Rzhu3HluH+onW2dZKWCu1kL3qviVqJC3KtPbVupftVfcLrJLq/pN/LXdcqd097n/vNW170wbWeG5507NH3S85vhaNeiyP17bEPGZbRR0eE95w0X2HgH+0YY/e1cu2k69E6V0TDb7XLZLhew/NTjfHQV9p1mHYftjrUYsOXEU4FHuks5TtS3bHY36sTpxJP+jcD72e+vu1cspxZ/9PB+eZ8YwADGMAABjCAAQxgAAMYwAAGMIABDJQzMOmC65bz57mBnbtLRhlmCeT0RbiFK2mhTRhGRIOKco11PJfzAYK28/uKmVI6roysdYvbdjK9pymTbbpfTaWcpW4WppULbqyNktYLz1taiBRXJ6uDzllWG9FgMAxqyo3gjKtDWH9zmmUZe6z5vOtdtyE23FQHDwWf/lniMdOyF+tWjzKCkCYMktJCqeL+g6nCk8651g3bPXruwhHGafuspG7VPIs5PKZydY6uW/xd52Pteqfzl8VF1KfKMee6hyokLJYdnKe092z7LPu3ddLOnfal0dYXbDrgQ+tP377N7e8ezFyvSs5b9LjsfmL1zLKM/j0Ir9nY6/BEu4b1jK6n37XvaNnR+obOYy1Pgus1rHNY3+h1Ga4Xvg59pW0Ttnucc5UZtnlse2UwX+wsoNHwO3cVXZY8qmHt+uL74bHwmn9cYwADGMAABjCAAQxgAAMYwAAGMIABDGAAAxhojIFJGFxf4sOqSk948bmYZ13kep58KvHL5nA0V3Rq2Kz7VCiowEaBRNyzZqPlhCFK2hf20e0m0+8jubz7zqq9PoD60n2vuMP9I4ltHNbbwopyAZe1UdJ6YZgRDYfC/cW9tjrofKW1f7iPaGASjhasNbjWKL6Rjw6Vds6ITAmtYMb/9PYltnPuaI/rXb/RHb7lLtdyQcFjMaCbNdv1rF4XOztB2Eb1KEPlVRMk2XlJOucqNy0ga0RwXc2zmMP2LFfn6Lr2e/H552dd5FrnXOF6N2x2Ojf2uS0tCI361Oc2yrgewXXfs1uy+ew64qKPbbC6aqmgWoH1r16zxQfYCrLDz9NeV2PKyjt5P4npCGXXVnR5pNupc5KVEd4P0u45YT2j69n5qjm4PtFuzbxerV20TLsuw/XC13a913IftvLCNq82uC55DvqipcV7pU3bnjT7h9WBZfZrmbairTCAAQxgAAMYwAAGMIABDGAAAxjAAAYwgIGsBqZNcF0cPZXwzEprkHBaV03/nRvIPgLQytCzTvXMU30BHxcg2Xq2tBCl3Bf2tv5kXFY73a+FFeXCNJtSNyksyBoixbVdGDqnhRxhp4boc6zDoCatjLj9+/eCqcL1XGY9nzlx3QrCvbAMPZ/36CNPFEdit86+wg2//2FF+6m2jGqCpJM2kjurhO2u9UuOt7PLj2TVdRUNDMP1wjLSzl21z2IO96XX4f6idY6ua7/bM4xb5873nRrs/XAZPgs+7r5j7VntfSa8TtQRKNx3ta81NbhCa00VrntIJeVUY8rKL4b4517s9Axqe7+SZXjPSeugFP5NqcdU4ZW0/URer2HbVWM89JV2Habdh60OtdiwMrTsXrGqMCJe192hVpcbGnIdN95e6JR2x2Knay5cn9f84xoDGMAABjCAAQxgAAMYwAAGMIABDGAAAxjAQGMNTJvgOpzeM/p84hCRQoyWcwvPqo6GDOF6aa/DQCMuQIpuqy/pFSZVGyhFy5vo32sJ9MIwLWmkchjItUWeN2rHGrZ5Wkhp64dLPTdYgbgPOFOelZu2ngIijdBXGdFQO9xX2utiOH/hZW74wPsNC0SObXmh+LzcrMFptN6VllFNkGQ2qh1xrfBfnQB0TtI6oYSdWtICs2o7Z0TbrtJQT51nVP9ytkqO97pbnK6JcN/hCPTuBx8r+SxcL+l1SQC75IHiCNSk9cu939I35D67aIcPrn/y1Nt+2vBy24SfV2PKtg9DUk3Bbu9XsgzvOeqopA5LcduHf1Oiz6e20bt6frUcxm2v97Kul7T9RFyv4b4rNa5t0+6vYdlZ1qvFRsm+DrzvWi+8zB068dgP3ZfD38N1ed3Yf4zSvrQvBjCAAQxgAAMYwAAGMIABDGAAAxjAAAYwIAPTJrjODw37Z/sq/Gmdfbkb+ejj2JDARlj5ICF4rmUlF4QPeCoIMad6cP1214D71MLCdL+zNx+Mbdek9rNwUuelKyEMy9KeYYhUaXAdbtt26TVOIXRcfcPp5qOjHn24fsdiHy4q2KgmeA6ng+5+aGXNwWDcMei9akKlaFmVlhGGql33LItt3+g+zEa1wfXxfN6b8td8yjlRiKt19JMUXNfyLObocVXadqHPtE4Reg6v7ls6jrgOM+HUx2nOo/W130uMp4z8tvXLLe99tdX92rXPud+4YavTFOzl1o9+Xks4GbaFOjfETbse3V/09/C8pF3zdn9Xh6jo6O7QQtL9L+y4o2ni1QkrWpdyv4f7ydJZpZrrNaxD2EkiGtaH64Wvw/ZM85l2H7byarFhZWgZ/rtB197Rx1b76yutfuH2vOYf0hjAAAYwgAEMYAADGMAABjCAAQxgAAMYwAAG6mtg2gTXgtG3easfOaVgx4cEwfNK9bmeK6ypePV5XJihL8P15fXQ/oPJoWIu544+/ovifrJ8aW/BhvabJVSYbMgVVmu6X4XXCrErqZ+Fkzp2H1Du3Ve6fT5faE8FiydGvcWVH4YelQbXKk+jLlUH7aPnibXjzu9oa5trveTqQmhxYtrYaD00YrLlnLl+nY4Ft7pcwnTfY33HnJ6DHt1e09AevvlOv73aon/7y+PWsW1y/QP++dUjH3xUso6CloGXdzt9butGl71PP1vwmTDKsx5lRPcZhm9t8xdkCgrNRtXB9fHjfhSrnZPOe5aNe95yeM3r/CcF17U8iznaFpWGiNpeYb/qlzRVeOjTrzfvqtgOGMVzr3vgPcv81MfR+un30ZY2N/Lh+M49oXHdCxUAx22vTgO6T2p/cZ93D466P1i6y983Tlv5hhseO/ns6Lj1496rNZwstsWs2e7I8hXjbBT3mcu5gd2vuWMvbC85lvCeozbvWrR0XBlqR5uJQc+uj7ZXOPW0wu/BN8ffF449v614X+mMmZ56slyvxfaKPNNe7SIP4edJr+txH1bZtdoI62f/btB9RPcif64TOlmF2/G6vv8YpT1pTwxgAAMYwAAGMIABDGAAAxjAAAYwgAEMYEAGplVw7YOG6xf6L54VUCrIUjijL7k1TXXbxVcWQsNz5jqFBdGLoPhl+KzZTiOuetc840fW6n2NClbQpnBCZevLbT+t9ZHuceVEy53KwXWt0/1aOOnb7Ow5rvWCS30gq/bUuelavLzYnh3XLxw3/bG1ZRgiVRNcjx3p9udL50110X5DGxY+6bOe1eviz2k+7wMwO/8a2d+7boNTqCgjGoWtEXs6xqSAVMGVn4rW6nHnEje09y2/vRnrXHiPD7LiAl1rB4UsWu/Ycy+W7L/z7mXF9owL0tSe9SjDzku4tABIbay6WfuqbdT+xyMdScxG3HFaueVC4PzIqN+XnVd1DNBoUO3Trnmdp5bz5vlrNum81PIsZqurLcvV2dYLl2FgLIuqu7/vtLZ5YzLlj/HEiOukkbm+c8Stiwrr6h516TW+Q49sqTz50yMSWs67OLYTjW/PEyG69qd7pjrnlBhf+WQxrE26Ftfs73K/ft1z/kevw2PN+lr1tXt20nlLK0shsk3B7o9l/oLC9RK0xZEHHvEzdOjz6D7sOim2+9lzfMeT0JfdN3Q99m/bEXucJec2uP+pTUueSX/hZW7o7f3jyrB61HLNx7VTpddrWEY4Uln16n5kVdGIzptmtZClcBu9rst9uM7Bta6NthMzqOhcx42cjx4Hv/MPaAxgAAMYwAAGMIABDGAAAxjAAAYwgAEMYAADjTEwrYJrIdGX0PbcWx84KCAMfyyYjBkhFj7HuGSbcPsTrxUI6VmcWWAqELHyFNZl2WayrFNroBeGk0fuf8QHZtYW4VKjnRXkJB23hTfaJiksS9rW3h96Z38xCAv3XXxdbmSmppYdGXUKuyy8Lm4bMRINwawOWqoeFnglba/3FVYqJAu3Ddshbds0n/UoI6yTvY6GnmH9FEAq0LJ1tQxtKOwNP7PXWULgtGteobgCurQAtNbOGVZXW2aps61rS41Y99MUn+gUE7advdZ9zUYRp4VrCmw7b19c1mjSvSircdUrblr4/pEx97WHX/WjrbXU73aclSxrDa61r6xtoWPpefKpknqG18nhm+5wHTfeXryP2znxy4RZHIrHms/7GR8U8JZsF9wz5DRpBoawHknb6/20a75Yl+Mn/yFR6fUaLaOkE05wLKpLWmeUetyH62GjeDzBIwdU96QOP8X1gzbkvZOeaAvaAgMYwAAGMIABDGAAAxjAAAYwgAEMYAADGKiHgWkXXKtRNOpQI2E1ItoCxpYLLvFhTrmw2U/LunOX61p0XyHsCoIklaHwQoGPvvTPegKmanB9uH/Efem+V3wA9Z1Ve91ILtt0sGG7RMNJtb9CIAtxWmdf4YNgTa8dbhd9HYY31QbXKlP70VThPjg+cW41+lR18tN7x3RoiNZFvw+//6Eftd2mqeeDcrL6kNG+Tc/7kET7t0Cq9aLLvDGNpI5OO2z1UAcLPQdWUzlrNHFx/+fMdW2XX+dDsrSpxH071KEMq0+49Nfe2mecb5cgzGpkcK39R/crX3oOtLyFIVc0nNS2tT6LOTx+va4muPZl5PNu8NU3XPs1NxWvDx8CnjPXj5KWXT3/2NpW0y5H9138XWXt3efveTJlvuw+OPj6m+NGwBe3PRHMxRo/Z66fUl+dN/y9NDKKXmVsfL/bP9daz7de9npyZ5To/qK/h+ctrSNIdLtxvye1xXkXu7YrFvj7gab8jk53Hb3nxBnTudI5i247rg52z1i01IXnw9//lq8Y16kjun09rvlomfo9ekzmJO56jdteBtRJQq5sW2/2/Ev8dRC3jd6r9T5cNxsnrGtUvD0/vnvFquTritCatsEABjCAAQxgAAMYwAAGMIABDGAAAxjAAAYw0FADkya4TvqCm/eb10NDoZPCp9+4YasPo6o5F9Hgupoy2KZ5BqZD26cFyfV4FvN0aKN6HYM6t6iTy69es8V3elHnl3qVPdHlRIPrid4/+5u4+56mw88SuHNOJu6c0Na0NQYwgAEMYAADGMAABjCAAQxgAAMYwAAGZqYBgmt6RsQGS/Wa7pfgembeWCbTHxR7lm/c1Ov1eBbzZDrWZtdlT3uf+81bXvTBtR4z0Oz61LJ/guuZce/SqHObBl5L/V6LG7adGW44z5xnDGAAAxjAAAYwgAEMYAADGMAABjCAAQw0xgDBNcF17Jf0LX3DbsVbHe6hN9vd6x3p03inXZwE1425cNPafKZ9pinVk6bu12ft197sR1Nq6nCFkdY+Y/m8n0lAxp98t7PqZzFbeSyPux0tvf6e8di+w65zYOqOtta5JLieGfeugZ27CtOEz5rt1MmF63hmnHfOM+cZAxjAAAYwgAEMYAADGMAABjCAAQxgAAOT0wDBNcF1Q7+oJ7ienBf+dLohy5ieE961aKnTs2r1/Fv9KJBqv/KGwhTA58x1/dt2NNT6dGpTjoXgetoayOXc2JHu4j1Cz/PWNOFtl13r35+2x82/dbj/YwADGMAABjCAAQxgAAMYwAAGMIABDGAAA1PAAMH1FDhJU/mLdIJrgutG+zVjCp9if2bNdj2r17nj+Tx/lLjfZTbAiOvpee9SpxYLq+1+0XLOXHfs+W2ZbTT6nkb509Me55XzigEMYAADGMAABjCAAQxgAAMYwAAGMICB8gYIrglyGvplvYWKLedf4gb3vdPQfXHBl7/gp2MbjXUf9cF0+9U3upYLLimG13rdeftiN/zeB7jjPlexAYLr6Xk/KQmuZ812um8Mvv5mxT6m472UY5qe5jmvnFcMYAADGMAABjCAAQxgAAMYwAAGMICBqWSA4JpAhy/sMYABDGAAAxjAAAYwgAEMYAADGMAABjCAAQxgAAMYwAAGMIABDDTVAME1AJsKcCr18qCu9ErCAAYwgAEMYAADGMAABjCAAQxgAAMYwAAGMIABDGAAAxjAQGMMEFwTXBNcYwADGMAABjCAAQxgAAMYwAAGMIABDGAAAxjAAAYwgAEMYAADGGiqAYJrADYVID1SGtMjhXalXTGAAQxgAAMYwAAGMIABDGAAAxjAAAYwgAEMYAADGMAABqaSAYJrgmuCawxgAAMYwAAGMIABDGAAAxjAAAYwgAEMYAADGMAABjCAAQxgAANNNUBwDcCmApxKvTyoK72SMIABDGAAAxjAAAYwgAEMYAADGMAABjCAAQxgAAMYwAAGMNAYAwTXBNcE1xjAAAYwgAEMYAADGMAABjCAAQxgAAMYwAAGMIABDGAAAxjAAAaaaoDgGoBNBUiPlMb0SKFdaVcMYAADGMAABjCAAQxgAAMYwAAGMIABDGAAAxjAAAYwgIGpZIDgmuCa4BoDGMAABjCAAQxgAAMYwAAGMIABDGAAAxjAAAYwgAEMYAADGMBAUw1MqeC6fyjvrn5sxK19ecwNjeSb0nC9/Xl3yYPDbuc7Yy6fp5dGo3tpLFw76p7cPuZ07uu5r6GR427BqhH37J4xl8tVfh7l73BP5dulHcOqbYVjbZbttLpV+9nyjaNu+abRCblet+0bc1esGHbvt9fXio69pSvv1sXcd0bHjrtrV474Y6y30Wiby+mdT426W9eMuM7e+tqL7qsZvzfj+N5tyblz7x12z+/NOZ3L8Lj1e0edr/Gw/LTXi54edRt2j42rU9o29ln3sXzs/fKxFwrX4rHB+l8ftu93DuXclY+MuINt+Wn19/FQV97duHrE9fQ3ru32HMx5h+X+Hj2ytfB3otx6dk5Yll7XdW+PfN4dWfaw69v0vDuey5XcQ+q+r+PHXc8Ta13/Szvd8XxjLOaO9bvep591Y51dqccy2nHYdd2zzI22d6Su14g2oMwGm475H/Oh/Qdd38bnXK5/IPF850dHXde997GWlzIAACAASURBVDf0WjiyfIXrXb/R5YaGEutRTx8DO3e5w7fe5Qb37mvYNVfP+lLWxF8btDltjgEMYAADGMAABjCAAQxgoDEGplxw/a93D7tT5g6671475PQleS0wOo6O/4K/bzDvnosJMWw/2/bl3H+7ZNB9f8GQe+uj2vZvZbJMxq0g8s8uHvSBXT2/qP+4M+++d+2Q+9q8QafAuNJzoODwzAVD7px7h53KqnT7uPUV8sr2lY+OuMHh+pQZt5+Jeq+zN+9+eFOhje99drSqDgKV1FXho9pPXhQyjVXRISFpf0+/MubLPnvxsOvuO3lu9rfm3WlXDbmf3j7kPjx88n2Vo/BOP0llVvO+7k+zFg+7r1825EOuasqYzNs04vhe2Z/znY0UUkc7G+k61r38BzcMub0flt7Pdx/I+XO7Zkf9OinpHvbg5lHf+Spal/C86L4nV3s/KK1TuE7Sa3VukEd1tgjX0d+1ufePVBWGWzkKvdM6aOhv4jfnD/m/kSuer/y+avux5ZG+vOuqsZPGptdy7uHnRsede9tHluWjWwv35v/vxqG6X9O2f3WUuGbliLto2YhrP1p67mydrt68+/EthfZVnaq9x42Njblbb7vDfe6//F/ugQcfdvkGhaBW77hlf3+/O/e8i9yX/uBP3NatL5ZYjVt/sr43cqjVtc2d7w7Nmu2OLH3I5YdHGnYsY11HXNul1/h9dT/8eMOC8sE397m2eVenBpAKt3XMbfMXuNHW9qqP+cDB99wpX/u6O/07Z7rWtraqy6nFh/zJoTzKZS1lVbLt0LsHXOfti93g62827FxafdTRQAHs8HsfVHV8g/veca0XXOqOPrbaKaC2csOlXQsyodfhZ/V4rf123na3d9e16D431ttX932Mq2c+7zuLHDp7juta8kDisY/bLib8j66z7aXt3t3P/+Vs1zsRxxKpk/4O3HTLQv93YOXjTzTl70C0Tfg9+f+HaRvaBgMYwAAGMIABDGAAAxiYaQambHCtMKHWk6Wg8K+vGvKjNPWFsX7++c5CML7g8RE3Mlp6QeiLZY22Pv2aIT/KUl8iZ62DggiFanE/Ck8VnNz19OiUGkmpka0aXfftq4eKx6VA7X/cOuSDZoV2tYbNajcFS/UeYWpBxN/fNuSD4kpHCCrA+fmiYTd7efYg6M0Pc6khtzyecd2gU4eKrK4m83pPvTLmQ+TvXjs4ISGrBdf/sHDIadRpvdpG1/3c+wtBooJqK1fB481Pjrg/nzfoLlxWuH/YfeTyFcM+wPubG4fcR5FA27avdmnhoML5asuYzNs14vi2vz3m71Nz7i8NBS241rUXtonCWXVK0b1ZYe8HHSfPe7ievVbAese6Uf83xAzELc9bUuiI8xeXDrq0QFz3PXXSSguJbd/h0jqLqHwF5LJrn6uDjUJRzRpi71W6VMeCix8Yds/sip+pws7dZQ8N1xQUW71Unv5GX7C09PqKa9u49+w6VGeWaoN0HfM/3Vm4/l97r/KOBHYsWZYWTH//ukH3bsv486R76rfmD/nOdWkdH8rt69VXX3Nf/qP/1/3wb//eHT58uCIPfUc+cFuW/a1bft7/4hb/7Ffdvf/yP7mVV/wXt3/nAy6fq+zfZRbc/P1P/tkdPXq0onqUO8aJ+rx7xSrXcs5c17thc8NHZPZt3loI7e5Z1vARpz6YPnuOO/LAI+PCutzRHtd+5Q3u8K2LXK6nt+rzNjw87C697EofnD2+anVF5QwP9rgPX1/jNi357+6BC37TW5THjUvOrKgcORkcHHTnXTDbfeH3ft89s/7ZirbvXfuM0yhgtUml5hQGt5x/iWudfbkb2vtWpu1HPj7kO0h03rPMVfLTfvWN7tBZF/mODwqxq6lr28VXOtXZb5vP+5H/GoltZfWuXe9aL7zMDb29v/iewuXeDZtSR2rb9uWWuf5+13HdLa513lVOnTjKrV+vz22/bZdd68a663Of0v1O9z11mNB9MEtdRwZ73f6dD7r1d33LPXDh/1Y0v/Ts/9k9devX3PuvPlHxPdg6jnzjW99xH370UaZ6ZKkr65z8txdtQVtgAAMYwAAGMIABDGAAAxiozsCUCq4tLFT4++CW0qChGgAKK6KhqMKv71wzfvSkyrfRlQqrFEJqCuSsXx6nBddhmK3gV1O6Zi23muOudRuFIbevG/WhTlj3uNdqz1r214jg2oIIjVxTUKCRlhpJp04Lb3wwflRmXP0VKClYUv2inysku+7x0qDFApS0IDPOo8ouF3hH9z8ZfrcARp08dh3IucsfHnatR8YHMfWsq0ZWyuAPrldHh/rtS50aTr96yD+mIAwCFappX3GjYh9/cdSPOlWYeTRjiK4QNcvofd0bdI+IC7asPd/+OOf+8Y5hb8fea/ay2ce38bUxp0D3724dKp6TpOBa56/SgFD3BD2CQO2s+0J4b7BAN+5+qJlD1DFi65u5YkcfbVtNcL1+d6GzyA1PjIz7GyK76nilWUNqsaCOGOqMokA/OnW27n2akWTpL2v/+6w6prVbls/t/Oq4K+0EYG2ksFidU9QRwN5LWr7+fs6pU1R4n0haN+l9O4fRf+PonqrOUnKStG2W9xUWzr34Mh8WPvTwoxWVpWBk+Xn/uRiYKCgMfzbc9ddueKA7c5ka3fovZ51bVXCZ5Vgbvc7IR4dc6yVXu2NbX8p8zNXWycJijbguFzzmR0bd0UefcCMfVB9EKXBU2BkXEirU7lx4T80jXnfvftUHd9894weuo4Iw9fkHf+Lu/fmvldgzh9UE1zonz299wQfXlXbm6N+20wfCaquxIyftq+3H+o6lurDguuuuJanrRc1oOvdwWnpN665QufvBx2LLsZHKrXPnO5mNlhf9Xcdx5IFHS4JxjdZuOe9iP2rbB+a33e07bMj/aGubP3YFuxqpHwbqFpjrPbmM7quS38d6en2HiY4Ft7ncwGDZsvw6KbNJ5IeGCyF7hin+B/e+5Xqf3Zy4T10vGj3fs3pdpg4s6556xt/3dP/LMsr/wzfWuvvO+g+x5s2+lmtv/qrr72lJrGe0vTXq+roFN/q6aBYO/R5dh9+r+4KFdqPdMIABDGAAAxjAAAYwgAEM1GZgSgXX9iW0wql6jDaMCwoVLETDbCFTWKQwQEGVpmDVF9M3PTniNJ1sFoQKIlTvb1wx5PQsXh2L/Si4ULCp0X1aR+GKpnXNUu5Er6N2UGCvEWyqq0Ys64t9hZI6HoX7S54d9eG/Po8Laiqps9ot7nxUUkZ0XQU3f3V5YdSafaZOERolqONSyKFw2z6LW6YF1xplrvLC7RSqqlOCpiXX55pW+sYnSsPtnywccn95+ZCvh40etMBbnSnSgspwX81+LSPLNhaMWNijQEujJsu1ay111/UscwqZ6zlFt4IonZfX3j95Ter869nICjijdW7rzvvrQuc8+lna7za6VIGlnf/o8tKHkj+zdc2Mb4trhiZNeN3s49M9W6OFw44N9jdFduzc7Ps45/725tLzbZ9lXeq+pR9bPy2Atc/07GJdO9pG21YaXFuHHHUWORDMDGB10FKh6LwHhmsKVlXOhj2FgFqj0sNAWPd7uavm8QthPe21tY3KVaciTfk9NHLy3hp+btvoGPXvA9Ur7vzaelmW1gFH07bPfyT92rvq0RH/+Akdv/6GDGR43IOmBFfHFzvvqpPO48K1oyUzb+hzBdnqfBHWW8/FLjcbQLi+XltYeOpf/nVFI+yOtr/tHpz9KR+cKLzeu2WhO3bkQ3f4w1fc0wv/ohiovLDinzMFN1avzVue96HJj//up5N21LWCPz/SMgjB9J6mBj/2/LaSc2LHFV3q2cDdj6zyIV/0syy/29TcGnEaBoNxrztuvN2PzNZo3oHdr2Wq38DLu8cFrQple5/+Zcn5HG1p8/sPp2nW6/5tOyoKJsMOFHctWlzRNMUKp8Ow7v7z/1c/8l/vVRtcHzt2zP3s57O8RYWKWc6J1rHgWstwGz/d+vwFhfYP3JSsc2LEdaXBdViGXmvKcU3j7c9VZDpofW5TeGuq66zPRldHCR/En6i7QvaSEdeR/chnx/W3lXRm8IH5HYv9iPKBV/Zk3nf0+Ox3C+j1bHV7L2mp/bXOucId2/JC4n5tJLU6Z3TdHT+CXecm6bPw2vNT+J91kb/uyoXXGm2t+50e1ZDV2nt7Hvfm1WHjiWu/5N5+8V7X23nQ9R895Gce0Ht2Tay75RSnGQmS2ib6/ptv7XN/8l//zFX6NyFaDr/X9oUM7Uf7YQADGMAABjCAAQxgAAMYKDUwJYPrr19W+GLYRrdVe1IVLEVD0aTgWl+a//WVhZDW9qdw4F/uzjaSVEGEvtDW8z/1ZbuVYUt9Ma2pYy0QrjS0sHIavbRR5zoWfZEfhgjhvhXOPr1rzL38bukX7baOzp3CzKTtbT21W/Qc2We2VCB1/aoRt/Od+H3Zelpqfzatc3RUnH5X+Kdj01Tx9rlGuEWfj5sWXIf702sLlLRfO16db4XbYWAR15HC9nPbmpHiaMxo+ZPtd10rch6GWmpLtana19q13vW24FqjQWWrHuUnnTt13tCo+uix6Hyq40YYMOm9La/nxj1zOFo/C+HCEDVcR/vSyFzd/2odNRuWO1GvJ8Px6Tr+5asnbUSDTZ1vPf5AI9bDdtH9TOc8vC+En0df676lH3vfjj2uI0/cZ9q20r8BNlJXnUbC+4rVQUsFsXr+da3Xh+5j5y4Z9iOvw2dpK7DW/TPuOMN6ZH0dto2OSbOdqMOIjfQOP1eZdo2oE5ie9a0OVfr7Uc0IcO1v0dOjmZ81rjZVpzNNK570jOrocav++neFRlJbx5O4pTqjaIaQax472dnJOqjoXpvlb5/2HY6u0yi7zKPr8nmnUa4KRjTq78DLDxdt+3Yf7nfP3P51/7lC7Y73sk19q2010lYjbjVN87O/3FRSbrS9mvW7BVwaUVoMq26724+27kwIvIrrnZjS2Uae2gjVSo7Fj+yeO9/vu9yo1dzQkDt8851Oz+RVmBiOzE3bpwI6hZ9aRuse/t5+7c2+/JL3TkxD3XnH4kwjYVWPt99+x/0/X/1z/6PXaXWLfrZr3eVu5+qLXPvBF93oyIAP7x6++H/3/qoNrrUPzUCgMPEnP/155mcOJwXXKq9v43P+PPjnQseMNq52xHW0PQZf2+tazr3Yh+jRz/S7OhW0nD/PDb6RbTryuDKiwbVG/WsUstZVZ4bDN90xrlPG8IH3/Yj9wb37Us/vaHuHn249NBX3WqO+5bpt/vWpRrvuXOKnYNfU6JrGPym8tutanUH0Ou64/Tk86yJ3ZNnDma+luHLC92x0fyUzDWi2i2fu+EvX3bo3tp650WG36b4f+GtA4fa728uH+1ancOaLe5dk3862Z1n6xQrtQXtgAAMYwAAGMIABDGAAAxioj4EpFVxrZLK+5NUzlDXysLvv5MirakDEhdRx7ynMmLW48MVyGFTpi22FGZp6ttxzbBVEpAXXqr+ePapQQevVe9RoNe0Tt40FEwrPdh8sDXfi1k96T22nEc4KFTRSLe7Ler33368fPwo5uq49N1Zf4Gta7aR96n2FCzpfSdNW27lW+KDX2kYdHNShQOHxWK5w4VmgHIZTSfvViHS5VaCbtI7eTwuu9ZnCtBffKh2dl1ZeMz5Tm/3LosKo1jDQUl0UmqntFawpCKx3/a5+rNDpQOekXiM+bXR+GPRplgWNwNazd7Wv0GNawKTnl6fdJ+z+lhRcd/Qcd2cuGD9leb3bsVHlTdTxaWR8dKr+8ByFr3UP0rnUbAd6X50t4ka82z3G7gPh34G49pKL8N4QBqzaVvXT3w7dB8PPrCxtW0lwrenof3r7sP8pNzW9Zgn40c1DJSN6bb+VLPW3UkFy2BYKiJM6Z1VStq0bbRvrOKWR89pv9HP9rnutta11TAjPhZVdbqlrXscSdkJJ2kZ/T/QYCI3Mjnt0QNJ2ejTA964d8vf+uHVU76SOW/Y3aPby0nMQV469p2eYalSdQmKFJ/Z+uWXP4f3uobmf9qGInqU6Ojw+5Gnd/7xbes5v+HW2rzovc9n5fN7ddMtCHxhqCnONxC1Xn4n+PEvAVa5OFlL2PPlURQGYBdGaHjkc5Ry7v3ze9Tyx1o/6VPBXLuQOy9A00xpRq1Gt4ft6bXU/umrNuM/0ucJbBaeDGUd365xrlLVC4qxTJUfrFP6uUaf1CK7teb967rBmJgj3kfQ6Lbi2c3do1mx/XqKjna1dax1xranqNbpe5Y2rZz7vuhYt9dO+l/UTjKJWyN21eHkxII5OFa4Rxpo6XM9d1zO+NcI8um9Z1E/0uKPr6fexw51lfStEbjlvnuvf8Yo7+sgTNT/nXVOJ67pKDK5PtJ3vbNLWMe744o6j3HvhTAOVdB5SMJ3Pnex0F7eflnc2uaWz/qO/B/9y8fcytbuVo2fM63qczDNfWF1Z1v//n2hT2hQDGMAABjCAAQxgAAMYmIwGplRwrWcRa6ptjTpcsGrEKQippVH1xXt0amYFF+EXxRZOKxToODo+KLegU9Oz6oturR9XJ30BXS641na2XlIwrGf3rnh+1I/q0jNYVaZ+9FrTkyocTaqD1auWMjSKTfsL28jKrXSpYy0XzqR9cW/7s3Ci3Kg6fdGv6arLBRE6z7Jh5et19LnnFhqofrZe3NKmmlXAo/NypC/v9NzjMDyz13FThWv0p2xp6mKFKBrRp6mry53juLo0+j0FSToW1TGpjRXqfPvqId8JIAy8aq2b2kMhpK4bTal7yy9GUs9Llv2pfrqmdDwK2zXKVAGV7j+6BqPXgHU8UYAelp/Vp62XFFwrRFcoF05ZHu7HXnf1FqbEriRAs20buZyo45MFjXjVNZp0PGobhYwaNaxrW16qncFD+1KnFruOtVSHG/3YewoX9exn/X355zsLfwsUgitgVWcbXdvhPSfLvTE8Nk3Jr7+NWR5dYX+zFMZb55ywrFpeq97qoBH3tzJarup60bIRJ6/Rz+z3aDCta1LXn+6JmiI7/FznXY9f0Lmwe4uZK3eftv3Z0oJozSoyPJpcP61v7Zl237Nyo0urX9I1r3pH7zNWRta/Qba+lus3POvDiW+f/n3X3p49iHlv98riM4X3br7Vny9NRfv0wlOdPlPZQ8e63BPX/N8+NPnF9X/shgeOJp7XsE56bdOFT9apausZXEenlI62RcnvJ4JojYQeOjG6teTzIGjU+5q2XCNMM4XckW0VStcUXCcFp5H9qJ49vb3uf/zDP3mLy+9/MLOTpGOvV3AdTheedfrytOBa9R3YuaswSviK65ym3w6PoRhc31dbGxxd+aQfLT/41vjg2qYJ7127vmTfYT1iX+fzTiOhbSSy6ho3Vfjg62/6qcqjZSgkV6BtYbmWtUwXrk4AmgLfP0u8t8+PZk+aGj1al7Tf1WkgKbge6zriFNB3r1iV2nb+mfKPrc70fOuPPz7k/uob3/b2dd9Lq1uln4XXwZob/2tV04VX0mmj0vqxfvq/JWgf2gcDGMAABjCAAQxgAAMYwECpgSkVXOuLfYWmen6lQsqnX0nvfV7uZKu86JfC0fcUwKWN0NU+9CW9RkoriFAo8dK+seIX51YHfQGtupcbjWbrKeQIR3mqHPuSXuUk/agOGs1nU1Lb/m1ZaxkWXJc7Dttf2lLHWs/gOunLf6uDRj5rpP5gwrNH9VzkuGcjR02ovKyhgUY3Rkfaav9xI45V/6hH20+5Y7NjbNZSoZFCOAXHYWit5/Yq9A1DRH2ukEehVdYpdcsdl7WTZirQM+Tn3D/iZzAot13a5wqI1bFF15qmDFang3ufHfVBW5wJC6EUnIfl2vvlzqGtt3TjqNuwe6wYelr4qY4N5Z61q9kLZEh1rnT0Z1jnRryeLMdnoaSC2/faC1NJ65nC9/2y0CFIjjVbgExnbYfDPcdd70AhKFcArg4yur/Z9nbflRt7z5Zxn2W5N9r2eia3OoPYKGN7P21pwb1mEkkLjlWGZpnQDAbmMGlpnWyincGS1lewL6eaoUGPTYirb1zb6Pqyxy6En+t1GFqrPDMXnou4/YTvKYg+e/Gwu/uZUd8J5vvXDbpndo3F3rMVkOv4rBNCJWbC+iXdG1Tv6N8Eq6vd87Iem6YFv/Kq63xgctHseW5oaCi2za38cPnK2kt9IK3RfBrVp89sdN/6u77lcmMjfnSfRvlpOvGH5nzK9XS8m7n899//wP23v/imr5vC9XDfk+F1s4JrBdGannxg524f2HUuvMeHiXFtohGvrRde5qcvH21tq7gNJzK4tmfqauT/K7t2V1zX6PGHgV0tU4Wr3Ftvu8M7VLCugD26r+jv5YJrPRtd51Cjl/XM53B7C66TRrKH6ya99s+Rvu1u137lDT7MLVkvn3fdD610rRdd7obf+6C472pC5LjgWmUqNNdSz88Op/fWCO2O6xcW31MbJI08L6lzTEcHfe6nQz9/XvEYdU123r44dqR3lvJsHQuuFcDHHYNmEtDU++GxRV+3X3OzP7Ysx2eddHS/033P6lGPZXgdVBpc67nbP/ibH3v7i+5eXNd61ePYKCP7v0dpK9oKAxjAAAYwgAEMYAADGJguBqZUcK0vd/VFt75E1/TN+qK80i+KwxMXFz6F7732Xs6PyEsbPabRchr9rQBEIYDqp2dR3r9JIzRPXij6clmfpQW+9kW01tPIyuiIcn0xr/d/eNOQU7ilaVP1xbx+VFcFgfoCXdsnPee01jJsqnDtQ6NRw0AybNssr9UmExVca4pmdUDQVMv+WaErS0dI2vNCFVJEn28bmrDjsnOVFhq0dRemj9VoSNsubSnf0ZAiy37SypyIz3QN6vnssq1leE3aNatrw8IpW1/htabbTgqFKqm7BVSaAlnT7yo4lPVKygjXVSCl6YgVFmskazRwjDNh15amcw/Lsrqp00f4fvS1rac2U8cThfonR47m/XWv0fbR7abK75Ph+HQf0JTOGrWrgDKsk9pR7f7k9jHvUsG/OgGpM0toulx728j78HzLhq6PqCOVFfdZlnujtrXRvrq+9Lpc3cLPrQOJ7nl6RnLaMUY9huXYa/2dVCcdta25tc/iluqAFp3JIrpeXNvo+dZxz7jWvwmibWDnN+0+He5T2+vvmjoBqHOR2kSv9Xf1/PtK/97pGBWU6zOF11mOOdyXXlv9dM1HP9Pvqnf0b4KtV+nfhlqCCYWB0UD67W1L/HsaZa3R1qqXBdzLz/1Prv3gtthjsvqHy3AE7oLrb3aaSjr8vNmvmxFc929/2SkQ0/OtdfwKozVlsaZnjo7aHnpnvx8Nq+A6bsrmLO03kcH1k79Y6wMyjTzVCNQs9UtbJwzsag2ubVaCPz3lVLd//4GydSsXXNu504jh6DHUI7ge6+n1oXX3g4+63rXPFEc4a1+a7lvPtm6dfbmfLtwCV/+8dU1fvnrduOmk82Njrnf9xnFBbXSq8K67l7nWOVf4wFYjkvWcaxtdHRdye1/zF7ixI93j2iHaLtHfbcp1hfPhqHVZb5u/wMl/dJusv1twPdZ3rGSEuaY3V5CtUd5x5y5r+dH1Ku0YEd0+7XfrTKR79daH/rGiNhkZGXGXXHqFvy7POfdCNzAwUNH2afXis5PfBdAWtAUGMIABDGAAAxjAAAYwgIHsBqZUcK0peG0kskLdn9017DTtdbUnPC58svfWvTzmR1ke6kqe2llfKit4U4iruimweHrX2Lgvz1U/rav10oJrCxK0nkZwq7zw2PQlt0K58L3wtb44V5iv7RXQ6pm44ed6XWsZag+FE9qHfnT8t68bdQdaT4Zs0X0m/a42mYjgWu2iYFrtq33qJ1onPS9doee595aGE1rPTKjtbLssocE960dLnjmremi6Zy1VZvQ5vGlThcfV2epS76XCmq1v5nxQWm5aaq2rMFUmFH5F66LjlBMto59pH7oe9LnCGYXeatfoell+t+cnK7BWhxFdj7WEvJrtQNM673inEMhH66/foyNLtb7uT5oWOhxlas9RLncO00Ks9bvHnAJGXX9qDx3jhj1jrtzzjLO03USt0+zjk2UFpeGMFEl1UlCrwPLrlxV86lERcbMxxLWddWB4LjAfF8DatnGfyUq5e6PuI3KmvxVpnatsP+FSnXN0L5IhdSBR+KpjlGuVG66b9fXugzk/40JSCBstR8eYFMrautY2urbCa8peh1Ow23vhMuu1p/0ptNaMBTpvYYiv9lAnlvBvt3zI0Z/PG3QLHq8utNY+zZ/u/WG97bVGpUfvM/aZjXAvd1+xtrTn9+o5pgoO7f1yS00JrtF7CkP0HGGFhNpm17rLE9/Tuu/teTzzPiZ7aDLRwbVCaz2XONdTOuLXjzo9b54Ln4mscFLBpH7ipooud37tcwWLen5w5533xoaWh86e49rmXz/uM4WhGlmb+IzlmBG0N950qw/INMJTHSqsDtUu6xlcv/ra607TJes62fbS9rJ1yxJcJx2XbVvLlNca7awR1XrOtZ79rNH54f4Gdr3q9GPv+RHadyz256tv0/Oxz1tXUKtpwit5RrqVr2VScJ00JXe47bjXJ6bL18jn/m07isdh6/lZCebOdwMZn69u29nSgmtd4/aeln6K9Yuv9M/wtve1j6H9B8eF/fZ5ueXg4KA774LZ3lals16UK1uzXmxe+kN/T17yr7/uPnw9/nn0aeVopLXcf/eMH7jOrvHPuk/bls+q+3cT7Ua7YQADGMAABjCAAQxgAAMYSDYwZYJrCwq/d21hRKVC3X++a9h/+V7tCdaX9NEvzvWeQjhNv2pfXisc0rOK7fdq9qcvlxXQhV9+Wzn6wlwjpC0kUYigKabt80qWCtwUnmmUqJ4JXsm2tm65MsLAUcdkP6q3RoNrhHGWQC1LOJMl3LAv/+MCE52zh58bdY+9UHgutMrTjx2rLa2MuM/inJjHuPVHRo+761eNuK/NG/QjMFqdVQAAIABJREFUdi1o0NTEaiMFHXpuqo1Atjqo/lGP2s9NT464PQfjz6Wm8dUIUdtHPZY/X1Sop86rTK59OX40puqmZ8pqhGXSlN9qO5WjpR1nuNRzav/+tkI4qPXUZv94x7DvCBGuV+61wia1rY1y1WME9PxiBUzlto1+ruOae/+I03TKFpxF6//ES4VOCbovaHtdw5ry2J5lHpYpWwreyj3aQJ1SdH+LTjWuY9Cx3PDEyRkmzJ9CR4WP4f4m6+tmHZ/aT/dXdbLRtRJO028dHuLuHWpHubaZNPR3wToOpLWxOkzoPhh2qkpypHJ0DWhKfXWesXJ1X0kLrnVfU7CusPnld8f8dZj12rfZJWRH180r+3O+U4Rdf7qeNTLd6pJ1qTbUowIUYJfbxqZTV2eh8Lij26nd9DxrPX4j+pl+T2tXfa5zoONJun9ambqOde1qinh7L1yq04PCa113utZVpu436pxUbdBfqN9xf89P8icH0b8JVi+7B8T9DbJ1wuXOna/4UELBhF6Hn6W9TgquLSRZft5/dh3vFQI+G4VdaXCt/VuY+f0zf+iOVDEqM+0Yav1sIoNrhYk+yMyNv44UOnbds6w44loBtwLj1nlXlUwFXc3xTtSI6zC8U4in36upb7hNPYPrsIPH46tWl62bhc9ahnXK8rqWba18BdY2FbieyaypwdMC5+ED7/sp5Y8sfSg1gJX5tJBWgbl+rB7hMi241pTcPmTOMqtCPu+ObXnBKbSW8d4Nm1yuPzIS+ESwrY4VGiGtkdNhXdJe2zTreiZ8bqDUoZ4Jrudbq02tDF0jh866yGm0eX5kpPi+fV5uqfua7m+6B+t+V279Sj7/8I117r6z/oMPrp+5/etudLg0iM9Slryrbqd87etO10GWbVgn+QsW2oa2wQAGMIABDGAAAxjAAAYwUJuBKRNcW+hhIyr1xb2CHE3rWe0Xx3GBZNx7hkz7tOeY2ntaav8KspLCO62jL5cVDJT7sWAzyzEpgNEX7grG7EfP91Vorf1Ew7awzva62jJ0rBqdpvAj7pgUeFpYbPuKLsuFM1o/7Yt7K89C57gv/9/4IOc0WlXnzsqL+6I/rYw4E+VCAwU/CqgVclg9NZWtOi4khSiqf1JIYWXELRXM6XxkMRO3faXvqS01ulpB/JY3ciVBYLQstV05i6q/Qri4YDFaXtLvCqxtNgato2n01ZblRozHladwU+dKn5ULxrSOrqElz476Kaj1/ORoma+/n8s0IjZpXxoZq0cEhMdSzl+0DpPh94k+PnOqEFmjU+Puz++25H2nj+hjGcL2Ultf/nDpiNvw8/C17sd6FEH0XpR07OG24eu0e6OOS7MTXPrQcHHKbHWCCQN5TVevvyXRThDah9kJZ5fQ9reuGXFbXh8floX1SnptnSsUROvep0dKRDvmhNtaHdLCeatrWjmVtmtYh2pe63ng6qCS1qGnknLT/u6onLS/f9aGcX/P4upgz1bVaFKNKo1bJ+69pOBaU9EqoA6Da42y1nvVBNePPrbKhyaNePZr3HFV8t5EBteZ6pXPu94Nm13LOXOdQrexzpPhWqbtY0ZBT1RwfezYMfezn8/y51pTE2u0fbV1tu3qGVxrpKlGnCrA07TOto+kZS3hsx/lfu7F/vnNSeWnvn9iOuvDN93h8kPDPog+cv8jyeXl806Bdevc+cUp6JPKH+vs8mGxyrYpxm3ZdeeSQoeJOVc4dbSIfTb0eRc7TS9u22i0vj2DXVPeq9NF0r79+7mc61nztGu94FLXu+YZf3xHH1vtf+95Ym3p9N1a94m1ftpyTaV/ZNnDbrStI718/dutv99pFHg4g4H2rbBaobWmQA/rmHaNhOslvW5v73DfPv373lY9nyPd23nQPXrp/+Hvuysu+YzrPVx+ivu4OmqGAbmv17Pn4/bBe7V9aUP70X4YwAAGMIABDGAAAxjAwEwyMGWCaxtRGQYCCnS+e+2QD6mqOWlxgWT43sBw3gdXVraCQQVk0WlZ7Zmm+jJ7xfOFZ2PaNrbUl8txAa+9pwBYU5/vOnBypLdtGy4VEGh0nqYCVzBh28ctdSzhtva6HmWcLOu4H5mqdlFgoxGzVhcfnKQ83zktnLHy0764t3XKfflv62mp8vQTvqfX9nzW0JetE5qw9yoNDbSdyk4bYajPo8G1wkp1irDg3fbfrKWCG41MfHbPWKagXG0nD0kWw+PQSPVqjtPORTg9vgVp4SjlcF9JrzUd9C+C53SXC8YUFmo0r6agVpCoZ81b2ToWjVbXfUEjrlVP+yxuGbcvHceFy8Z30LFjDi1rf5rtQCFtuX3F7b/R703U8akd1GFFo9QXrh11etZ83LEpZH5oS7bZIXQe1Ekj7IgSLVP7lYW4503HHbttr78rGjWtzha6l6mTlmY9iAt1tQ/dDzSLRFpHFQXHYUcO25eWcXbCz6t5bcen51Zre83Kob/N6pCitouWqZHQP7h+yLeV/s5GP8/6u+037v6ittLodz02oB7Xg41M15T91c5mEj2ucn+70v7+VXoeqx1NlxRc21ThD835lOvpeNefw1pGXFdbv2ibNuJ3C7iizwq2UC7LUiGeRoVWMzI3PCaNOO26935flgK6ej1/Ny2UK/csZh1T1qnCGzHqtJ7BdaX1Kxtc5/N+CncFweF51GuNnrfR0tHPsvxuAWs41bjOlaZ7j3NR7jyG+1R92y6+0slF+L5e2/VwdOWTPizXtOJ6z9ZLG3EdrmfrR5cq7/DNd/pnd5eM6rbR1bNmFzps9PYV96lnUmskt0Zma1T0oVmzC+Hzg4+5gZd3jx+pHRxHNLjuffpZf+yaLjysW9w1oun526++KXH0ebh9paP5w22TXg8PdLu1N3/Vh9YacX3g5YdL6py0Xdz71c7KEVcW7/FlGgYwgAEMYAADGMAABjCAAQzUamBKBNf6gl4jq/Wsx3DUoUKEf7ozfnreLA2j0WjR50cqYLLwUF983/3MqJ823MrTNoueLg0SFXadfvWQDxt6Is+ltu30BbQCPI2G1qhofWFtP3GjuG27cKlwVc8ztWC43DLuy/x6lBHWKfpaX6YrvLGR2GnT66pNNA2sgrakaW7TnvFp29hzTONC52j9tE/9RN+3AESBT/QztaOZsM/KhQayE46A1Hbar6aYlWeVWe4Z1+GUvgpgVKbtv1lL1T16XGl10XFmDa7Tykn7TPcEXcfR2Rc00l7hmZ6/nrZ9+JmOLWxncxF3Lela1/TBZy8uTJWuxwuo84ZGnGqU6IJVI+5b8wvPVNao67SgUXVQGKYAPJxqeenGUd9BRSGmedfSnm+r68Pet6no1d4aIVyPsC5sm1pfT8TxqfPDM7vGfHBdzqmdW3UsUEeMcscXd02H22x8bcz93a1DLm7UvfalGQXkKFovlaspqnWutY7d1zUNdVi+XisEPtxT/j6gANkeqxEtw0LjuPtgdN0sv6v++psY/fusThynXTXkfnDDkJ+hIbyuLLBNq8OHhwuPIjDfccu0Z1zrXmt/h6q9HvTIC/1dUccsTYOu6z3pb7y1lf7GykL0PNvn4dLaYSKecV1tMJwUXB94ZUVxhF//0RZv1cLsakZcV1u/sD0b9dqCuqqe0XtidLOFhtUG18de2O56121wbfMX+FGn/S/tTJ3qWUGethltaRt3H4lrJ4VyE/GM60qD4bi6Rt+brMG1pq3WaOS4c5U71u/ar7nZh7NjkWeZR48v6feBnbt8UBsGrH46+Xvv91Nsh9tp+vDOhff4/eWO9pQ1MdZ91LVddm16cB0Tamuf1QbXGiWt9tJ1Nrh3X6xvfxz3LPOzDQzuGT9zhAL73rXP+GtEAbaC7L7NW+OD6xPnoPvBx4rtMfjmPtdywSU+uO68e1lxxLg6p2jUeHiN2Mhz209JyB4zq0G9g+vc6LDbsvxHxdD63R33x7ZZ6CDtNcF1+X9bpbUfn9F+GMAABjCAAQxgAAMYwAAG6mtgSgTXCoK+e+1g7DNrFejFPTc6C5S4Ea4KFsKQUqO6NT25hUAKlTSyMwzDbFpW1SVpv/qCXoFEtXW18F5laCSzQrp3W8aHYRbGaL1o2FaPMpKOL3xfAYXCawtgbNrlcB29VpvEjSoM19M64fkIP7PX9uV/pcG1RvpZmKJzp3bVubRybal2jJ63csF1R09hhLWVryBToyiX/rJgRKFGdArcOI9Wh6m6VNvFWazX8ah9FZppdKmu1bBcBXSaJlojLsuFxuF24Wu7nsJrSfvUc+BVtkJSnUubQljHqvuDPZNaIVZYXtrrOGcKyRZvGB030recv7T9NOuzyXZ8upcrjMwyKl/nXKPZNb123KhrhbQKNeUgrn11res+pTZQ54T7N40W/6aE6+t8a8R2LaPmzUbSvdXul2mhcVincq/13G91UIp7pryuE4XXurdq9LXdD+260rWZVL7W1fTu9rc3bj0rJ7w+49bT9Z+1g5htr/3rnqJ7v65rjbS+5rHkTlYWrOu+oOO9bc1I2fDa6p/0tyvt75/aRR7V4cHqnLasJZTYuORMH46Eo6v1XGtNE/70wr9woyOF586+svZSv97yc/+Taz+4LVO9rM6aOlfT1GqaZk3XbO9PhmWzg2sFoAod/UjSs+f40ahlR3nfdrcP91rnXJFpNKhGnWqEbdzIYAvd40bf6vwojG+74jo38vGhsudtsj/j+uOPD7m/+sa3vUVNX1/OX+yI6xPPZlYng8E3344tY/CNt3wI2nXfg7Gfl9uvfz7zHYt90KtOCuH6Ol/tV93oRltPdlro2/icazl/XvI04pGg1cwrrI1a61q01Gn2gSQPScF1+5U3uGhI74PmZze7zjsW++m+E6f4zucL05vncm6047DrunupX4bHHb5WwK2R1mEbhJ/rdeyo8lzOacS1RlJH148bcR1dJ+33enbaUGi97dF/dff+/Nf8z+6nrqgptFa912941rv/01NOdfv3VzfdeNrx81n8vw9pF9oFAxjAAAYwgAEMYAADGMBAvIEpEVxr5FlcMKWTauFUlql4owjigkJ9AR4GpQogNaXp4y8WvhxWEKUv6cPRcBqNlTayWPvVF9D68jsagEbrlPS7jepWGdER3+E2FsZoveiX+fUoI9xX2muNrrRnbcd9Ka8gQW2iEexpoWLaF/e2fxnQ6DpND2zvJS1Vnn70+Zsf5tw/LBzyzw9W0JB0Du3Z1AoZrFwLh6wse9+WCj3kQp0u9J6m/5UrBTm2TnQZ5zG6zlT7XQbjLNbrONJCM+1DHRI06lKPGqhmnxYs2bWka0gj/DUFuE2BbLMYaDaE3QdyPuDSaG9tsyHDSF6r19OvjJXce+z9uGU5f3HbRN9TACu/ur8plE27DqPbVvP7RByfgk4FhhYipi31N0M2tUxbT5+p85I9BiE6elfTfMuZeUhrG7se9LgHC3HD9dUJotbzYPf58G9UuA/7G6b7U/h+Na91DPp7pGss6d6m0cf6XLOSqG7aj/2divvbUEk9otdn3LZqT51Dze6he37cOtH35GjO/SPu1EsH/XmvpJ5a93vXDrrWhCnqw33p2erqhJb0jHVdn+G/R8Jt1fbhqG51jkgzqOda6/nWCof1LNOwrHKvLZBeOus/upZ3NvltNRJ73S1/5t7YdEuhrHze/XLx98YF3OXKts9vvOlWX7cf/M2P3dGjRyuqn5XRqKWFeBM+4jqX888Q1rOB9TzrpGA57riLodyjT2QKtI4sX+F6Vq+rborpXO7kPvJ5p9G6cXXSe3qmtZ5tLYfnnHuhGxgodHpIWj/L+/UccR2Oin3yF2sTj8PqFQ2u/TTXt97lRzb//+y9WZAdVXrvGw774Tych3siztONG/fhxo3o6Ohot+/pY/vaPra5bZ/u4+PjaJqhTTfQLWjck5kELRoJgQQaGwQCxCAJBEhIaGCSkECABgQITSAhkEATQkNVSTWrVIOqNi/rxn9VfZu1szJz5x5KtWvX72FH5s5cucbfWrsq/9/3LQmslq7gOLQ3tQ8dv31XfJqIkFzw/JBXs/aqlgAevSchW3tZy9hBAq68iE9PutsLw1GRe9izQ+Ua83HidNo95ZckXMfym8u5XMI+5wqFrnDq5smsfbFlIHFuyzb3lZgr0kfF7stTXYYdWaMgVCpct3d0uAnX/9KzP2fuPJeLGBwUq2/+fi7nJFSbaL3l2QlOQnb+fpn9YlEv/vG//7M7duyL1PzEdtPc+T4c+7nN276e/2WWXWndeT7+JQ/9Qr/AAAzAAAzAAAzAAAzAAAyMZQZqXriWZ7NeOMubLemFvkTlf5hS6NGVZVD0gllesKHnq4SF8EWxypQoKi8qCaS2n7W84uSxq4/Oi3nt6QW0RJJyhWvz6paHoF76J7VP4pDKiRMLq5FHUrnR6yYoqB5xL/2jL92jz9v3tBf3lqaUo/LTx56ReKfxE2M7PhsUlVW3UKTWnscSZ8IQsVmEQ3nrLXpjUKCScCqBUIYQVnb0qH4K2QvvS3BRveO8PcN0tXZuQp2O1a6bxkn7bStEsQTjuPy1j7HCd//0/vgQznHPhNeMY6t/dB9u7XurcN3aS1mikUI+a5zlfSqjhSnP9TqFGw7zTDqXN350PUpKm4W/pPXS8pSwaWvFv9zbkyieWfpKjxerfQqlXcy7VuxozTZjFe0bvT+D4UulfZA2HzS39Ts3Z3X5EQJUP4no0bDdYb2N6bh1OUyX5VzGQvpNS/t9NuE4jGhh/RC3NYNC/0e3UUgyLEgLFW7P/GrB4G+vWC8mXmuuKsy6thhYvvWCU7hyrcml9FXaOp6lT8M0WX//FJ5ea5y2C0j6jWhsbHI/vPRKL5pk8SQN63F0zyovkigE+P5ND8WuZz3nmt2LM/8fL1y/Mvf/db3nk8XLMG+dh164EjUlbkbT6LvCKzf94WHXdP8j7tyWd2PD/8Y9V+k1E+oumnA9MODO7/rQh2pumvuw6zl0xLWtfrU84TohnHMpfVLM4zqf19AexAqnfO6d92PHUGmfeXap57Ba3vXVFK4tMoGMPGTskW9bgiBnwnXn21v9GJ2aOHlwj+muZEG+5+AhJ2MEheLW3ufdH31ctJywHhb2W6KuPK/De3YuYVH5az/003fNcOJIHNv9YkdjPotwrZD0oVe22qR+0NGuy3M7VriO9KvK7RoS8+WdLS9t8STvadX53Nb3vBFH05z5rv9sS2F7Bga88YX2us4i0MsbvkHif4JXfLSPigrXoQFHpF3Kq7+/39173+zKjDZyOaeQ4NrPWuuxQoVXQ7RW/cx4SOK6RPZo++27efv7CBBD4dhlZGD3OSb/n0ff0DcwAAMwAAMwAAMwAAMwAAMwkJ2Bmhau9cJbL8QVJtw8V+MGVy9qf/v44H6W8u6KSxN3TS+F5UnX0/d1h+mFelQ8lOAij295lJlgZGFY5Un7k/sL995OKksvzssVru1Ff5pwLeFMgpmJUXomrEs18gjzSzuXUCuhQnWRmJ6WNu1e1hf3aXmE95SfPuE1hc4NjRc0xhL1ZJQQpgvPjYNoXtE0Ela0v7FEMnnWyUM4ySNU+5xKcJJHr4kuOqoM2/s26u0ZlleL58ZclMVq1FVitforLQKBypHXs+avDBSSRJ2k+pjIF62/F7he7HMSxcyL1DyvvUA2Y3A7AYV8Vth8CaVJZei67mvc00Inh88X409r1TXz0j1M5XFra0W561JYp7Tz0WhfWn3MU98MjmTgIAOluP2p0/KJ3mvpzLlH110omL/hXE7z8jaBVetmueK1+P7lgl73uyX6XYtfv4zpUsTYaDv1XWVpThX7fVZa9avarn7Xd0XaEHvReaV7YiUMES5jkWJGGHquks+xxpy794VBz3rVycqzsOql9FWacN3dO7iXechE2rmMYuJ+E8Jn7nthcD9zm8tJ4rU8W+XhKk9XiScSUbL2WfuZQ27Znf+HF0pee+h77kLvcAHs9KGt7ulb/qNPs33NxMx5qw4KDS4RU3WTqJlWL3lfSsySaKLQx/ISlpCX9kyl90zEG2nhWmGTOzdudo2z5rnWZStdGDa5qGgWmQN5j+sE4Vqeus0Ln8kLiyYwxh0lQMo7OC5sdJheBgUnb7pjcGwmTk4Ur+Xxr7H+67/5/9wnnx6oeOyqKVzLqEN1k5GHjD2KsdOx/s3BEO43TvJtb1v5UiqP/R2dTqKrhGt5QiuUtQRmebxr/IuVp/td733gnym2f7n2dta4Nc54YFiI7mLlGPNxYx4NFa75J0/zXM/g39ZxHteap/ICL9ZG7dstLlU/q4PC2Ft9vWj/5BLf5+0vv5a/bvd9/86d70XzYcJ2ZI7IuEJ7YGcVXdPmoMrS+qB2ponmpfJl7bLj4Z3Pj4hoXcrvgxeu5z+R5z6LQYLVn2Nlf6vQf/QfDMAADMAADMAADMAADMDAeGKgZoVrvbzWnpgSarOI0fKW016aEmDe+aRQsI0bUInVEq2j4VL10joqXCtUtAnXeqE9dVmvD62rfCXKpokEVrbER71YLlcgUihReUUqjzihzvrLxGKlkzhg5etYjTy2fTrg7n+xL9WL1O/T+uRge8PwsGFdsp6r36LjkfXZuHTKT5+4e3ZNouBj6+P3oA3TyHihWF5i57r5PT50rIWrlkgehni1PNMED0sz1o6aT2IxTqCqpC3mYZhFjNacldCjekicLEW8NpHP6q+xW7zxgpNBgrxNNe/UDonX8rRWuHB56Cs0siIcSEDWupTkEW59MBjJodcpxHgx8VNtkSAu71EJW6GIpfN7lvf6dUbtTfMw/aJp0Btd6S6f1ePD2Vt9qn0cjfaltUFzLeqVrLGSx7sMENKeLXZP3t5JHt8jNR+sTory8E/3pG9JUI06iHsLEZ7l91n1MzFY5/rd1VYS2lLC6p501D7ymoe6r/mntTk6hz86OuC38wjXVaWV0YhE8KS8leb5LRf8XtahAZulr7ZwrXz1+6KPlZF2rPbvn+0jXcyjblidcjm3dekvvCgtTz+JJ2EahQ3XXtfyANS+19r/Orxf7NzCmGf1clWY4PZX13vPSwnYEkwlWBUrp9z7JqCNpHDdvXe/61j7uvNiZEwI4TTRLK5dxYRr9eFAW3umkMuZPa4jwmBcvXQt3Eda++ompct6vVrCdRjGPM3z3+qlENdnhwQ8hXLveGNTqmgp0VZe0korz2HLR971uhbrRRzpUy90K1x28LzlEx5lmKB9qGXcIfG6/cW1mcba8jDmxZ1ds2PaPaWJE67t2bSjeZJbmVZOKFzr+d7Dx9zpSfc4CfOWn/bwVmQCffeh0eXRPvle1/PZoXwaS2vH1qUr/d7aEty1r3VohBF3LhFf3t9nFywalrZh6sxBIfemO1LF65LXumD8G4+86567/T/7dXbT01fHGhBZ20o9ljonu/d94vnS+hu3d3mp5ZOel28wAAMwAAMwAAMwAAMwAAMwAANRBmpSuNZL8Vc/6Pfii44mDkUrH35XGgndEm4lGinMZ/gSO0yrc9sbW2JFeE8v9aNCqUQphQ+NvizXi3i9WJZYEOYRd650EojKFa7lPSeBXHlor1V55El40ov1vUcH3KQlfb7tCplu4nVUlK9GHiZ6qI8l/L/5Ub/3plM9VB/1+49mDgrsqqtCOWcZv7g+07Vqv7hXfvoklafrYkOCqNqUlK6Yx6s9J0YUNUDiZdI+ppYW4Tq5v62PdGzu+MpHWFCUBZ2H95LOTegWkxKXFdI7KW14PRSuJXKt393vGoK9a8X2G3v63f+a3uPmrunzgpQ9ozDINueunN3tDp5IXif0jEKam0dqsXDXWfkL2xJ3rvpLBJcQHyfcxT1TzrXRal9cXc3IKerVbL8hP56TTVCNy7vYNVs/dSyWttT7+n3SnNB4hiJxNB8ZW5khVvRe1u8Sq/VbprDkpa7vqpsMSLIYNSmtPIrFj9VNZWpNDcVfzbPbnur1kTLCtmusFRFFxmyl1lPljYRwbe3Icqz275+JJuV4urY1HnRL7/jf8+L0/s0Pu3Mtx92Z47vyorWE623Lf5Uq3sW120JH/+znN2Tf3zqXc9pbVYKfxJPW5WvyjMSVUck1E9BGUrguVr+qC9eBIFas7GoL16FAXKr3v+p6rvVLd3jnsvxHLJqg98of/ip/XWm+2PtyZoEvDKe/7rUNmXjyQvLUmUX3j/YeuXPmu1O33eW0V3NBn+dyrm31K55jL14nGGFI2JU3shehY4wblKfEcYWVV6juthUvuoHubi+kyhP+zLwF3jO6oOwEDox5E5HDZ9LuKV25wrXms0R2CzNv5USFa3k09315skCIl/Cscn09cznXumyV709FCzBP8Lg2mPjd33nOydgjbe/sUudgWJ6dh/tcF4suYc/oeOaLHXnG18z4M9dy6mMng43ET/tplxso/P82zC96vmnzVh9p4Pv/41/c8S+/LOSzCCOKFhDNj+/Z/jehn+gnGIABGIABGIABGIABGIABGEhmoOaEa71c1otphUaWKFrKy2a9sDbPSglU8nTVvsVxArb2iVZoZomUISBxwnV4PzxXmHCVp5fmdj18aW7XdNQLaNWpXOFaeUgYllen8on7SEyWh9mNQ97OEgei9ak0D9snO6788JrEcwkoobgQ9kfW82q/uFd+CsmcxpXGVcYLaQYJEjHlnan80tqikNISkySe/ODuHm9cEfISPotwnbxQWT9ZOO5bF/UW7Dlu99OOJliKU42F9qUutv+0idBxQqMY0PjLKCEUxuRFKm9SjafqYyHNJV4neZhqzbOw1WltsHvVEq4Pn875kOLqG8t7JI6j1b5oW8yA4eoHemI9q7UuyABKwq4iS2iMo3lU8j2rcK11O8lrO658++3Lspe7DJqyiMZx5eiaWNfzGtO0dTTp+UHv+x537bwe19qZ3r+afwp5rzXZ8pMhmSIJLN1UGFFE0QpkuPVasDVFOJ5KX2p960247urqcr+98VYvUCx7/oUg5+8PAAAgAElEQVR8n1rfFjt+uf+1vHgikTr6eeOxf3G951tLyjes02OPL3S5BEEurm4KWSsPVu91PWe+GzjfXVLZcXnGXTMBTR6sCpMc541Z7JqF29aeyHFlFLtWqmhW1OM6QYyKq0e1hWuVsfWdbe5b3/6uDxHf1HSmpD45+uHqYexFWbTvz0/+P724F9eu6DWrUyninfKQt79E5Wh+/vvAgNP+16dvn+o9U/u+iBcF5f3uQ+DfdIfr+mDX8LyG9g+XSBhbVi7ntLezQl8rH4XUz9cnl/Mh6CVm69Oy5PmCMPT5dAETxvxFEa5zOe+tLiMUeVJb3a0Ow4TroJ5Wd4n5Yb/1nTztTv9+mjvzwKOxwrW8thWSP2uYcJVT6hy0ukWPWnsVjl5rsda/6P247x9umJGZebFfCvfaNmL2nPt9ne6cfLfr7U3/v8bqp0gBDdNm+3D3do1j8f9j6CP6CAZgAAZgAAZgAAZgAAZgAAayMVBTwrUEvQdf6fMvqj8/VZ6Qohf48qQzr+NQpAo9CrWHcVzI7VKE6xffv+BDARts8nyWcBAnAkngUl0qEa5VjoSUR9ZdcJfNKhSwJcRIpNeLebVNZelaVJivRh7K8+Xt/d4r+Yczvq6H+vzyWd1u9uo+Hzq5VJHA+jE8qt8qEVnCvHQuz3kJjSu3XXBvfdQf+1EateXfHu3Ni0cHTgx4IwXdk8eixB8ZCqTtSSwWJX4pakDvha/csz70fY83ytAYSoAJjSokdEqQkXFBtN5j9XtWoS5L+yT6KjT2ojcGPZmzPBNN88nxAd/Hmh/6aJw1T0KPzvCZOOFaY6bwxVfM7vbid1TcVHh45W1it4lnKsuiJYSCnda9Kc/1JtYhrI+dV0O4loeuoiZkDfVsZZd6HK32RespfmQ8IM92CdjR+/Zd4yVRVvNbBgiKGhGdq5a21GOW+WAidFqY97Bc8SiDpZ8/NLxd2h86XIe1l7far6gDEpDDfLKcK0KJwsoXi4SiMlvPDQ+JreuaOzIMuGvpcMOqsA5iXPtiy1gr/B3TfJPRUFT4lrituilaxvner9sm45QbHhkMn580z8Nyw3MTrmXkFg3Jn/RdaaNRW8I8SznX71+18rJy5Ukq0eTXv7nJnTt3rmQGOlu+cJuXXOOemfifvJCy6Ld/4lZN+6Y7tOO5kjz8rD7a41ge4P/t7/7BHTw45DEZI0xZ+ujR9giWd2na3rLR50r5bgLaaHtcJ4UpjhXNFyzyYY3jhMdS2q60IyFct7W1OXnYi0V5e5ZSp5EQriXeyftb9ZGIV8oe8LF1HxhwCqcsEVlhpM+9uz3Vm1d5KFS8PI4lCBbkqegCW951bateHi5aDwx4wVphrFVW90cfJ84DieZeHB/aj7th+hzvvS0RN+qV3N/a5vfRjuPH5kPcPdW7VI9r7eWuPpJw7fetHjJesXKKCte5nA/fXVAfebGvetkpBH9BXw6tLerrgvQZ1hylr8Z+zvJolnFEKZEvdq+7Z8SEa4s0IEMSGW/E9Vf0mtbdxpkP+LDs0Xt8z/YChn6in2AABmAABmAABmAABmAABmAgnYGaEa4VulcvqeXtluSRmnUw9eJf+9Dq5ficNX0FL72VhwQbhcaVt6Fegkt8lAenXkRLxNKLcnlkS3RMejmt8KUSAKavGHwu3Fe2WFjgrO0g3aCneqVif9iPn5/K+TE24TLuKMHq+od7hoV2lgAi0VTeunpOe+Qm7V0sBiVEr9tZGDVA+62KHZWhPCRkXjar2/MoMUZcRplT+gkP9XjRTfuca56EHohh+2rtXH2gdpqIW079JMwpBL0iCUhALCeP8BnloXmuefregf5hUQnCtKFwLdFt9+EBXw8ZHogHhQ2XyGlGEKqnxDOJ2hb2W/mJBxl0aGxlmBAa0ew9NuAeeDk9vHNYJ51XKlzr+Yde7XNvfFjIZ7ScanwfjfaF9dY4aS2XCK1xU9vD+0nnuw4NuKv+8LVhjub9Lxf0euOXcP4dPzOYf3Texn3X3NV80DHuvq79asFgGqUrJl6rLfe+0OdF4PYYIVrrncRPGRSJd4W0V74WDSCp7dHrYn/L/sGw2zKQit6Pfld6rY1iXmuW1jiVr20kZMCh9S+6TUeYh4nxShsncMcJuiZoyxgjnF/Kt9zw6CZcl9JfSqs2F9saImxv0nlcO5PSZr0u79bLrrjKaT/pPXs+KjqWWfMtJ528q+VlXTWxMIP4VE49TUAbbeG6FNHMPK7lkV5Om8NnRkK4Vv7meVqKl2dYr2qem5hYrgGFr0su5/col2B6+q4ZPqy39x7OGEVAntsd697w4b7DtslLX6GwwzDW8hSWl3HDtDmuddnKoh7U+fzMA/yOe3ykAjGl0NzDhOuzzV6kNXFX+0bLQEJldqzd4EOed6x/07Ol+aE8uj/c58Ntq67K90KJnvT5Og7NY0VQUOh0eZF3btzs9/XW3t7RT/tL63x9FIZde11H84l+Vz9rn2oJ5tF7ad+rJVyHHs6lRplIq1+598yYKasHuMLeiwVvJDFCa265beG59Jc+9A/9AwMwAAMwAAMwAAMwAAMwMJYYqAnhWi/E5SUsgaFanacX5xLDJRhF85RYtWxzYdhQCYoK6ayX+rb3abF9ZqP58n14X1faJ3pxX03hutL66Hl51IsVCVtx+cnwQh6QOz9PFngkrCgU+awhYwkTw8Vf2kfCVhzTcfWohWuVCtdaExTSOynkf7ltlMglUarY8yZcr3jngjda+PDIwLD+l3io8bYxlNgmAxytQWH+EuOi1zSWT2y44L48U9rapzL//Ylev1dwLfMwWu1TP8tAQeuHxGeNRzm/L5rLelZjK7FV4yzDp3BcVVacd3GYZiTOFZVk4uJep+0bolxFy1M0EEWa0NqiLSSibYimD7+b4YgE5Kx7yofP23oYGusUC9vd0jm4DcfNC3tjQ7qv3dnvVr07fI7JiERRFcLydS4jEgn8WY0W7Hk9J2Oij0sIpb/v2IDT3xOWRyXHkRCuVZ/Va17yYvFoC4ahWPjJJ59Wpc8q6e+kZyXMSQBWyGeFJ09Kl3b9wqkGL7gNdJ0v63ntW9y6dOUwUTOpTIlzCh0dip1JaYtdHynh+syZM+7qa64bdSOK0IBixsy5JXtbS5xufnqZO/vwk05ibt+Jwv2Xi/Vv2n2Jq95rWOK3ROe3trizjy7y5YipcqMMKNy4xOaeQ0dieTTDBxOuVceB9g535qHHveCtsPm9R47lnxXXtre2Qvc3zrjfh1BPa1uWewr/rbKUZ+rnpjt8/0tULZbvuW3bne1tXSxteF99ofDjCkMeXi/n/PCRo+6S7/3Ae15n3VO6nHKKPWORD+RtXWrkg2J5c7/wfwD6g/6AARiAARiAARiAARiAARiAgdIYqAnh+mIOmkKnPrdpuPigOkikkkBVqcf3xWxPvZe18I3BcOwST8ZCWyWMiKFyBB61z0Qwiapff+INMMZCf6x574IPDTxWxi/apxI/V7+bbU2QmKaQxPLKLiYkWjkSH2W4Y9+zHhUKWd7/EtSylpU172qmu9jt07xTSP65a/r8dgYyPqpG/8jQQR7CtWAkoN8wtVG8lfJb9fyWCyX/vmk905Yatg1FuWxoDGQAIIOfWme23DaOxHMy2lFY9mpzJ7Hiul/8yv35X/6t++ijvSWvP9Voq8TCJ55c7AX0Rx59vGSxsBp1II9sf1f1fH7Y7+3tBdkqe1hueH2j3+t66t33Zt5bt9rjJuHwf/6vH3kR8ciRo6MyH6rdpkrz629pdR2vbhhmKKEQ0c1PPO2S9uqWGK7IBEn3K61Xpc/Li1se47H7hBdhW4Yr8vwe6OmpmJFw/dM6qO+Vtq2c523+3XHnXa67u3tU6lBOvXkm29pNP9FPMAADMAADMAADMAADMAADY5mBcSdcj+XBou4sNjAAAzAAAzAAA5UycPz4l+7d97Y7eToPDJRuPFNp+V1dXW7Hjl1u+/Ydrr2jA8GkiGhWaX/X6vPd3T1u567d7r33t7vW1rZR4UBiteaC9lgfLQGxVseHeo3cb43WPa1/Wge1Hl7svu7r63MffrjXs68tJC52+ZQ3cmzRt/QtDMAADMAADMAADMAADMBAPTCAcD1OXxbWA7y0gUUYBmAABmAABmAABmAABmAABmAABmAABmAABmAABmAABmAABmAABuqDAYRrhGus7GEABmAABmAABmAABmAABmAABmAABmAABmAABmAABmAABmAABmAABmBgVBlAuAbAUQUQC5j6sIBhHBlHGIABGIABGIABGIABGIABGIABGIABGIABGIABGIABGIABGICBShhAuEa4RriGARiAARiAARiAARiAARiAARiAARiAARiAARiAARiAARiAARiAARiAgVFlAOEaAEcVwEqsLngWqx0YgAEYgAEYgAEYgAEYgAEYgAEYgAEYgAEYgAEYgAEYgAEYgAEYqA8GEK4RrhGuYQAGYAAGYAAGYAAGYAAGYAAGYAAGYAAGYAAGYAAGYAAGYAAGYAAGYGBUGUC4BsBRBRALmPqwgGEcGUcYgAEYgAEYgAEYgAEYgAEYgAEYgAEYgAEYgAEYgAEYgAEYgIFKGEC4RrhGuIYBGIABGIABGIABGIABGIABGIABGIABGIABGIABGIABGIABGIABGICBUWUA4RoARxXASqwueBarHRiAARiAARiAARiAARiAARiAARiAARiAARiAARiAARiAARiAARioDwZqXrjueONt1/7qejfQdT5RYO14baNrW/mS6+88l5imXGB7Pj/smh9/2vUe/cJ9lctVPf9y61WN59pfXOu63t8xYu0aONflOtZvdP1nm1P77ULTGdf85BJ3obEpNV012jyieeRyrmXJ867z7a3uq4GBEW8L4zf2F+H+5hZ39tGFrnv/gRGbhyHzLc8sr/qc7/pgt+e+2DwfON/tcn0XRnxehO2t1vmFhibXsf5NN9DWnlr/tjWvOs3LgZ6e1HTl1mskf+vi6tRz6Ig788Cjrmv7zouypsXVoZ6ujcR8P79jd9G/kdSHmn9nn1zizu/6cMTGcqCry/+Wd7yxKfVvtnoaU9oy9n+HGUPGEAZgAAZgAAZgAAZgAAZgAAZgAAZgAAZqi4GaF64739riTt50hzv7xBKX6+2LFQMkFpy8cZJrfuLpxDTlgtd94DN36ra7XMPkewfF6wo9tHP9/a732PGKXhz3d3S65oXPuAunG2L7I0tb9QK9YepM37etz6+uqD5p5XV/csA1TJmRKuZK3NYYN0yf4y6cbiy7TWn1iN7TC/azCxa583v2Vq28vpOnXcOd031bWp5eVnUWwzaM9/EL+8LOuz856JrmPJQ6T2UcISYrNUKRiCljmUqFWIm9WlvEf+uKNVVj0fokPPa3d7jGe//gy5IxzkB3d1XK63pvh19/G+6elbom9Xx2yM/xjrUbRkzYDdtbzXMbp+bHFifWXety44z7/Xh27/ukKn0bbUPr0pV+/JpmP+hk8BO9PxLfz219z5265U535v5HnNbNapRR1jzM5Zza3/H6W5l/r8oqJ+Y3vpbnu82/xpnzXH9rW+L46Pfp9O+n+b9nvMFaTDsrHVvxITb1N1PXex9UvM5WWh+er61/OBgPxgMGYAAGYAAGYAAGYAAGYAAGYAAGYAAGYCALAzUvXOulrF6CSkBOatC5d94fnkbe0VXwejXhWuJ4UvmlXpf4IbGq+Ykl3gNKXlClfCSOSKiXUNR/5mxZ9erc9M6ggPXkkkQhptR2JaX3wvTNv3ctz61wuQuFHpfyYJSYduahx91Ae0fJbdGL+tZlK0vqP/V10/2P+PafnnSP6zl4qORy49raunyNF3jkbVapMBqXf3htLI9f98efesOLUpgvmnb+E+7UxMl+Xpz+3d2DXoUxwozm8+nbp/rxL5pnwryU6Hv6jnsGx3rjporYMaFHYk+1RMGQk/C8e+9+d+rWya5x1jwnkTW8V8n54Bo9xclwoFg+MhrQ+Jyecp+TN2+x9LVy34RrtdXqJHG6+6OP89/l+Xpq4pRBwW6IPRk2dL652fWfbcmns+fLOeq3Q/wqEkg5z5fzjNZsRcTQWukjj8TMq1LztXkosTXzPFywyPev/h7IanBk5Wi9z1xOZN7X+nzP8jeSxseMAM889Fjq31OljmWYPut6Fv07IMyDc/55gQEYgAEYgAEYgAEYgAEYgAEYgAEYgAEYgIHxzUBdCNfDXtzmck7iYcO02akegFngHynhOk2okjiRdl8iun95v3NPWeKFicXyuC7mtSfhpe2FF13fF1+WVZb62DwRJVbJUzjsd4naZx9+siIhLRqC2F6en53/xDCh3MqW555EJol5dq2SY9+XJ93pu2Y4GVFUkk+WZ8f8+A0MuP6W1oqFWhMTSzEqyTKflV/a/MvztWBRxQYKlldaeZ4JGeFUslVBLueaFz/nTt78++yM5nIu1xcf5SLkdNj6W0TYbH9pnTcakRdrmE+tnMsTvW3Vy4VC55Bo2jT3YX+9ecFivwZLhJcYr9DgZ+Yt8AYNEjpNJDUDmaY58yta49Q3Evu0psWto3F95z3qixhvaT5kCWuu9V+e8kmCo34nFIa+edGzmaIQZJmH0TbZXNHvY/Re0vcs5Yz1+Z5l/mmMxaJ+881wKMu4J/Vr0nUbo8T1LJdznRs3D0VXKT9iTFL5XB/f/9Aw/ow/DMAADMAADMAADMAADMAADMAADMAADNQHAzUjXEvIannuhfwL//yL/7kPe7FFXkJ2LXqUmCBBJp9G3pe33DnofXnXjIrE6ywvvkudDHlhuq3dhweOerHl7w+FZVWI37OPLMx79+lFuzy2JdyVWrbSW2huvVyO9mX0uwkvpXi5nd+5Z9h+43q57oWqQHy7cKrBlx96f+pcIUYrCcEscVziTvNTS2P7x4R0ta3Ul/cSbnw41qAduqbQ4Aqpm2U8tF+7wkKXG+q93scvSx8qzWgL16UIaEltKir0aG/arvM+rL3mZrnzwsLYZ2Y+l/N7NWseRdenaFuShDPNi/aXXxtmoCDDC7VlGP+5nDu3edvw60WE8Gh9qvG9v/Pc4Po6JPwaa2prXP7aNzjOUMpHYZg4uaTw1nH561qelTnz/X7FSel0XWOmsWtb/Upq5BExrOgBOkbXfn1XVJCke2F6iwKikPfaxqIYp+X8rlr7S5l3WcrJKlyXUm7S2FgbEoXdMuZ70vwL6yCxWoZaHWtf9wYwrctX+/ldijFMrEFHgne6Zyow4DBWtF+6GLGIMcPWgFGY62E/cV4f/9gwjowjDMAADMAADMAADMAADMAADMAADMAADIxtBmpGuBZICnsdipi6luWlbJY0caDq5X4xUSbLi2/lLc9deZtJZIorK7ymF+D24rr3yDG/B/S5Le/mPSrD+5a3QvxKiFB4XS9c3zm9qLd0WKade8/gO6d7kaKYuCBRV16EMgqQWJo19Lrqr3C2OtoL67ijQhYr//CeCSBnH11YVJyxNkWPtpen+il6T981pqqfwm3H3U+7ZsKDwrTn6y0vyLtm+H3Y89ciL/TD69ZGPVPqi/vxMH5p/R/eMzExaZzDtHaeZT5XS8gyz8Zw7KPnFoY4SehReuNFYo++R+etDFsUFSGad/jdG/fcOMmvO+H1pHMzWFGZxcTrcP2VZ6434Mjl/PqkuoceyEnl+etDBkfF9sq2sbyYR2NNbVW5+p2SWC3hT+c+/LL2Tg+EN78P/bTZXowPr0fPs4yf758hr++GKTNSx1pis/Yy1thJJEwTr7VGpxlBWXh5CY7V2hNd7c8yD6P9ZGuv6hy9l/Q9Szljbb5H2xrOv+g9fdd6oagm2pJDRiO65n9HptyX2djK8vUGHS2t+b9V7LodbYzs7xu7znFs/6PA+DF+MAADMAADMAADMAADMAADMAADMAADMAADF5OBmhKu4xpe7KWsnsmSJi5v7ckqAVMv5ZMEFQkSEm4bps9NTBMKBRJpcv39qS/W9eI9/2J3KIRvGLY6vC+vRb+/aCBy6kV7sX2/49prQnSmsLVDHpcSPtQ3UbEsLn+7pjDcSWJIMSHBj+Wtk133nr2pfWhlxR01rqdu016z8d6R6r+GO6c7Cdxxz6ddq8aLeesDeaNmNQZQnepx/DRXZDySxpfGUd750XExMVHjGb2X9F17A2vOpz2je/n5GQiRlqcxUExAU5suNDYNCn4JIZstr7jyvCf/kucz7R0dDZdvddXRygiFq/B+qecaD3nV2pqZj3jxwKNeMFW0C3l2dqx7I7Ufo+XKkEQCftcHu0uaF9F8qvG978sTPrS6tfFsJFS4Nya46Q7vtarQ53HRFhQ5Iov3seorQVFRR9I8YL2IPHGK3zNbhgo+fQyfpbRfvy1Ja7Xy0Vwo57emWB1sDUybh9E8jONi8y58rl7ne9hG/5t52135fav1PYxuIg59SPvIthja81oGcdpWJY07K0v8FftdtjGKW88sHztqbew5eCjz2m3PceSfJBiAARiAARiAARiAARiAARiAARiAARiAARiobwbGt3B94DP/Ul4vepNAz/qCXS/gJYYW2zNa5YTCtL6bV5v2CI3e7z18zIvmPZ99/YK3LDHBQv/ePtX17P80sb3WDxJiJEBlErkj4onvi4RQ5sX6M/oS3upTylH7TEtw1wv76HMWJlz7/WZ5WR99vpQX89Fn7bv1QRp3ljZ/rOPx03yQeCYDkLxQOOSxbnsJx4WqL0e4zvKM+E0TXoyBrAKa0ivUf/uLa4dFZLC84sqz8L6nJk72+8LmWYjMt2LXNR80lyVUWVovGmkdSBDULV3sUXuUt3fk50/cnNW+zxLLJPjaPBto70gMzS+RXmOv52LLLLHN1cgjjABi3ETnrCJmdH+4b1id1R4Z8JjBhYwYJMinGWik1nnIwMkMbvSb0bpsZb5vU59N6bu0tVqGMvK8V/QLtSexjKF9i7VdQtb22Rqo8hPzjdTb5krWead8bdzSyhlL812GPjLwCNfJvOGItlNR1IKJk/18l/GI+NO+1lp7bB5af2usZFhh26wUM+RS2HuVFZYdPc8SQULPmLGf1vWu7TszM2B151jf/5gwvowvDMAADMAADMAADMAADMAADMAADMAADIxvBsaEcG0vVqMvSe27XqaW4xVmL8+jYkQ4KSxN2otvpdf9NM+1MM+ocO1Dyt49azD0bCBsSxxqeXbFMDFHZZXaXgnRCsF7fsceH3pYoUMlXoX1snMTncoJZV2sL4r1Z5wIZvXKepRgpLrLEzIquHgvs1vuzPe18ixFVDLxJE5ozFo/64M07qJ51fP4RedD2Hbrb4WUl5AW3ssiSoXpdZ7lmWoLWSpXHrXyeJa3d9f7O/IikrUvypOY1ByV4BznzRttV9J3KzeavwxsJIJqzZL4mvR8lutxc7Z7/wEv3PadOOnz9u2c+7CPHqFxlIe4+sG2VtAaWEuidbTdxk04Z/vPtrjW51c7eWe3PPdCoaC3YJFrnPFA/lrjzHnemEa/WVnF3bAOtkVA67JVnh2taxKKK2FD+dvvlvpehlP2m+qP5mU++8HC65FtEMJ9i7O2z9ZAlR+2M+3c5kqtC9dqg827kZjv4kfzx/qqbdXLsX8PyEirae58J8E5iTld17j7fadvusOn12+kjDZCodsMvrwnd8SgwOqhvGRolMWD2//NM3WmXxO9F3cul2+P5cdxfP9zwvgz/jAAAzAAAzAAAzAAAzAAAzAAAzAAAzAwfhkYE8J1MZE2TjjJArW9PA/FiOhzlqbYC3YTACRwRPOIfh8m1Gk/WIVCHnp5a/e1n3X3Rx8Py09lFeuTsEx5NEk4kfih69pXWcKuPLOibZdnt8QsH1q0TO/HtL4o1p/ljqW1V4KOvM706Xjj7YJw4PIo0/6wCssuT1ATafx+vjf/PlNYXxNPokKglZ/laH0Q7fukZ+t9/Ix39W20D6y/48QqExOLzc0wT3smLfS/7qXtOW1ehXF1CsuKnkvM1bzV3FIkBd239kV50v7JSptFBIqWE36X8YbCAfv9mAPByfpBoleYvpzzLHNW9ZA4JuOZ7n2f+DIVIl5ivoQzCX3llD0Sz6g9YSj0AhE38DiVJ6vfd3zBInfhdGM+1Lf1bTi/dS6m1OaS65zLeZH6tLY3GFrDlYfW8cb77q/IYzVcq0MPc+Uvj121USJjyXUOWIt71tbAUuauzZVS5p2NRb3Od/u9i/494EXkhc8MeloXi6owMOA6397q1xvNUYnPWi9Coy+J2brnt7eIG9tgaxH1tfa6jxt3uyYP8JYlzw8zRrL7HMfvPyWMPWMPAzAAAzAAAzAAAzAAAzAAAzAAAzAAAzCAcK1QldUKFZ4QHjs60fTiPU0Yk7iaen/63MzCtURPCW0K0xvWw/ZLDUUAhSZWufp0f/pZQfrw2WLnEiOi4rCJxMX2DC/Xe97q1N/a5sUxCXISRzrf3FzQDhkDKNSqGQnoOXmkybO1bfWrRV+km3gSFRqt/CxHE23SuLN8xsP4icGk/rT+Djm1vjFRqhTxS8YLp38/7aLscW31tKOEIL9ffRHh2ntrzprnhcOQU52HnpaWb9LRvHSbH3+qQIRS+rS+k+jVsX6jk0dxUt7hdXEcFc7C+xbBQcYk8twM78nzW+K1jGgkZqns8P5onKsOikaR6+ktqy7Wt+H81nnWiBzRNsurWsYHEv+j99S38pzv3Li5YE2Lpkv6HgrXYRrzsNXaaNe1dp7fs7e88PIRsdPWwFLmbtpaYHWMHut9vvvICVPu8+G+NWfFrqIYND+1tCCyQ7Rf7LsM1bo+2OXZ6e88585t2z5sreg9dtydvmOaN7iJ3ZNaorUMZG6b4jpef2sYH33HT+QjK6hcGVy0rXypJua69QNH/hmCARiAARiAARiAARiAARiAARiAARiAARiAgdphAOF6lIRrH/o4CPcZToo0IU/pOl7b6EPTWpjd8HvY9IEAACAASURBVNnwXF5UPrRnjMeViWgmrkgg9d6gU+4rzyswECaSxBDVrZhgUUwEC9sXd979yUH/gl0eYwpJrLDhad6cFrI0LhR1XP4mniQJrXHPRK9ZH1jfR+/b9/Eyfmm8W39XS7i2vg/3e7b+tqP4TRvftDpZHknHns8PD87JoegKlpeVJ+FJ+68P87TO5fw1ie5Z9qj3+Tz+tPcI1jPD9g8fCgMd54nqIxDIO3rKjKKek2pnOGc159S3XoTu7/cilbx25cEcDfVufWQRIOTRKe/rArE+WFcs/cU4SrT2Il3M2qnyJRh2a4/wmPqlCddan3x474R8o/lprOWhL+HQG9bEeKabsC2joKTtH6L52ne/rcKU+4Z5VZ/fsduXaZEBlF7jLA9zsRo1QLD8sh5tHo60cG3l1Ot81++ctlKRaHzmwcd8JBXtaa91Jdfb5zpe3ZCPLGLGY3bUmqpQ5n47gs3bkuedDGba2mMNOTSn5TndMOU+J7aj428RXJr+8PAw47loWr7Xzj8GjAVjAQMwAAMwAAMwAAMwAAMwAAMwAAMwAAMwMJoMIFyPgnDtQ6+mCBdpQl7VYRkSxPTyumnO/Mxelmn1GE3h2oe3vXuWk+e16tix7g0vpCXVV15qeukvD/SkNOH1qNAY3st6bmJKMeE6U351MH5pvFt/V1u4Tuv7SoVr5T0s1HRkX+C8ePT40/koB4qMIK9keSDb/fxx/hNeYJJwKCGzmHgtMVOCtfYfjvP0NXE1Tjg0Pr14HiPMRrlUe+URrD25G6bPGfTK1fYHpxtcw7Q5mbwrLYx6XF2j5V2M78adtljIj8HQGMoIQH2rqBIdG95M3hs6CCvuI0lMnOyjQUjkSzIoyrctl3Nd733ghUUfSr2723tVS2iUN628Y8O057a8673WLdSzD0meYd/guLknMVLGC2cfXVjgfevH+ba7vPFRvuwMfMSlNcbiDCei/W3fywnRb+XU63yX4YHWBB/x4ONPPateiN76nudDnPS3tCaL0jIm2/+pO/fu9mGe0nHjlr82MODDiWvLEc37aEQXpTPRWszKkCXNgCyfb5k88Tz/SMEADMAADMAADMAADMAADMAADMAADMAADMBA/TAwJoRreRTJm8xeYEeP5YaXzvJS29LECTzhREgTa8N0Wc7jxAR7Tp5+EhWie9ba/VKOPqToome9x1Y195tM64ti/VmJOGKCi4Qd64cLDU3uzEOPD768j7wU1z29eFf45nA/T3s27miCVloo9yif0e8WLj1NTIkrO3qtXsYvjXfr77EkXGcNNS3PSK1t5sUqMbP3yODe19GxLuW7D839+2neszdpLmYRrovxqXYqjcRqtUPh+c2rWqJ109z5g+tUBgHVR4BY+IxrnHF/xd68pfRVUto07vSMeDy7YNFgiOUzZwvqbH0b9p/vp4xbSUhsbF70rF+bfGjuoP+8d/Utd/p76uOw/rZnuHjSRyHEm59e5rwHboyntrXDvP0tL/22yDhCW0fYNR3VhmhIeD/Osx8s+feo2O9AWK6d25hYv9v1tKOVE45FNL3mSLQPwjRWbtwapHSjNd9tW4zGmQ/kxyW/PcBjiwvGTvVUVJUoM7queStemp942ntph21POlcIec/Y3bPc2SeW+PmgyAoyPPGfO6d7Q5skUTspX67Xzz8XjCVjCQMwAAMwAAMwAAMwAAMwAAMwAAMwAAMwUC4DY0K4jr4sjzY27oV6NE3cd3upLeE7Ki7adxMZi3mG6X4xb8Fcf7/fO9byTjqm7XGtl8N6YSxhoVzxWvtYyhNZgpO8obre35HqkaXQvXrmwqlCoSSuT3VNQsBo7HGtsLYag6jgovq0rX6lsI25nGtdtsqdvnO608v+pLZEr5uIkSZ0RJ+Jfjfu0sSU6DPh93obv4sqXO/d772D0/q+UiErHKukc7+PtfZ2vnWynyviSR6KEholhCU9V+y6hKmGabPzocbVlrh1ycRV3Y/mmcrnwIDfSqDl6WU+UoE8fLUmhWv0wLkuv9dtgVdwxGgkLFPzT8YjfV+eGBayOkx3Mc8VKlze6klipa4n3bO+DRnTedw4hG0SE9r7V+J9oges9hN+ca1Tv/v9hKP9OjDgzm3Z5svyvxO3T/Vrfay3ay7nxXd5+ZvhjtZ4GfPo90V7o4e/UfqdDI3IzPO8nN8j9Yf2Ne98c7PnT1FIim19of3dO9ZuGNzKIhDzwz6MniuShuZYOBbRNGN1viucu37DZfCSn3+5nI8AIGOFaDv1+yivdTMu8feHGGgIopREn4v7rjmrZ8SIvP217ogxfbTVgdYEM7qQsUX3vk9K8+iOcs33YeMZNy5c459BGIABGIABGIABGIABGIABGIABGIABGICBemCgroVrvQjvO34i8YVfqkAz9KLU0sQJPCEASQJRmEbnPnTn2ebUl7hpQl6Yn/YZLVXkUvnygpLY4EWIeQsKxIlQqMifD4UpVnhcH4K2yEtk1T9JpCnWn17gmTbb9Z3ILiZbn8gLTN7oBS/mtR9tQ5MXg+SJamm9oHHblNQw4pY2PI62cF2P45fGu/V3nEhoAmGxuRmOn/gqxr2MUNI86ssJWRzWQeftL63z4mPLcy+4xlnzBvcN7jw3KDppv9kicyzuvsL1iv9wf2wJwnFzMa3vbI7GiX3mGa31QyHNtR4oXV44C+otIVoiVn4diQmXHoqf6of+sy1ltT2uPyq95texKTNi6y/jojgmVab1bdh/Otf62XfydEH71J8SqcWUwj73ffFloYFN0J9eHOzp8d7d8sjWfumJbRwY8GJhz6EjiWli59aQkVJYdysjaZztfinHXF9f/rdL6/WZeQu82Bn9fencuNl1bnon9fcyrVzVuR7nu3739TuuvbuTxkXh93sOfp4ff2+MMW+BX3usz2Rk4sPhB8YLdq+Uo8ZQBhXai92HBe/p+brcvgtOv826J2OL6O9zKeWQln+8YAAGYAAGYAAGYAAGYAAGYAAGYAAGYAAGYKD+Gahb4VqitUKKyqsrzvtIcEu8lKdjVEwIwTcRp5g41vHaRi88VOOlbJqQZ3Xz4YAn3e330s0kXg8MuM63t3pPOu2BGSdmWd7RowkxbS+8mCiqhM9oT1YJc3F9UbQ/tfe3edPlcvm9qsP8484t7LcXOQKxx9JqL2t5MsojTAKQ35tTIcJL9G41seeie1zX8fiJ9yShOE0kznMZ4zVs4x49FngnxnCi9JrraeNrDCQJl9Eyo997Dh7y81B7yvvQ/7MfzJfnPRmnzXahkUX0+bjvEq0VHULhgMP7qmPcXE/rO5ujceKl8lad1Uc2v5OEM83j/vaOAtGxWN5h3ePOuz7Y5QVOv25L5E0Yw2pcV98ljXHaPevbsP8S+0ihpnt6Y9shzuSB3/3Rx35N9HsGy8N27YZ831fSTo2NjA+K/bZZGWltsDTlHC1kvoR9/UaZ97fPa2DAta1+1e/9Xo5RQ73Od/3toj3INQeTxkXzVJzKwM3GpWPt6wVRRvS3j+/3t7bk01jaLEf9fko8V+QSGakkRlnI5ZzK9n97TJ2ZyQAuS/mkqf9/UhhjxhgGYAAGYAAGYAAGYAAGYAAGYAAGYAAGxh8DNSFc68Vr88JnYj3bouFJ47z34tJIpPRexTdOShavQ5E0QQAxoSXry/24STTQ3e33kYyre9y1tFDhSt+8YLH3cPTtu+mOdPF6YMCHFFdYT/WTPPAkBMSJWXF11zUTYirpA8s7c38OhcRVyPEkwwPLUwKZwn4XFRsVEv7hJ72Hq0KZ6sV+Po+E8Y/eN9EyrazoM9Hv1gfiPnpv2PdxMH4SV5L60/o7TkAsh0t5tZ6ecl9qSGpxnlQfjU9anYaNX4QriUgSrP0ewp8cyOcVlicjC/GZNYS9BD3tMxv1VlVd1G9xcz2t70riM2Hv46R+KDXvMB+JbNq32dZ1eZOH96t9rr6L407lhPe0NUHB75c3mJri11tb37X2xnmlR+ss0bZr+y4vZutcYbx9WPD1b/q2eoOl390d652svErxUNb6p/4sur4OMZwkkObbkOH3NJ92KM/+llYfctrmQ/S+vnvv4qHIAV7Ej8ypuGfsWj3Od4nV4s3Wh6RxMX7022jGYBY6XR7Q6iO/n/md02PXDuvDuKMMAxXZQWupflO19mhNEVPnd+5xCg8u72pFBtAc0JrXcM9svxb57QUUmryltej89Wvbw096wVtGiMovFOLj6sa18fePDGPOmMMADMAADMAADMAADMAADMAADMAADMBAfTFQE8K1XkxfaGxK9Dz7amDASfyNg897zOqFeQkvs0tJa0JLpaJtQYjwXM5pv85S6lFqWr3cloih8Luty1b6cNmWh9oSJ2bZ/egxTeRS2mHCTUxIYBNwsu4ZrpDHesEtkSrNa17lew/WKfc5hUaN1j38rnpKCFfb07zsw2ei5yZahkJjNE2x78ZUmnA9nsZPImBSf6q/JVAO88Qsw6DC9i0O9/SNG6uREq5NgJPXoYQdlR3Hk8ZeoZMlCsWJ0WGdc/39Pq8kT0f1bdxcT5vTWfgM65AknIVp7LzUvO05Hc07NC9cP7Y4db6Hz5Zz7vsuS6jwXM7/fmksVY71bTi/5Qkv7oqJddqHWEKg/T4MmxvBHtdxwr0xJk9qH3Y85Xex+5ODno3UkOPB82njLCFTdZWg6n+Tg+eS+l7CqtKH8yEprRl8KG0YCj8pva7X43xXu85t3lZgbJA2LvI4l1GAuNKzNoc0VvouYV97uSd5/StN9OO92G+5M29AYvNRv9Naa+R9rX3FtY7K0EL7lxsT+bVt0j1F1zaf9qHH/b7v4kvRUvR3hInu0XrxffhY0Sf0CQzAAAzAAAzAAAzAAAzAAAzAAAzAAAzAwFhkoCaE62IdJ5FHoZ31oj2aVtfkzaN9QiVwR+9X+t2ElkqF67Ae/a1t3gPbrnW990HBi2hd1x6gekF74VRDQZvkzVRsz095VSksp3/Wwm4HL6CrLVx7w4K29kz9X+3+9ILG3Pl+X03zKrN+DY8+BPPds7xwrT1PJZjoxXiYJst5nNCY5bkwjfVBKGwV3B9H46d2ayxanl1Rknii50wgzDo3vYfplPuchJewv6Pnyi9JSFdaY8DEn+jzsd8tgsCtkwuEN8srWp6Fs5eXrp/vMfM4tpxgnuu+6lgvwrXmd9vKl7zQKbFMoluWPig3jRdiE8TxtHvGZdL8TqzPUOSIkCudR9mQECiP/FDAk+esPso7ZCcaOj4sWyGeFZlEa+i5bdtjI56YwZH3mp378OB+0Q89NixtPsJJsQggAZ/6XZfAqT2R09Zuq7PWcImiMmjK8kw9zneJ/doWI+yvNOHaPKxtzdNYn7n/EaeQ+ybs2z3r52JH25ZD2zu0PLfCi+Kh8K31My26gIxxWpevzovZSeUpnQzdtA+3pZHw7g07gmt2jyP/hMEADMAADMAADMAADMAADMAADMAADMAADMBAfTBQ88J1z/5PvceQhIqGaXNc3/ET+ZeYBqGJknqZ71/eV1HANpExqzhmdUo76mWyxDpLIyFCL/7P79iTv6Z753fsHhYSVp5Leta/vNX+sYEQkPVcbYkTs5KeNyGmGn1Q1f4cEgPVH+bRNawNQ3tDn7r9Li/iyTNVoXG9d9j0OUW9vqL5JQmN0XRp360PSha2hsa6bsavDHbDfi2Vy6xhcZufWjpMLAzLNQZCgTG8P+zc9ne97a4C0VrpLK+oOKl7Xqi7a4YX6uSB3XvseMnzXXWMm+vRvpOgZXNIxkCnbpvi984d1paYMUsTzqLPV8q+8lMeEs26P9xXcn9E65P2XX2XNMZp96xvS53fihghwa9t1cv5dqmcODYkToeGNyorLE+itA/JPG2291Qd1s5czmn/eBO/lZePetJ3IV929JlSxjn6bPS7D3k+6e5MAnT4rLyNZXiUxUt7vMz3tHGR+Ht60j2u/eXXho2rRGD93aFj2MdZzv0zAwPe6EGGNbZ26Fn9PplwLQM8hXfX3zhZ8g3TIFzXxz8Z4ZhyzpjCAAzAAAzAAAzAAAzAAAzAAAzAAAzAAAxkYaCmhWt5i+kFqERG7ZeY5lGtvRAVFlsCt8Kk6qVnlg4olsaElmqItirLh0dVuMuIt6DEsui+yxKT9GJZ7VGYTKuredRp32qd2/Wsx3oRPuWxd3bBosQ9L8WA+k4hl8/v2VvgpabvEr8k7mjPcM9LBq9WExr1rISf0CMx67mFSw+Fpqxjp3T1Mn6ltDkurcST07+f5vsj7n70muaYwitrDkbvhd+TxEJLYwwkiZqWzh8HBrw4d/r2qS7O+9XyihMn9by8RsWwD8d70x3+XNElQg/HgvIiwrLqmEW47v70s6/LuXGSnxfyykzL2+6lCWeWxo62npbLvjxNW55e5uddKJZZ/tU8qu+SxjjtXjnCtRdZf3e3F2W98dXQOKqcJDbCtqo/Q3Gyv73Dj6d+IxThI0yrc28sNWtePoR09H7c91LGOe55u6bfLP3Wta1+JfU33dKHR425jLY0H4r1y3iZ72njovWl/aV1biDGyE3GDc2Lnyv4XQz7uti5DB0U7UZjod9hhfPWM6Fwre8yFlM5DVPu80YZ3mM8sk7FlaWx1nPiJB8qfMGivLFF3DNc4x8fGIABGIABGIABGIABGIABGIABGIABGIABGBj7DNSmcC2x59X13quqccYDw8JlJ4Gnl7NNcx7yL1L9XphrXy/7payVYUKLXoLbtUqOCguuuoUig/KTF7BeAEfDdkrglrgaFZHMoy6LEBetr3+xPHGKf9mcSWxdsMiH2NZz0bxK/W79WWle8sRvfnpZ/mV5vh65nOs5dMQ1zX3Yh5c/t2VbojgiYwcvIg/tpS2BW/0tb0C98M/nGbxkLyY0xj0TvWZ9UK54Vw/jF+2TLN/ludcwfY4XqyXGyos+bs7E5WVRDdT3cffDaxILkwQ/pZMRieqRJGpaXn7f38efdo0zk9cw1UvcpYlwPp9Fz/p1QGtB09zBrRGKCfCqR74tLa0F7TZxtWAeDgx4kUhlaF3IKgz7CAa33eU9oa3tScc09rV+y7Nc+SU9L2MV7ckro56kNNW4bmGUk8ZY15PuWd9mnd8S9rReeSOaxc8V9LvKSGPD2iovbRnShCGkOzdu9nvDW5rwqGgezYueLWrEET6TJpCG6dLOvSHGzHl+K4uwrmnPRO8ZQ2lzdDzNd41L3N8I0X4Lv3sDukXPFhguyHir6Q8PFzf6y+X8PtvaO3swUszuAkMa//sUsx6YIZnqKmMcrefFGNA8lyiuZxQFonXFmoJIA2GbOB/7/5AwhowhDMAADMAADMAADMAADMAADMAADMAADMCAGKg54VrihTyqTk2c4j0Vs4onBrRedJoX0Ok7ppUVXtfy0tFekieJFGHaYucW+ldt6/740wLhxcopEJJM0L759/n9S60M86iTiJPV+9KeVRlxXph2P3o0IUYiefReqd+T2llKPvIO1V63YahcjXvHG5tcw/S5PpR6Vg9qvTiX97U8ACWCysNfxgNJwlitCNdjefxKGeu4tBpbCccar2iUgrj0utaxfqPfV7WYUKK0muth/4r/s08syW9ZoHL1SZsPMp6QYN359tZEwwmVZXOrqDg5xGnHaxuLij1hH0jAi4tUYeVG1xvNKT93UrZbUNvkCdmx7g2//7aMiyw0sMrW2ua3M3hyybCIBBZtQEJt1GgmPwcnTo4Vr7v37PX5yuAkbONInNs8t3Vfa7farL15/Toz+V5nxkxafyUEn9+5x3vId23f5Y0rFHK90rqJMQmE6muJ9nEfse0NOW6506+LceMd1sOLlgufyWRoED5XqXAt0bppaH/lMN+SzxXmfPFzw4T6MJ/xNN+9cH3jJB8qPtff79e66NyKfleUkYZ7Zvt1Tfeatb79fppf12RI49eAwGDL+lbbFWgOa23TOqD1tOezQwV8SmgO1wN71h8Do0QZ8MmQr+B+TJnc558VGIABGIABGIABGIABGIABGIABGIABGIABGBhfDNSOcD0kzJy+a4YXBMLQ2KVCaaG0S/VCiivHhFYTMOLSZL12btt2L6zGiU/9La1eyNHL/TA/tUUibZyALy+7cl78tq1+1XsWh8JvWGb0XCKuD7WdImZFn0n6bv0ZFcyS0kevyztRwpCJMxKL9KJcbSomuEXzKvg+MODb6L3AUl6eS9CSmCRBMovHa0EZQ/leONXgBSgLrRqXJu3aWB6/tHaVck9C4pn7H0kUWMK8NLckMiYZI4Rpde7D0656ucAwwqeJiC5hSOcwj673d3iP0izjawJyUeE6hcmw7Kznmiva+9bE16zPWTqtR349m3yvF7sK6q+9b1taSzaosbxr4RgVrlUnrZctS54f9P685c4CYyL1h6JgKCS8N6i4c3pZewdH2y5R0AR9M5iIPcqLVfsVf/Flwe9HND991xrc/uLakgwg9JwXrm+d7Lr37i9aRrRc/a61PPeC30c7eq+c7wp/nmTAMN7meyhcqy9lSKE+sN/Icvo3+oy2ZZCHvn77JF5H7yv8t4xV9DeX5z9pb/WhdUwGGBKuy/07IFo+38fXPy6MN+MNAzAAAzAAAzAAAzAAAzAAAzAAAzAAA/XNQE0I1xKptW+pXqZLmKwGdLZnq164VpJfz+eHXeuylQV7TFeS33h/Vv2pkLZ9J05WNC7jvR9Hq/1jcfzObd7mvQKr0WcSLxWiPrpnerl5yyP67KMLXff+AyULieWWqed6Dh5yZ+c/4bROVpKPjDDkvRk1uKkkz1p4duB8t2t/Zf2wvYFl/CCBrnvfJ7H9pm0GGmfNGwyDXGVjg6r0y8CA98gtxzBMgnU1f6Or0p6YPh5v813bYShKTaV/6ySNh/aylkFXnPFcwTO5nDeIE/9ZDChkPBO3/3pBnjHjy/36/qeE8WV8YQAGYAAGYAAGYAAGYAAGYAAGYAAGYAAGakK4BkRAhAEYgAEYgAEYgAEYgAEYgAEYgAEYgAEYgAEYgAEYgAEYgAEYgAEYgIHxywDCNR49sZ6DLArjd1Fg7Bl7GIABGIABGIABGIABGIABGIABGIABGIABGIABGIABGIABGICBi80AwjXCNcI1DMAADMAADMAADMAADMAADMAADMAADMAADMAADMAADMAADMAADMAADIwqAwjXADiqAF5sSw3KwzoIBmAABmAABmAABmAABmAABmAABmAABmAABmAABmAABmAABmAABmqPAYRrhGuEaxiAARiAARiAARiAARiAARiAARiAARiAARiAARiAARiAARiAARiAARgYVQYQrgFwVAHEmqX2rFkYE8YEBmAABmAABmAABmAABmAABmAABmAABmAABmAABmAABmAABmDgYjOAcI1wjXANAzAAAzAAAzAAAzAAAzAAAzAAAzAAAzAAAzAAAzAAAzAAAzAAAzAAA6PKAMI1AI4qgBfbUoPysA6CARiAARiAARiAARiAARiAARiAARiAARiAARiAARiAARiAARiAgdpjAOEa4RrhGgZgAAZgAAZgAAZgAAZgAAZgAAZgAAZgAAZgAAZgAAZgAAZgAAZgAAZGlQGEawAcVQCxZqk9axbGhDGBARiAARiAARiAARiAARiAARiAARiAARiAARiAARiAARiAARi42AwgXCNcI1zDAAzAAAzAAAzAAAzAAAzAAAzAAAzAAAzAAAzAAAzAAAzAAAzAAAzAwKgyMGaE6/7+ftfW1uZaWlpdX1/fqHbaxbYuoDwsWmAABmAABmAABmAABmAABmAABmAABmAABmAABmAABmAABmAABmAABuqZgZoWrru7e9ySZ5a67/+Pf3Hf+OZ38p8dO3YhXGPxAQMwAAMwAAMwAAMwAAMwAAMwAAMwAAMwAAMwAAMwAAMwAAMwAAMwAAN1wkDNCtfysH7k0cfzYjXCNRYk9WxBQtvgGwZgAAZgAAZgAAZgAAZgAAZgAAZgAAZgAAZgAAZgAAZgAAZgYDwzULPCdWNjk/vhpVd64XrC9b90R48ecwMDA1hM1InFxHiedLSdHx0YgAEYgAEYgAEYgAEYgAEYgAEYgAEYgAEYgAEYgAEYgAEYgAEYKGSgZoXrQ4cOu7+/5PteuN60eSuCNYI1DMAADMAADMAADMAADMAADMAADMAADMAADMAADMAADMAADMAADMAADNQpAzUrXGsfawsPzp7WhdYGWF/QHzAAAzAAAzAAAzAAAzAAAzAAAzAAAzAAAzAAAzAAAzAAAzAAAzAAA/XEAMJ1nVok1BOktIVFFwZgAAZgAAZgAAZgAAZgAAZgAAZgAAZgAAZgAAZgAAZgAAZgAAbqmwGEa4RrwinAAAzAAAzAAAzAAAzAAAzAAAzAAAzAAAzAAAzAAAzAAAzAAAzAAAzAwKgygHANgKMKIJYx9W0Zw/gyvjAAAzAAAzAAAzAAAzAAAzAAAzAAAzAAAzAAAzAAAzAAAzAAA1kYqHnh+r/81792H+3dh7iKwA4DMAADMAADMAADMAADMAADMAADMAADMAADMAADMAADMAADMAADMAADdcpAzQrXmzZvdd/45nfcJd/7gTt85CgA1imAWawrSIMVDgzAAAzAAAzAAAzAAAzAAAzAAAzAAAzAAAzAAAzAAAzAAAzAAAzUNwM1KVz39/e72XPu98L1Dy+90jU2NiFcI1zDAAzAAAzAAAzAAAzAAAzAAAzAAAzAAAzAAAzAAAzAAAzAAAzAAAzAQJ0yUBPCdV9fn2tpafWf419+6eY/vMD96Z/9hReuH5r/qJOQjQVFfVtQML6MLwzAAAzAAAzAAAzAAAzAAAzAAAzAAAzAAAzAAAzAAAzAAAzAAAyMXwZqQrjesWOXF6kVGtw+f3/J992SZ5a67u4eROs6tZpg4Rm/Cw9jz9jDAAzAAAzAAAzAAAzAAAzAAAzAAAzAAAzAAAzAAAzAAAzAAAyEDNSscP2tb3/XTb93TxQRvwAAIABJREFUpmttbUO4RriGARiAARiAARiAARiAARiAARiAARiAARiAARiAARiAARiAARiAARiAgTpmoCaE61BJ7+rqcmvXrnd//pd/672vp959r+vt7QXCOoYwHH/OsayBARiAARiAARiAARiAARiAARiAARiAARiAARiAARiAARiAARiAgfHHQM0J14Iwl8u5xx5f6IXrf/qfP3QnTpxEuEa4hgEYgAEYgAEYgAEYgAEYgAEYgAEYgAEYgAEYgAEYgAEYgAEYgAEYgIE6ZaAmhWuJ1++9v90L15d87wfu8JGjAFinAGItM/6sZRhzxhwGYAAGYAAGYAAGYAAGYAAGYAAGYAAGYAAGYAAGYAAGYAAGYCDKQM0K1zt27PLC9X/5r3/tPtq7D+Ea4RoGYAAGYAAGYAAGYAAGYAAGYAAGYAAGYAAGYAAGYAAGYAAGYAAGYAAG6pSBmheuv/HN7ziJ2FHFne9YYcAADMAADMAADMAADMAADMAADMAADMAADMAADMAADMAADMAADMAADMBAfTCAcF2nFglM0PqYoIwj4wgDMAADMAADMAADMAADMAADMAADMAADMAADMAADMAADMAADMDAeGEC4RrjGmx0GYAAGYAAGYAAGYAAGYAAGYAAGYAAGYAAGYAAGYAAGYAAGYAAGYAAGRpUBhGsAHFUAx4N1CG3ECgoGYAAGYAAGYAAGYAAGYAAGYAAGYAAGYAAGYAAGYAAGYAAGYAAG0hmoWeH68JGj7pLv/cBpj+t1r21AXEVghwEYgAEYgAEYgAEYgAEYgAEYgAEYgAEYgAEYgAEYgAEYgAEYgAEYgIE6ZaBmhevm5hb346uu8cL1FVf+1G19Z5s729zsWlpaXV9fH0DWKZBYmqRbmtA/9A8MwAAMwAAMwAAMwAAMwAAMwAAMwAAMwAAMwAAMwAAMwAAMwEA9MlCzwnUul3NrXnzZfevb3/XitTyv7bNjxy6Ea4RrGIABGIABGIABGIABGIABGIABGIABGIABGIABGIABGIABGIABGIABGKgTBmpWuJaVwMDAgNu5a7e75dbfue/94z8hXNcJdPVoAUKbsGyCARiAARiAARiAARiAARiAARiAARiAARiAARiAARiAARiAARiAgfIZqGnhmoEtf2DpO/oOBmAABmAABmAABmAABmAABmAABmAABmAABmAABmAABmAABmAABmBgrDCAcI0XM+ETYAAGYAAGYAAGYAAGYAAGYAAGYAAGYAAGYAAGYAAGYAAGYAAGYAAGYGBUGUC4BsBRBXCsWHhQT6yRYAAGYAAGYAAGYAAGYAAGYAAGYAAGYAAGYAAGYAAGYAAGYAAGYGDkGEC4RrhGuIYBGIABGIABGIABGIABGIABGIABGIABGIABGIABGIABGIABGIABGICBUWUA4RoARxVArFJGziqFvqVvYQAGYAAGYAAGYAAGYAAGYAAGYAAGYAAGYAAGYAAGYAAGYAAGxgoDCNcI1wjXMAADMAADMAADMAADMAADMAADMAADMAADMAADMAADMAADMAADMAADMDCqDCBcA+CoAjhWLDyoJ9ZIMAADMAADMAADMAADMAADMAADMAADMAADMAADMAADMAADMAADMDByDCBcI1wjXMMADMAADMAADMAADMAADMAADMAADMAADMAADMAADMAADMAADMAADMDAqDKAcA2AowogVikjZ5VC39K3MAADMAADMAADMAADMAADMAADMAADMAADMAADMAADMAADMAADY4UBhGuEa4RrGIABGIABGIABGIABGIABGIABGIABGIABGIABGIABGIABGIABGIABGBhVBhCuAXBUARwrFh7UE2skGIABGIABGIABGIABGIABGIABGIABGIABGIABGIABGIABGIABGBg5BhCuEa4RrmEABmAABmAABmAABmAABmAABmAABmAABmAABmAABmAABmAABmAABmBgVBlAuAbAUQUQq5SRs0qhb+lbGIABGIABGIABGIABGIABGIABGIABGIABGIABGIABGIABGICBscIAwjXCNcI1DMAADMAADMAADMAADMAADMAADMAADMAADMAADMAADMAADMAADMAADIwqAwjXNQxgZ0+nu2Xdze7SpT90i3ctzoMy/e1p/pqOY8VColbqqX5Uf6pf1b+q18ZDG/21Cat/7ho6G8ZNn6qtarP6Q32gvkhirlbGr97rwZhg9VbvjNM+GIcBGIABGIABGIABGIABGIABGIABGIABGIABGIABGEhiAOEa4XrcCLWaBAjXXy+GiKRf90XSAnmxrzMmtTcmF5sByoMBGIABGIABGIABGIABGIABGIABGIABGIABGIABGICB8coAwjXCNcI1Htd4XNfIOoBwzR8j4/WPEdoN+zAAAzAAAzAAAzAAAzAAAzAAAzAAAzAAAzAAAzAAAwjXNSJYxU3GpLDNhAovf+Licf113yGSft0XcfNvNK4xJrU3JqPBAWXCAQzAAAzAAAzAAAzAAAzAAAzAAAzAAAzAAAzAAAzAwHhkAOEa4RqPazyu8biukXUA4Zo/RMbjHyK0Ge5hAAZgAAZgAAZgAAZgAAZgAAZgAAZgAAZgAAZgAAbEAMJ1jQhWcROyEo/rqADWn+t36w6sdb948Xr3o2WX+o/OdU334srXtb7+XvfBiQ/c9E3T3YTVP/fPXbr0h/74by/d4Jbsftq1d7fHPm/ezTM23+feO/6eu+HFXzg9q6O+K++H35vvrlx+pc/vlnU3u5MdJ2PzUl1yX+XcgTMH3L2bprurVvyrz0ttmbBmgluw/dHEeoRtszqpLPWv7m0cJeE6l8u5TZu2uL+/5PvuH7//z27X7j2JbQ/bUK3zKCPKN4m5sMzPzhx0P1t1re9/jYXGMbxv583nm91vX/lNfswbOxvz6aqRx7YvtrkfL7/S579o50LPh5UdHo+0HM7Xd9KG3+XHXWkqzUNzZ/57830dxOSuk7vybQzroPOXPnnRcy5ml320NLa+5Y5JtCy+8wMPAzAAAzAAAzAAAzAAAzAAAzAAAzAAAzAAAzAAAzAAAzAw1hhAuB4HwvWqj1e5WZtn5kVnicf2kYj21K7FsSKaYLaw5JY+7njNyqvdzhM7hwl2JhLrvgnN9vz1a65zs7fMHlanO16f5M73nR+Wl8TRee/OG5be8tNR5ew5lS7+Wp1qQbhuajrjLrviKveNb37Hf3SuaxdrEalEJF3/2Wvu8ucv8+MhQTZaZxkZPPL+I6mCbqV5qAyxK4YlYG//8v1h9RA3d705xdfjujUT3BetXxSkqUYebd1tbuJrt/oyJNRLsI/2Ryiep4n9lYxJtEy+8wcJDMAADMAADMAADMAADMAADMAADMAADMAADMAADMAADMDAWGIA4XocCNfycJawd/87f3CHmg95r+YX9q3Ii8k/W32tO9Z6bJjYJpAlXMsjeuqbU71nsjyiJa4dbzvuln20zP3khasSRUETiSUsSsTUsyv2rfCCp4Rmu668dF/fr175U3fwzMGCuvT193nh3Z65bf1EL1JaPZTntauu8fWQIK78kiah1akWhOvDR466S773g7xwrXNdS6p7ta9XIpJKEJ65eYbvcxkMHGj6tKDeW49uyQvbSYYR1cgjFI0VAaDpXFNBPZbvXe65ksguoTyuD6uRx+6Tu91PX/iJ7w/NMwniVpYMMWSQIX6L8VnJmFh5HPkjBAZgAAZgAAZgAAZgAAZgAAZgAAZgAAZgAAZgAAZgAAZgYCwygHBdw8J1JUCFApgE4Tjx0EIXS1B76ZOX8kJbWO6Hpz6M9YC2NAqNbN7UEoXtuo4mEksYtxDgredb3G9e+bUX8XTUd6XVfaVTXRS6O8wniwgqT1p51Or5BdsXFDwf5lVL56PtcV1pX4ShwGVMYKHXNZYWFj68HldeNfIIvZkVWUCGDipr7+m9eTE5vB5Xj2rkYfNJIvnGQ2/kGVQ4fc3B6PW4enCNPyRgAAZgAAZgAAZgAAZgAAZgAAZgAAZgAAZgAAZgAAZgAAbGKwMI1+NAuA4F4hD0UCyeu3VuXmgL0xQ7777Q7bRvsATje966p8DT1ITr0LtZouKUjZN9eh1NZAz3VpYHtZWr+3e/NdWnD/Ox++FR+2WrHhJNz3adzecRpqml89He47oafWGexhJmJdBqvCQSaxziPLHjyqxGHhZ23MRh8STRXPWI88SOq0eleYQe5GJQ8ysUz6Oe2HF14Bp/jMAADMAADMAADMAADMAADMAADMAADMAADMAADMAADMAADIxXBhCux4FwrXDfcYCHYnFSmuhzekbe3OHHhOiosBwnXCs/2zc7LDOsS+i5HYrrT+54MrYdVkd5akuoVPjyfQ37UtPaMxwrW/zDPaIVKvvBd+d5z+LLl13m1h54NdMYVCOPUDQe3D99lvdyVjQARQXIMs7VyENh6lW+OJz65l3u5nU3+XMdFZI8Sz1IUxmT9B/9BwMwAAMwAAMwAAMwAAMwAAMwAAMwAAMwAAMwAAMwAANjkwGE63EgXIdCcDhRQ7E4FJHDNDo/cOaAm/T6JL/XtQS5pM9ICNd7Tu52/7rix4llxtVFYqVCnEfbwfeRWaTCPZxtPLT/tYTgrH1ejTy0v7W8q60OSSHy0+pUjTwstL3VQ4K+vMrTyuXeyLBJv9KvMAADMAADMAADMAADMAADMAADMAADMAADMAADMAADMDB2GEC4Rrj2Ql+ccC1P2GUfLfUetCbCpR1HQrg2L+q0cqP3EK4v/gL02ZmD7uqVP/Usaa9xeR6X+kNQjTzeOfaOu+L5y309blp7o+vo6Si5HpXmoXkzb9sDeQG9WKSAUvuJ9Befb/qcPocBGIABGIABGIABGIABGIABGIABGIABGIABGIABGICBkWcA4RrhOlG43nlip/vx8iv9/WtXXeNWf7zKNZ9vHiYEWujvkRau1+xfUxCiPAxXHp43nmssyduXhaayhUZC7aKdC/NCrfaZ1n7RpfRrNfKQh/e9m6bn61GOp3M18vii9Qsn8d4MKia+dithwut0nS2FcdJWts7Qf/QfDMAADMAADMAADMAADMAADMAADMAADMAADMAADNQ/AwjXdSqoSMidsPrnXjwrN1T43K1z/fM/W3WtO9JyOFaI7OvvcyO5x3UYKvylT16KrQML1eguVGFobPO6TmMmbryqkcfyvcv9vtbaX1te9xKOf/vKb2KNLeLqoGuV5hGGPJfRx5XLr/D1eOT9R5zE+aRyuT66DNP/9D8MwAAMwAAMwAAMwAAMwAAMwAAMwAAMwAAMwAAMwAAMjD4DCNcI115Yi4YK7+rtcvIUlfgnYVoCddyEbT3f4n7zyq99upHwuD7ZcdL9bPW1Pv85W2fXlfiXy+Xcpk1b3N9f8n33j9//Z7dr957YPo7r91q5ppDg16+5zo+PePm44eOC723dbUXbVI08tIe0PKzFq/bX/uDEBwXfs+y3XWkeEqaf2rV4UDx//jK37uC6gu+leqHXyhhTj9H/oWYMGAMYgAEYgAEYgAEYgAEYgAEYgAEYgAEYgAEYgAEYgIHxwADCNcK1F/uiwnVnT6eTEF1MuN50ZJOTh6vSjYRwLcH87rem+vxL9eKt9Qnc1HTGXXbFVe4b3/yO/+hc12q93la/MKy2ROO9p/f6upv39I+WXeqF2zRP42rkIXH85nU3eUZuePEXTsYOqmPeezpD6PJq5LHr5K68p/eszTO9sUfogS2Bv5y9v62/Sz12d/e4h+Y/6v70z/7C/ejyq9y+j/ePGbZKbSvp+YMNBmAABmAABmAABmAABmAABmAABmAABmAABmAABmAABsY+AwjXCNde8IsK15rcMzbflyoYh56yEq61r6/2l7aFQSHK4wRt2xM7LDMUyqOhzU0INRE9yYtXAun+xv1uxd7l+TpYXWrxePjIUXfJ936QF651rmu1WNe4OpkwLIFa55ZG46DQ2Bov7Xet8bN70WOleais+9/5Q2xZEsXvenOKv3fNyqvdgaZPY+tRjTyazjW5f3vpBl+WjvpubVWYfRldqD/ueH2Sk5ht90byKA/+b337u3m+fnHDb1xHR+dFKXsk20XeY/8PD8aQMYQBGIABGIABGIABGIABGIABGIABGIABGIABGIABGIhjAOEa4doLaqGIbKCEgrFE6fWfrXfaO1uC9bKPlrmfvHCVf9Y8rq9ddY071nosL4xVS7iWAKnwzxL+9NHe3Sv2rfD1UH0+bfrULdy50Avnuh/XFmtTLR3Hssd1GFb73k3TncYo7FsZF1io+SRP42rkofDbEsc17ot2LhwWSj40rlB94oweKs0j5FN7a8vzOuwLnVsZWbzQo8+W+z0qXI81w4hy281z/LEDAzAAAzAAAzAAAzAAAzAAAzAAAzAAAzAAAzAAAzAAA2OTAYRrhGsv+sWJvQrT/cSOx/2evSYaR4/a39q8Zq9cfoXb/uX2vGhXLeFai4vEwYfefTC1LlY3eYqPhQVprO5xnUWUVv+nCdPVyCOLKK16mGgcJ25XIw/LP02UziJuV5vZrq4uN2fuPB8qXOHoEa7H5o90tbkgPziAARiAARiAARiAARiAARiAARiAARiAARiAARiAARioVQYQrhGuE4VrQaswyu8ff9/dtPbGvGerBEB5uc7dOte1d7d7L+ufrR4Mhbzso6V50biawrVNoM/OfuZmbp7pVJ6EQquLvHolbB88c9D15/rzdbDnOFZnEVbfzt06J9/vEm3T+nbJ7qf9OIWibjXyUGj5SRt+5+uh/bUlkifVQwYY2nPaWLE6VyOPfQ37nMKQK+8kj26rl/be1h7cSpvkhW5pq3ns6elxk+6YgnBdp2t9NVkhr+qsk/Qj/QgDMAADMAADMAADMAADMAADMAADMAADMAADMAAD5TGAcI2YkSj4ManKm1T0G/1WSwxYSPoJ1//StXd0MN9Z82EABmAABmAABmAABmAABmAABmAABmAABmAABmAABmAABmqSAYRrwKxJMGtJ+KMuCNFjlQGFo39u6fNOocKfeHKx0/ex2hbqzTyEARiAARiAARiAARiAARiAARiAARiAARiAARiAARiAgfpmAOEa4RohCwZgoA4ZGBgYcK+ufc39+V/+rbv62uucPK/5Qa/vH3TGl/GFARiAARiAARiAARiAARiAARiAARiAARiAARiAARgYywwgXNehYDWWgaTuLKgwUDkDbW1t7taJk7yn9c9+foM7ceIkojVrPQzAAAzAAAzAAAzAAAzAAAzAAAzAAAzAAAzAAAzAAAzAQE0zgHANoDUNKCJm5SImfTj++rC3t9dNv2+We+qpZ9z58+eZ46zzMAADMAADMAADMAADMAADMAADMAADMAADMAADMAADMAADNc8AwjWQ1jykCK/jT3hlzBlzGIABGIABGIABGIABGIABGIABGIABGIABGIABGIABGIABGBhfDCBcI1wjXMMADMAADMAADMAADMAADMAADMAADMAADMAADMAADMAADMAADMAADMDAqDKAcA2AowogljLjy1KG8Wa8YQAGYAAGYAAGYAAGYAAGYAAGYAAGYAAGYAAGYAAGYAAGYAAG4hhAuEa4RriGARiAARiAARiAARiAARiAARiAARiAARiAARiAARiAARiAARiAARiAgVFlAOEaAEcVwDhrCq5hZQMDMAADMAADMAADMAADMAADMAADMAADMAADMAADMAADMAADMAAD44sBhGuEa4RrGIABGIABGIABGIABGIABGIABGIABGIABGIABGIABGIABGIABGIABGBhVBhCuAXBUAcRSZnxZyjDejDcMwAAMwAAMwAAMwAAMwAAMwAAMwAAMwAAMwAAMwAAMwAAMwEAcAwjXCNcI1zAAAzAAAzAAAzAAAzAAAzAAAzAAAzAAAzAAAzAAAzAAAzAAAzAAAzAwqgwgXAPgqAIYZ03BNaxsYAAGYAAGYAAGYAAGYAAGYAAGYAAGYAAGYAAGYAAGYAAGYAAGYGB8MYBwPc6E677+PoTqcTbmLOrja1FnvBlvGIABGIABGIABGIABGIABGIABGIABGIABGIABGIABGICBscgAwnUNi5idPZ3ulnU3u0uX/tAt3rU4LzhPf3uav6ZjVug+O/uZm/b2Pe6+TfdmfiZr3mMpnfpR/al+Vf+q7hsPbfTXJqz+uWvobKj5/unuPOM+2fKoWzvv79wzE/+TW/jrP/IfnW984lLXcHib+yqXq/l2jCVuqCs/8DAAAzAAAzAAAzAAAzAAAzAAAzAAAzAAAzAAAzAAAzAAAzAwsgwgXI8D4ToUwEsRu+tx8o114Xrfm/e7Rb/9k7xYbaJ1eFz0mz92bz91levr7kC8ruH5XY/zizaN7A82/Uv/wgAMwAAMwAAMwAAMwAAMwAAMwAAMwAAMwAAMwAAM1DMDCNc1LGyFgnMlHtdhPgjXY9vjeve6e7xoLfH6tfn/4I5+uNqdaznuP59vX+JW3PV/5UXtLc9OcAOEhke8r+E1rp5/XGkbfzzCAAzAAAzAAAzAAAzAAAzAAAzAAAzAAAzAAAzAAAzAQGkMIFzXsKgTCs4I16WBnbQQjHWP6w833OckSHe1nYwVZHvPt7pX/vBXXrx++pb/6E4f2hqbLql/uF4dzuhH+hEGYAAGYAAGYAAGYAAGYAAGYAAGYAAGYAAGYAAGYAAGYAAGSmMA4RrhelwJm2NduO6/0FN0/+qD7y3Oe13vWjt1XI0vPwCl/QDQX/QXDMAADMAADMAADMAADMAADMAADMAADMAADMAADMAADMBArTCAcF2HwnXoqX3p0h+6LJ/Qo1twHms95n62+lr/7Jyts13uq1yiANp9odtN2vA7n/bXL//KNZ9vzqfdeGijv37Di79wZ7vOukNnP/dpL3/+Mn/9mlVXu4fefdC1d7fnn0maHKrDgTMH3L2bprurVvyrf/5Hyy51E9ZMcAu2P5opj2oK1ydOnHTX3/Br96d/9hfu6SXPuf7+/qJtSGpbNa83Hd3unpn4v3nx+q3FP66JOlWzfeTFDygMwAAMwAAMwAAMwAAMwAAMwAAMwAAMwAAMwAAMwAAMwAAM1B8DCNcI114AjgrXff197u63puZF58ZzjYkC6MEzB93VK3/q0y7YvqAgnQnXE1b/3L3++Qb30xd+4tNFxfTr11znjrcdL3g2XHD6+nvdvHfnOQnV0Wft+zUrr3Z7Tu1JzEP5VUu4lkg9e8797hvf/I7/fOvb33Vb39mWWnbYnpE8R7iuv4V6JHkhb3iBARiAARiAARiAARiAARiAARiAARiAARiAARiAARiAARioBQYQrutQuJZnsryeGzob/OdIy2H376/+1gu+UzZOzl+3+zrKSzsK5KYjm9zlyy7zYvHGQ28Mu2/pl3201OctL+gPT31YkM6EawnO8rL+yQtXuZX7XnAnO066Q82H3KzNM/Ni9G3rJ8bWQyK60kmgVj5Kt/3L9307JHav2LfCXbvqGn+/mABeLeG6u7vbTbz9jrxwLQF79ZqXCtpu/XOxj2Go8P2bHqqJOl3sPqA8fmBhAAZgAAZgAAZgAAZgAAZgAAZgAAZgAAZgAAZgAAZgAAZgYGwxgHBdw8J1tSZTGDp8+tvTMguZCu2tEN8SjOV9LQE5Wqfzfefd7Rtu92l01PcwjQnXykPC9q6TuwruS2RftHNhXpR+5dNXCu4rr61Ht3jRW6L1U7sWx4Yt/6L1C3fdmgk+n6jXd1ifap3Xqsd1b3e7e/X+v/Fhwp+7/T+75hOFhgTVaj/5jK2FnvFivGAABmAABmAABmAABmAABmAABmAABmAABmAABmAABmAABmqdAYRrhOthQnEIrURgic7a71r7Xof3dC4Pa9tvWp7P0fuhcJ20V/apjlN+n2qVI4/wUCAPQ5bfsu7mWI9sK/Ph9+b7utp+2nZ9pI61uMf1x28/6Bb95o+9cL1t+a/cV7nkvclHql/Ilx8+GIABGIABGIABGIABGIABGIABGIABGIABGIABGIABGIABGICBUhlAuEa4HiY2hxDtPLHT/Xj5lV4QfumT4aGwiwnboXC9/rP1sWVJnJZgLeE6KjorpLhEc917cseTsc9bfa0shSPf17AvNa09U0/HxiPvOnlZL/z1H7lX/vBXrvd867jrg3oaT9rCDzoMwAAMwAAMwAAMwAAMwAAMwAAMwAAMwAAMwAAMwAAMwMB4YgDhGuE6VdwMQ4FP2vA7132hO5++rbstv3d2UihxE5Pj9r8OJ5pEaYnTV6/8qTt45mC+jD0nd7t/XfFjf0/3s3yKlRWWWy/nHWePuBem/t/5EOESseulbbSDH2UYgAEYgAEYgAEYgAEYgAEYgAEYgAEYgAEYgAEYgAEYgAEYqH8GEK4RrosKnAoBLsH4py/8xH3a9Gk+/fYvt7srl1/hLl92mdt0ZFP+erhwZBWuF+9a7MuIis72fBbB2tJE8wjrU4/n8qxeO+/v8qL16c+3xI5FPbadNtX/jxRjzBjDAAzAAAzAAAzAAAzAAAzAAAzAAAzAAAzAAAzAAAzAwPhgAOEa4bqoyKm9rS1ctwRmWxzmbp3rxeZoeG+7r6MJz8XE5CzC9Zr9a1xDZ0PRT+O5RtfX35uvZ1ifejuXaP3GY//iReunbvwP7vDO58dFu+ttHGnP+PjBZZwZZxiAARiAARiAARiAARiAARiAARiAARiAARiAARiAARhIZgDhGuG6qNCpPagVClwezf/+6m+dQoRLHJZgrWva5zppkplwrXDfCvudlC5LqPC4PbaT8hsP1wcu9LrNz1zrRetFv/0T9+GG+9xXuVxiH4+HPqGNyYs9fUPfwAAMwAAMwAAMwAAMwAAMwAAMwAAMwAAMwAAMwAAMwAAM1DIDCNcI15mEToUCV0jwHy+/0u08sdOHBg+/J0FuwrUE7vWfrY8tS8L4lI2TY723T3aczHt7z9k62+W+qh1h9sSJk+6UTQASAAAgAElEQVT6G37t/vTP/sI9veQ519/fH9u+pL6p5HpuoN/tXnePW/SbP/afPa9NQ7QeB3O5EmZ4lj9GYAAGYAAGYAAGYAAGYAAGYAAGYAAGYAAGYAAGYAAGYAAGapkBhOtxIHZ19Xa5ia/d6oXhSRt+57ovdJcssJ7tOpv3sJ7/3nx376bpPr/bN9zuzvedT8wvFK6ThOdTHafchDUTfH4SsCVk26QJvb1/tupad6TlcP6epRmNo0Tq2XPud9/45nf851vf/q7b+s62i1O3XM5JqK6WaN3d3eMemv+oF+B/dPlVbt/H+y9OO8bB3BsNNimTPzpgAAZgAAZgAAZgAAZgAAZgAAZgAAZgAAZgAAZgAAZgAAbGIgMI1+NEPJv+9jQvDEsgllBcDqwKCS7PaXldX7n8Cn++7KOlqXmFwrX2ud51cldBenlQL9q50Of1o2WXulc+faXgvuq59egWd/nzl/k0ErYVqjyu/sprf+N+t2Lv8tj7cc+Ue627u9tNvP2OvHAtAXv1mpdGvFzVV/tYaz9rCdfyupb3dbnt0HO7du9xEt5NhP/FDb9xHR2dFeVZSX14lh9TGIABGIABGIABGIABGIABGIABGIABGIABGIABGIABGIABGBh/DCBcjxPhesW+FV74lfAsr+t9DftcQ2dD/tPZU1yo/PDUh07is/LQ59pV17hjrcdSBU4TriVKX7bsR+4nL1zlVu57wSkE+KHmQ27W5plO95Tfbesnurh69PX3upmbZ+TLnbD6507tOd523Nf/06ZP3cKdC911Q17bEulHejEbLY/ro3tWedF64a//yL2+4J9d59mjrqvtZOKnu7OpaAjxqHB9yfd+4A4fOTrifTjSY0T+4+8HjTFnzGEABmAABmAABmAABmAABmAABmAABmAABmAABmAABmBg7DKAcD1OhGt5KVu4cBOew+PiXYuLCpUKCa7Q4Pbc3W9NLQjrHbcQmHAtwfvBd+e5K5dfmX/e8tHx+jXXeSE6Lg9dk3j90LsP5kXu8Nno+YzN9xVtS1I5pVwfjT2uNz19tZNonfXz6v1/43q721P7o6ury82ZO8+HCpfXNcL12F3QS+GXtIwzDMAADMAADMAADMAADMAADMAADMAADMAADMAADMAADMBALTGAcD1OhGtB197d7hZsf9TvJ21ezib6ZhGulYd5bieF9Y7CHQrX8tg+cOaA9/i20N/XrLraC9KqW/TZuO+fnf3Mzdw80/1s9bV5EVt5SfiWsH3wzEHXn6ssdHZcubVy7a3FP84sWkvcziJcW9t6enrcpDumIFyPozXBxp4jf5jAAAzAAAzAAAzAAAzAAAzAAAzAAAzAAAzAAAzAAAzAAAyMNgMI14hUmQRjA3Xu1rneYzrrXtlR4dry4Vh7i19T0xl32RVXuQnX/9K1d3SUxAXjWXvjyZgwJjAAAzAAAzAAAzAAAzAAAzAAAzAAAzAAAzAAAzAAAzAAA2OJAYRrhOvMAmXjuUZ3w4u/8ML1nK2zXe6rXNFnEa7HxoKY+//bu/Mnqep7b+B/jmWlEnOfPEmqkkpVbp4f8tStW08EgisqGk1wwUgUXOI1xj1mUeO9N7luCQgIA6JsgqCYCAmLSpQlQlDBAMqiCAM4kqW+T32OOZ0zPadnemZ6PD3TL6qmuvv0Wb7ne17dTdX7+/meU6fSr2c+nmKq8P/+xUMpXo+mLzJtHR3OXCfXiQEGGGCAAQYYYIABBhhggAEGGGCAAQYYYIABBhoZEFwLrpsOKGe9PDMLrc+aPTGt372+qe0E1+3/5fPRRx+lp55ekj7/xa+k8y+4OEXldaMvDMvb/3q6Rq4RAwwwwAADDDDAAAMMMMAAAwwwwAADDDDAAAMMjEYDgmvBdcOQ8mTPiRRV1nuP7E1dr3alc+acnQXXM5ZPT8dOHmu4XfGDILhu7y/Gw4cPp2umTc8qrS+86NK0e/eepq5r8Rp73t7X2PVxfRhggAEGGGCAAQYYYIABBhhggAEGGGCAAQYYYGA0GBBcC64bBpUvvf1SLaw+c+Y3stD6vLnnpo17Njbcph694Lq9vwhPnDiRbr3tzvTww4+lY8eaG4xQf429bu9r7Pq4PgwwwAADDDDAAAMMMMAAAwwwwAADDDDAAAMMMDAaDAiuBdcNQ+hicD3h8fFp+rLr0uvv/rHh+mXgBde+CMtcWMYFAwwwwAADDDDAAAMMMMAAAwwwwAADDDDAAAMMMMBA0YDgWnA9qCC6iMdzXyYMMMAAAwwwwAADDDDAAAMMMMAAAwwwwAADDDDAAAMMMNAKA4JrwbXgmgEGGGCAAQYYYIABBhhggAEGGGCAAQYYYIABBhhggAEGGKjUgOAawEoBtmL0hX0YxcMAAwwwwAADDDDAAAMMMMAAAwwwwAADDDDAAAMMMMDA6DYguBZcC64ZYIABBhhggAEGGGCAAQYYYIABBhhggAEGGGCAAQYYYICBSg0IrgGsFKCRL6N75Ivr5/oxwAADDDDAAAMMMMAAAwwwwAADDDDAAAMMMMAAAwy0woDgWnAtuGaAAQYYYIABBhhggAEGGGCAAQYYYIABBhhggAEGGGCAAQYqNSC4BrBSgK0YfWEfRvEwwAADDDDAAAMMMMAAAwwwwAADDDDAAAMMMMAAAwwwMLoNCK4F14JrBhhggAEGGGCAAQYYYIABBhhggAEGGGCAAQYYYIABBhhgoFIDgmsAKwVo5MvoHvni+rl+DDDAAAMMMMAAAwwwwAADDDDAAAMMMMAAAwwwwAADrTAguBZcC64ZYIABBhhggAEGGGCAAQYYYIABBhhggAEGGGCAAQYYYICBSg0IrgGsFGArRl+0yz6OHD+Svrv46nTmzG9kj/G6irbtPbI3TZ5/UdaOW1f9oJI2VHHejmk0FwMMMMAAAwwwwAADDDDAAAMMMMAAAwwwwAADDDAweg0Irts4uC4GoQ9teKgWQEYYGeGoULK9PnjF6xUBdn1wXXw/rt9Af8VrPpgv2WaD6+J6K15fkfkqtnGoxx9MW9tp3Tjf+kEH0S+xLAYCRH+1U3vbvS1lfffS2y+lc+acnf3F83Y/B+1rr+9Y18P1YIABBhhggAEGGGCAAQYYYIABBhhggAEGxrYBwbXgWnjUIgPF0FdwPfq+OAXXrb1mguvW9qf/jOlPBhhggAEGGGCAAQYYYIABBhhggAEGGGCAgbFuQHDdotByJKAUg9Bi9auK6/b8Yiper7Lg+tRfTqUDxw5klbtRvRt/D6x9oFZ53fVqV6/3Yn9DcVWspO6vKr+4norrvyTBdWs/V4Lr1vbnUL4LbOMaMMAAAwwwwAADDDDAAAMMMMAAAwwwwAADDIwmA4JrwfWQwtHRhPyTautAwXVZO/KwNKajzsPjsvUGs6wYSAuum/9Byq9FcdBBWfg6mGvRyeuW9Z2pwpv32Ml2nDsnDDDAAAMMMMAAAwwwwAADDDDAAAMMMMBAZxoQXAuuBdctMiC4Ht1fooLr1l4/wXVr+9N/0vQnAwwwwAADDDDAAAMMMMAAAwwwwAADDDDAwFg3ILhuUWg5ElCKQWiEavkxBjNVeB7GTVtyTTp64mg6dvJYiimpv7XgkjRu1pnZNNXnzDk7/XD1renNw2/WjpEfK3+MKa4f3vBQmtw1udd2N6+8OW19Z2vD7fLt4zGO/eSWJ9OVT12RJs6emB072hD7fHDdz7NptIvr1z/P2/7thZelCY+Pz7aPx6lPX5We3bEy9Zzq6bcdeSVyHHPVzlXZutvf3Z6de7E9ly28NC3a8mQ62XOyz/7iGIu3Pp1indhP/EVfxrLD3YdTVOtG9XSxarf+PIqv8+sz2Irr6IuZL8+sXY9oR/Tr2jfXprfffztNnn9R1o7RVHF96NDhdP0NN6cz/uWL6c67fpSOHj3ap/+Lfdfq5/m1KF67svC1eNzwcN+L92V9HZ+jDXs2NGzzwtcW1MzMenlmiqnjY19xLW9acWO2j4u7Jqc3Dr1Ruo9YP59aPtyv/ofhVu1j+zvb0oXzLsjaEd8HJ3tOlLYjvguuWHR5tt6lC76V9h3ZV7peWd+puPafquLnx3MeGGCAAQYYYIABBhhggAEGGGCAAQYYYIABBooGBNcdElxHGLfn/T3p2mXXZoFTBKX1fxE0FXHkzyMUjlCufv38dYSmj258pBbE5dsVH7e9sy1FyJVvU/YYod2+D8pDsGj75Yum9Lt9hH8RHhePW3yeB9dx7DjXpduX1gL0+vYUw8t8HxHk3fncHbXgvrhN9MEDa+9PVy+emrWxbPt8P8XHPCzN21R8r9HzOMdG1zECzV+/9KtRGVzPenxuOu30M2p/8bpRH4zE8vxaFK9dWfhaf+y4HjEwJK5hBLoR7Navs/Pgjn5D4Rg0cknXxdk+vr/yptLQeN1ba9NZ/xjw8T/rf9nn89aKfSzdviQbFBKeI2ivP49ieD5QUF/Wd4Jr/wGpN+U1EwwwwAADDDDAAAMMMMAAAwwwwAADDDDAAAO5AcF1hwTXERrfvvq2LHS9fvmMtH7P+hRBboRds16elc6de07pPZZXvP5Mrbo5qnjn/2FeFoDHtqt3rk7XLPluFrZFYBqhVw6r+Bih9QXzJmXrRSD2g1W31I4fgfTibYvTlCe/k4Wtsd/itvE8KlJnLJ9e2z7av3nv5qz9Eebl1Z8RHEawXFYpHfspBtf3vnBvFiTGecf5Rz/E+9Evsf9ieJm3J8L5aH8eUMaxY5u8DfHe+FnjsvfLts/3U3zMw9Jmg+s4tzjHWD+OV+yLCOIj/I825O0cTRXX9/74Z7XQOgLseF3sq5F+nl+L4rUrC1/L2rFxz8Z03txzs+ty7ws/6hUqF/1GOB3WyvZRDI1nvzK71zr7P9ifVfnHdY+QvNEAjeHuIwZn3PHc7dl5THri/LR1/5Ze7Vjzp+drwXbMwJBXjZedT1nfCa7956PMimVcMMAAAwwwwAADDDDAAAMMMMAAAwwwwAADDIQBwXUbB9et+JDmYVwEmRNnfzM9sXluadh08NjBLJAuHrOZsCyCrphWOAK1mKq6PlArhnYRbj+99anS48eUy/Heu0ff7RWURXsiIJ8w6+OpwSNUq5/CuFjxGhWp63ev77OP2E8xuI79RXvLpjmOMG7HgR2p+8Pu2n52HdqVLpz/8TTKUVVdf57FNkRfFMPPYp/WP8+vT2wTQV/9+/Wv49zyqtuy6ZyLVbexz/6C6/p9V/266orr4Z5/PhV4OI8BH/n+8gEP9cvz9/PHYjVzhOCv/PmVbB/FwQrF5fl2xcdW7KM4Ffj3lk5LccuCOEYMMslnTSguLx7fc/+xYIABBhhggAEGGGCAAQYYYIABBhhggAEGGGCAgaEaEFx3SHAdIWajKYgb4Vm0ZVFWuRtTAkelZKP11r21LgvFIwxes2tNr/WKQevda+4qDa0b7TeWRxCXB+MR2m2pqwDNt83bEOf54LoHe7UhX6cYXEf4G5XS+XsDPS58bWGtyjn6pWz9YsA+UsH1/f+4n3J/AX3cPzn6YbQF11Xf47rsmg5mWbFaOQLeCHojfG5UiV227+IAiDwczmc9iMEn9ZXYI7WPvII8jhnBezE8L6vELmuHZf5jwgADDDDAAAMMMMAAAwwwwAADDDDAAAMMMMAAA4MxILjukOA6AqhiFehASCIwvuXZW7Lwc+rTV6X3j79fGtbGfoqB8GObHu21XryOADWqvSNcHui49e9HBXZe5Tl92XW9qqCL6zazXrGdzQbL+THuWXNPdh4x5XlUX+fLi48RVOZV2c3ufzAV11EBHn0Q/Rn3+z507GBpOzbt2ZjOnnNWtt5oqrgu9uVofV6seL955fdr9zwvq9JvdI7F0Piu5++s3fu6rMJ+pPYRn/+YCjy+NyJ4/+lvf5JNER6DU2JmhEbHtdx/QBhggAEGGGCAAQYYYIABBhhggAEGGGCAAQYYYGCoBgTXHRJcn//EeSnuNd0slAiqI7DOK3ebfYwgtniMCE5j27g/dgTHxfeaeV4Mg/sLYYuhbgTdZVOOF4PrCKKbOX6sE9WmN624ccDAOKZUjsA6znckgusIqiOwjv1He6JdZedQPM/++qxsW8uG/2OS3wc6/8xE8Bth9GD6NiqrIzTO99HfvbEb7Xe4+yhO85+3o2yq/kbHt3z4lvShPmSAAQYYYIABBhhggAEGGGCAAQYYYIABBhjoJAOC6w4JrgcbHBfDzzy0auaxUXA9UNV2ow9dTFEeU5XHsev3Xb/NQCF58ZwG2ldx380G0s2uV9x3tCPv14HucV1sf3+BdLPrFdvheet++KJa+Se/+XHtuv7i978YVGgd1+L4h8fTjOXTs32MnzUuLd62uJJ9bH9nW4pBL2H04q7JKSrKWWmdFX2pLxlggAEGGGCAAQYYYIABBhhggAEGGGCAAQYY+KcBwbXgujSIKoafUd0br5v5i/A2/4ANZrrxfJv6R8H1Pz+sxWsiuP5nv9Sbqfr1G4feyELefEDCtCXXpLh39WDatWHPhtqAjdjPUCqdh7uP+Pz+z/pf1gL4CY+PT0u3LxnUeQzmnK3bvqZdG9eGAQYYYIABBhhggAEGGGCAAQYYYIABBhhg4JMwILgWXJcGUcWpwvublnogpANVQQ+0/VCmCm90/+di8DuYimtThfsyHshp/n5xeu2zZk/M7u0ewfMDax9IEQTn6/X3uP+D/emyhZdmgXHMNhCBcUwbvvC1BU1tH/tuxT6KU57nVdcXzrsg7Ty4o+l29Hee3vO5YoABBhhggAEGGGCAAQYYYIABBhhggAEGGGCAgaIBwbXgujSEKlZLxz2j932wr3S9Iqay549tejQL4CbO/mZa99a6Qe8j7lUdx4/wb/qy61Lcy7rsOM2sN9TgOo4X98SONlwwb1LadWhXaRuKIftI3OO6eB/vRuF8tHXTno3p7DlnZe3trzK7rB+rXHbo0OF0/Q03pzP+5Yvpzrt+lI4ePVraz1W2sb9jx2fm4Q0PZSFzhM0xvXfxdTPVyid7TmTV1WEt7o39u92/6/W6mXtlt2IfMSV43Fc72hEV43/Y+4derwdbQd5fv3nPf0oYYIABBhhggAEGGGCAAQYYYIABBhhggAEGGGAgDAiuBdcNw8FFWxZlIdxgqz2LXy7rd69PUXkaAdjda+5quuo030eEgT9cfWu2fQR5W/ZvKW1vhOIRjsdx7n/xvtJ1hhNcF/sinuftKz6u3rk6TZg1PmvDSATXcawH1z2Y7T/6NPq2ePz8+ayXZ2brRF+MpuB61uNz02mnn1H7i9f5OY2Gx+LU3Hc+d0eKSv1iBXYEwQPdI/rprU9lhuIz9+jGR7LzL1ZPNzPt+HD3EcF38TP3yp9fydqRV2BH2yKQb7aCvBXXbvMfXk3jJpyTPvPZL6Sf3ffz1N19fFTZaEUf2If/tDHAAAMMMMAAAwwwwAADDDDAAAMMMMAAAwyMdQOCa8F1wwCoGJhdNP/CtHnvxwFW2YfiwLED6VebHkvxWHy/GNxFFWqEamWBVyzb9Pam0nsBFwPhsnv9RvVnBHoR1PYX6A4nuI4q6wvnX5Ad4+rFU/u0s9iGaMdIBdfFgQARLkbIWOzvYqXsaAuu7/3xz2qhdQTY8bp4bu38vPhZiWm+43Xe3phaO6bYjusxY/n0LMzO3ys+bt2/JU164vzS9da9tbY2AOTeF35U+hmKfbViH7NfmV0bsBLP8zbGZzSmPI/ziM9yBNn5eyP5ePz48TR9xk01G5/69OfSipWrPpFjj+R52bf/YDLAAAMMMMAAAwwwwAADDDDAAAMMMMAAAwww0NuA4Fpw3W8AFNMbR0gVYdXE2ROzKbOj6jlC4AhJ476705ZMy4KuyfMvypbXf8i2vbMtm2I79hHVmjc8c31av2d9tm5Mr73i9RXpe0unpcldk0u3L4bfsf31y2ekzXs3Z+tGoHfFosuz9sX+80rX+jbE6+EE17F9VMDG8eM4ccw4duwzb0O8N37WuOz9suA6gr8I9mOb/C8PAmOfXa921ZbH+0eOH+lzbaKKN84x78tiXyzdvjRd3DU5a2PeDhXXvb/wylwMd1lxau64J3VUXtfvM/8chZGyauXiwIe4hm8ceqPXPsLOQNOOt2IfMRV5zGwQvsoGRhSP0UwFeX0/DOV1fXA92gY1DOWcbTPyn1t9rI8ZYIABBhhggAEGGGCAAQYYYIABBhhggIH2MyC4Flz3CsjKPqSrdq5K5849JwuzItBq9BeBW6N7YUe1drzfaNtY3ij4jjZFwB33de5v+5tW3NinErp4PhEGxzFiHw9teGjA8y5uG88joIzQOA+v69sS1eA3r7w5239ZcB1BdCyv367R60ZtjPDw2mXXlu4n2vbA2vtTVIXHfkdTcD1a73E9UCid2wkfcU3qw+1mQunYRzE0rg+3W7GP4v77C6UHCrfrPzeteL1h46b07/9vQq3qejRV47fi/O2j/f7z5Jq4JgwwwAADDDDAAAMMMMAAAwwwwAADDDDAQOsNCK4F100FuO91v5dVHH974WW1CuwISWNq4whrYzrv7g+7+91XVE4/ueXJdOVTV2TV2xHixT6i0jrC1t3v7R5w+6hKLrYhqsGnPn1VenbHytRzqqff7YcbXMcXUBxj8danU0wHHW2Pv28tuCRbFu/F/bXjvEYyuI52RF/OfHlm1nd5O6Jf1765NgvYI8QfbcH1aPyCj8r/fHrvge4/HYMvLl3wrey6FIPh1TtX1T5TZVPhF/sl7jedV0QXjzfcfYTde9bcnbUtPlMRxhePW/88n30g7JVVkNev36rXEWDHVOGC69b/Z6BV18h+XBsGGGCAAQYYYIABBhhggAEGGGCAAQYYYICBoRoQXI/x4HqoMGznS4UBBtrNwKzH52ZV18ufWdFvsN5u7dYenyUGGGCAAQYYYIABBhhggAEGGGCAAQYYYIABBgY2ILgWXAuAGGCAgbY38Oe9e9OZ485K//bv49Kbb73V9u31H5CB/wOij/QRAwwwwAADDDDAAAMMMMAAAwwwwAADDDDAQNGA4FpgJQBigAEG2trA/v3vpCmXT82mCe9a8GQ6depUW7e3+CPruf90McAAAwwwwAADDDDAAAMMMMAAAwwwwAADDDDQnAHBtcBKAMQAAwy0rYEVK1elL3/l/6TPfPYLac7ceamnp/972fvxb+7HXz/pJwYYYIABBhhggAEGGGCAAQYYYIABBhhggIF2MyC4Fli1bWDVbh8W7fEFzsAnb2DTppfTFVddk157bYtKa79Xfq8YYIABBhhggAEGGGCAAQYYYIABBhhggAEGxrABwfUYvrhCtk8+ZNPn+pwBBhhggAEGGGCAAQYYYIABBhhggAEGGGCAAQYYYICBwRsQXAuujUxhgAEGGGCAAQYYYIABBhhggAEGGGCAAQYYYIABBhhggAEGKjUguAawUoBGmwx+tIk+02cMMMAAAwwwwAADDDDAAAMMMMAAAwwwwAADDDDAAANjzYDgWnAtuGaAAQYYYIABBhhggAEGGGCAAQYYYIABBhhggAEGGGCAAQYqNSC4BrBSgGNtJIjzMbqJAQYYYIABBhhggAEGGGCAAQYYYIABBhhggAEGGGCAgcEbEFwLrgXXDDDAAAMMMMAAAwwwwAADDDDAAAMMMMAAAwwwwAADDDDAQKUGBNcAVgrQaJPBjzbRZ/qMAQYYYIABBhhggAEGGGCAAQYYYIABBhhggAEGGGBgrBkQXAuuBdcMMMAAAwwwwAADDDDAAAMMMMAAAwwwwAADDDDAAAMMMMBApQYE1wBWCnCsjQRxPkY3McAAAwwwwAADDDDAAAMMMMAAAwwwwAADDDDAAAMMMDB4A4JrwbXgmgEGGGCAAQYYYIABBhhggAEGGGCAAQYYYIABBhhggAEGGKjUgOAawEoBGm0y+NEmI9lnp/5yKv3ktz9Ja/70fIrnI3ks+26va+96uB4MMMAAAwwwwAADDDDAAAMMMMAAAwwwwAADDDBQpQHBteBaOMlAzcCuQ7vShfMvSONmnZke2/Robflwv6RO9pxMh44dHHB/Pad60s/XPpBmvjwzHTt5bMD1h9su2/sBZoABBhhggAEGGGCAAQYYYIABBhhggAEGGGCAAQbaw4Dguo1DyyPHj6TvLr46nTnzG+mhDQ/VQrxbV/0gWxaPPkiD+yBFP0Z/Rr9G/0b/rXh9RbZs8vyL0t4je0dFn0Y7o71xLtH+OI9GXgZjZNbLM7N9fn/lTelkz4mGffH8n55PL775YsP3648Z1dsPrvt5uuGZ69Oe93b3u93h7sNp2pJrsgB9OJXfI9VH9efm9eA+g/pLfzHAAAMMMMAAAwwwwAADDDDAAAMMMMAAAwwwwECZAcG14LrfELEMzWheJrhu/EV44NiBdMWiy9P4WePSjOXT0x3P3V7694NVt6Rz5pydJs6emBZvW9z0lOL5/mO7pduX9utu6/4tadIT56cJj4/Ppi0fijnBdeNrPZT+tI3+ZIABBhhggAEGGGCAAQYYYIABBhhggAEGGGCAgZE0ILgWXPcbII4kvir2Lbhu/IW68LUFWWg9fdl1Dafpjsrphzc8lE0lfsuzt6T3ut8blJ8IrCfMGp9VVB89cTTF1OBl99KOZXevuSur/p6zec6gjpG7Elw3vtZ5H3nURwwwwAADDDDAAAMMMMAAAwwwwAADDDDAAAMMMNAuBgTXgushhYLtAniw7RBcl3/57nl/T7p0wbeySusFry3IKqnL+nbDng1ZtXVM5R1Tepet09+y2ObKp65IEY53f9idVV7HfbXLtlm/e31WAR5tq38/gu0T/UxlHusLrsuvdX1feq2fGGCAAQYYYIABBhhggAEGGGCAAQYYYIABBhhgoB0MCK4F131CwXaAOVJtEFz3/eKNEPjeF36ULum6OL15+M0skI77p8fz4nWI17HOeXPPTRv3bOz1XnG9gZ7P+8MTac2uNdk9ud5rsCsAAB2USURBVB/b9Gg62XOydF+NwulYHvfivmDepH7bIbjue60Hujbe12cMMMAAAwwwwAADDDDAAAMMMMAAAwwwwAADDDBQlQHB9RgMrl96+6WsKvbirslp895X0vdX3pRN7Xz2nLPSoxsfSSd7TqRVO1elC+dfkE3FHI/xuj+EcX/imCJ6ctfkbF9nzvxGdoybV96ctr6ztXTbPCS+/bnb0otvvphV9MZ2Udkbr6Md9794X3av5HGzzkzfXXx1Kquuzdt17OSx1PVqV/r2wsuyex/HvuIeyFOfvio9u2NlNu10vm6jx7xNcawjx49k7V7x+oqsHybPvyir0m20bf3y3bv3pEsunZI+89kvpEce/XXq6ekp7Yf67VrxupWh7NLtS/qEwDGld0wFHtco2huV0lFlHf0d67fiHKKiOqYnX/7HZaX30m50j+1rl11bM5iH7WXtaWUfle3fMj/cDDDAAAMMMMAAAwwwwAADDDDAAAMMMMAAAwwwwEDrDAiux3BwfdbsienCeR+H0xHyZkHvrPHpvhd/llXN5svicdIT56et+7eUBpIRCp8z5+xs++I2+fMInSMQj0rY4oczD4lj3/XbR+B41/N31QLIfF8zlk8vvb9yBNqXL5rSsA2x/U0rbhxw+uq8TcMNriOkvuvue9Npp5+R/X3q059La174Ta/zL/ZFq5+3KpSNyum4FlEBXWxjDBK4fvmMdOdzd2T3sY7BBxFaR6Vz/XUublf/fMv+LWn7u9t77Ttf55GNj6R4P8LxPe/tzqYOz9+LxxhQEG5iIEZxebPPW9VHzR7Peq37YdKX+pIBBhhggAEGGGCAAQYYYIABBhhggAEGGGCAgc4zILgew8F1hLlXL56atr2zLcW9iaMCOw+I8+Urd6yshdhzNs/pExCueP2ZWnVzVCTP/8O8rCo6QsHVO1ena5Z89+NAvKQSNw+JI9h+YO0D2XZxjAhAox358piCOt6P1+c/cV7W3uKXUYSoEWjn20Sgunnv5qw6et1ba7P7IOfnFUFro6mnY595m4YbXHd3d6dp186oBdcRYM/vWtin/4rn0crnrQhloxo/qpfDR1nbYiDDpHnnZ9XYQwmtY58fV2pPS99bOq1XZf67R9/NQvG86r3s+ILrzvtBKnNgGQcMMMAAAwwwwAADDDDAAAMMMMAAAwwwwAADDHSGAcF1GwfXQ/0Q5lOFR5gbUz7n+4lpuWPZxNnfTOveWpctj+rZmBI6lsd9jfN143H/B/vTZQsvzd6LaaIjhCy+H8+jWvaHq2/N1rnyqSt6rZOHxDEVeT4F+KFjB2uV01FBHa9jP/F+PnV5BJbF40RAPmHWx2F3TB+dT1+dr5NPYx3nEFXmMQV1/t5IPVZdcT3c8zrRcyIt2bY4q6ZutK+Dxw5m07BHv96++rZ0/MPjQ+rXNw69kQ2amDh7YlZFHceLa/rgugf73d9wg+tG52V5Z/y4uc6uMwMMMMAAAwwwwAADDDDAAAMMMMAAAwwwwAADo8uA4HoMB9f10ywvfG1hFjBfMG9S2nVoVy00zAPm6cuu6zVd86Iti7Iq6Pr91H/IIwSPMDzC5eKU0/l+i9XNUQ0dU3pHGBqPeXV0VN7GerG8WPkdwXoejJ8399xsaun648frvA2x/UCBaNn2Q1lW5T2uh9LewWzz6r5Xs3uRRxV8DCiIx6ueujJFCD2Y/eTrxr2sYx9hIq7pXc/fWRs8ka9T/yi4Hl0/JvXXz2vXjwEGGGCAAQYYYIABBhhggAEGGGCAAQYYYIABBgZjQHDdQcF1BIER7MaU3zHVdA6lLGAuVmJPffqq9P7x92vr59vlj8Vpqx/b9GhtvbL9xjZR2R3tKFZ4F4Pr2C7fd0wpfemCb2Xr1wfr+Trx2Ox6xW087/tlGdOyP7zhoRTV0efOPSfFVPI9H/WkX7/0q2yK95gy/J4196QDxw7UrlEz/RhV8VEtH4F4DJqIKcrjmvW3baPgOmz2nOrpd9v+9uu9vtddn+gTBhhggAEGGGCAAQYYYIABBhhggAEGGGCAAQYYqNqA4FpwXXrf5wiqI7COgHkwf8XQuRXBdXEK8WLQXf/B6f6wO0WwHW2NoHugULR++05/HWHw2jfXpilPfierjL7hmevTviP7eoXDW9/ZWrufeFRPT1syLS3etnjQIXZU1EcVfRyzv34vC65jmwjW49hlU9f3tz/v+cFlgAEGGGCAAQYYYIABBhhggAEGGGCAAQYYYIABBtrXgOBacF0aXBerqKsMrov36y6G4mVfKnkld31Fedm6ln38pRRB8IY9G1Lcn3z8rHHZY1RFNwqVo9J50ZYns2rsoouYTj7ug/7T3/4ku491VG6X9XEsv27ZtSmmoc/fj3uS3/HcHVlFdlRl53/fWzotm34+QvR8WVRqR2gex47nwuv2/XHJr69H14gBBhhggAEGGGCAAQYYYIABBhhggAEGGGCAAQaaMSC4FlwPGFzHvagjyG7mL6b8zuG1ouJacD0yX2Qne06k5X9cllVYR6X6jc/ckCJ8/sGqW2ohcR4Wlz3euvrWNGne+dn04ZctvLQWJt/y7C39VmBHSH1J18W97rEebdnz3u5e91cPQ2UV17ktjyPjQr/qVwYYYIABBhhggAEGGGCAAQYYYIABBhhggAEGGKjKgOBacF0aXBenCo/g+mTPyVog3SzWVgTXQ5kq/PJFU9KhYwcH3d5mz2s0r/fO0XfSz3770yycXr1zdS0sjmtVVqmeV97XV7vn9yT/7uKrUzw/cuJINtV4PDbqnzB0+3O3ZVO6x9TujdbLlwuu/TDmFjyywAADDDDAAAMMMMAAAwwwwAADDDDAAAMMMMDA2DcguBZclwbXMVV0VM/m94ze90Hv+x038+XQiuA67lUd96yOdkRlcKPAs9n1mml3s+vs3r0nXXLplPSZz34hPfLor1NPT8+AYWyz+/6k1xtucN2ovTHwIP4iAI97W094fHya9fLMpvpJcD32f4AaubHctWeAAQYYYIABBhhggAEGGGCAAQYYYIABBhhgoPMMCK4F16XBdXwZxH2I437C8bfwtQVNhY3FL5FWBNcRoP9w9a1ZcH3e3HPTlv1bStux7q11aeLsb2br3f/ifaXrFNs23OcRUt91973ptNPPyP4+9enPpTUv/GbEjzvcdjfafqSC67gHdTi6uGtydm1iOvKY/r1RO4rLBded94NUvP6eu/4MMMAAAwwwwAADDDDAAAMMMMAAAwwwwAADDHSWAcG14LphcL3/g/0p7l8c1c4Xzb8wbd77SsPA8cCxA+lXmx7rdX/jVgTX8YUUU1pPmDU+a0fcbznuiVz8oopwdNqSa7L3z5o9McV9lIvvj8Tz7u7uNO3aGbXgOgLs+V0LR/y4I3Eusc+4VtF3UWVfvKd1vI7lUxZN6bU8BhNMeuL8lE8VPlC7omI/KucjwG62el9w3Vk/RgMZ8j4PDDDAAAMMMMAAAwwwwAADDDDAAAMMMMAAAwyMbQOCa8F1w+A6PvxLty/JpneO8Hri7InpnjX3ZFXPMfXzm4ffzCqxpy2ZllVl198juVXB9bGTx9KM5dOzYDqqv69fPiNt3rs5m3563Vtr0xWLLs/eizbe+dwdQ7of92C/6FRcH8lC62aD6/p7YjfT34Lrsf3j04wB6zDAAAMMMMAAAwwwwAADDDDAAAMMMMAAAwwwwEDnGBBcC677Da7jy2DVzlXp3Lnn1MLhCIjL/uqraVsVXEcb4j7Jly+aUnrcvC03rbgxRfX1J/UF5h7XVzddcb3r0K50wbxJ/d6nvP66DRRcR+V9z6nRe1/x+vP1unN+eF1r15oBBhhggAEGGGCAAQYYYIABBhhggAEGGGCAgb4GBNeC6wGD6/jgvNf9Xnp04yPp2wsvq1VgR/VzTBd988qbs+m8uz/s7hUatzK4jjZE5XXXq1292jDh8fFp6tNXpWd3rBRiDsNyXKv6ivno86isj+XxfvELdLAV1Ctefyaryr911Q967ae4z/rn/QXXOw/uyKYef3jDQynug16/rdd9v+z1iT5hgAEGGGCAAQYYYIABBhhggAEGGGCAAQYYYICBdjYguB5G2NfOF1bbfPEMxsD9L943ove4zgcxxD2zI2ju+agnzXlldq/7ZhfvrR3Pv7d0WnZv8xueub7Xerc9d1tWvR2V9jF4QnjN+mCsW5cXBhhggAEGGGCAAQYYYIABBhhggAEGGGCAAQba04DgWnCtWpWBFJXQZRXXjb64B1txHVO9X714ahZGHz1xNDMXFfr7PtiXYsrvRsexvD1/OFwX14UBBhhggAEGGGCAAQYYYIABBhhggAEGGGCAAQZabUBwLbQUGjKQ7l5zV4qq65iOvZkvmQif/+t3/5k27Nlgqm5+mjLTjCvr+E8OAwwwwAADDDDAAAMMMMAAAwwwwAADDDDAAAOda0BwLXQSOjHAAAMMMMAAAwwwwAADDDDAAAMMMMAAAwwwwAADDDDAAAOVGhBcA1gpQKNmOnfUjGvv2jPAAAMMMMAAAwwwwAADDDDAAAMMMMAAAwwwwAADDOQGBNeCa8E1AwwwwAADDDDAAAMMMMAAAwwwwAADDDDAAAMMMMAAAwwwUKkBwTWAlQLMR1B4NJqGAQYYYIABBhhggAEGGGCAAQYYYIABBhhggAEGGGCAgc41ILgWXAuuGWCAAQYYYIABBhhggAEGGGCAAQYYYIABBhhggAEGGGCAgUoNCK4BrBSgUTOdO2rGtXftGWCAAQYYYIABBhhggAEGGGCAAQYYYIABBhhggAEGcgOCa8G14JoBBhhggAEGGGCAAQYYYIABBhhggAEGGGCAAQYYYIABBhio1IDgGsBKAeYjKDwaTcMAAwwwwAADDDDAAAMMMMAAAwwwwAADDDDAAAMMMMBA5xoQXAuuBdcMMMAAAwwwwAADDDDAAAMMMMAAAwwwwAADDDDAAAMMMMBApQYE1wBWCtComc4dNePau/YMMMAAAwwwwAADDDDAAAMMMMAAAwwwwAADDDDAAAO5gbYKrru7u9PBg4fS4cOHU09Pj0BVqM4AAwwwwAADDDDAAAMMMMAAAwwwwAADDDDAAAMMMMAAAwx0gIG2Cq7ndy1Mp51+Ru1v3IRz0uIly4TYHQAxH0nh0agaBhhggAEGGGCAAQYYYIABBhhggAEGGGCAAQYYYIABBjrPQFsH1xFif+rTn0sLn3zKKArhNQMMMMAAAwwwwAADDDDAAAMMMMAAAwwwwAADDDDAAAMMMDBGDbRVcJ2PnIhpwjdtejmdOe6srPp6yuVT0wcffADhGEWYX3ePnTdyxjV3zRlggAEGGGCAAQYYYIABBhhggAEGGGCAAQYYYIABBsJAWwbXOc7HfjUzC67Hf/Oc9O6BA4JrwTUDDDDAAAMMMMAAAwwwwAADDDDAAAMMMMAAAwwwwAADDDAwBg20dXC9+rk1WXD91a99Pe3Y+ScAxyDAfJCCRyNpGGCAAQYYYIABBhhggAEGGGCAAQYYYIABBhhggAEGGOhcA20dXP/+9xsE18JqAxYYYIABBhhggAEGGGCAAQYYYIABBhhggAEGGGCAAQYYYGCMGxBcj/ELbFRK545Kce1dewYYYIABBhhggAEGGGCAAQYYYIABBhhggAEGGGCAgdFiQHAtuDY6hQEGGGCAAQYYYIABBhhggAEGGGCAAQYYYIABBhhggAEGGKjUgOAawEoBjpYRHtppNBIDDDDAAAMMMMAAAwwwwAADDDDAAAMMMMAAAwwwwAADI2dgVATX/+t/fym9/MpmAauQnQEGGGCAAQYYYIABBhhggAEGGGCAAQYYYIABBhhggAEGGBiDBto6uH5ty9b0pS//azrt9DPS7Xfck3p6eiAcgwiNTBm5kSn6Vt8ywAADDDDAAAMMMMAAAwwwwAADDDDAAAMMMMAAAwyMBgNtHVx3d3enGTd8PwuuI7z+9neuTL/97dr07oED6fDhw4JsIbaBDAwwwAADDDDAAAMMMMAAAwwwwAADDDDAAAMMMMAAAwwwMAYMtHVwHcn/oUOH009/9kD6/Be/UguwI8T+6te+nnbs/BOEYwDhaBjhoY1GIjHAAAMMMMAAAwwwwAADDDDAAAMMMMAAAwwwwAADDDAwcgbaPrh+++0/pyunTkuf+vTnBNdCagMVGGCAAQYYYIABBhhggAEGGGCAAQYYYIABBhhggAEGGGBgDBpo6+D66NGj6YqrrskC6wiu73/gP9PeffvSRx99BOMYxGiEysiNUNG3+pYBBhhggAEGGGCAAQYYYIABBhhggAEGGGCAAQYYYKCdDbR1cP3alq3pS1/+1yy4jtC6p6dHYC2wZoABBhhggAEGGGCAAQYYYIABBhhggAEGGGCAAQYYYIABBsaYgbYOrn//+w1ZaB3hdYTY7TwCQNuMUGGAAQYYYIABBhhggAEGGGCAAQYYYIABBhhggAEGGGCAAQaGZmBUBNdf/drX046dfxJcj7FREz60Q/vQ6jf9xgADDDDAAAMMMMAAAwwwwAADDDDAAAMMMMAAAwwwMNYMCK6FwQYEMMAAAwwwwAADDDDAAAMMMMAAAwwwwAADDDDAAAMMMMAAA5UaEFwDWCnAsTYSxPkY3cQAAwwwwAADDDDAAAMMMMAAAwwwwAADDDDAAAMMMMDA4A0IrgXXgmsGGGCAAQYYYIABBhhggAEGGGCAAQYYYIABBhhggAEGGGCgUgNtHVwvf2ZFOu30M5J7XA9+RIJRHPqMAQYYYIABBhhggAEGGGCAAQYYYIABBhhggAEGGGCAAQZGi4G2Dq7/679/mQXXE886Px08eKjShH+0XFDt9OXDAAMMMMAAAwwwwAADDDDAAAMMMMAAAwwwwAADDDDAAAOjzUBbBdfd3d1ZQL1//ztp8ZJlWaV1VFxPu3ZGivdGW+dqry8EBhhggAEGGGCAAQYYYIABBhhggAEGGGCAAQYYYIABBhhgYGADbRVcz+9amFVYR1id/33+i19JL65dJ7Q2pz4DDDDAAAMMMMAAAwwwwAADDDDAAAMMMMAAAwwwwAADDDAwRg20bXD9f//tG+n7/3Fr+uMfX0+nTp0CcIwCNLpk4NEl+kgfMcAAAwwwwAADDDDAAAMMMMAAAwwwwAADDDDAAAMMjHUDbRVcj/XOdn6+UBhggAEGGGCAAQYYYIABBhhggAEGGGCAAQYYYIABBhhggIG+BgTXKplVszPAAAMMMMAAAwwwwAADDDDAAAMMMMAAAwwwwAADDDDAAAOVGhBcA1gpQKNJ+o4m0Sf6hAEGGGCAAQYYYIABBhhggAEGGGCAAQYYYIABBhhgoNMMCK4F14JrBhhggAEGGGCAAQYYYIABBhhggAEGGGCAAQYYYIABBhhgoFIDgmsAKwXYaSNFnK/RUQwwwAADDDDAAAMMMMAAAwwwwAADDDDAAAMMMMAAAwz0NSC4FlwLrhlggAEGGGCAAQYYYIABBhhggAEGGGCAAQYYYIABBhhggIFKDQiuAawUoNEkfUeT6BN9wgADDDDAAAMMMMAAAwwwwAADDDDAAAMMMMAAAwww0GkGBNeCa8E1AwwwwAADDDDAAAMMMMAAAwwwwAADDDDAAAMMMMAAAwwwUKkBwTWAlQLstJEiztfoKAYYYIABBhhggAEGGGCAAQYYYIABBhhggAEGGGCAAQb6GhBcC64F1wwwwAADDDDAAAMMMMAAAwwwwAADDDDAAAMMMMAAAwwwwEClBgTXAFYK0GiSvqNJ9Ik+YYABBhhggAEGGGCAAQYYYIABBhhggAEGGGCAAQYY6DQDgmvBteCaAQYYYIABBhhggAEGGGCAAQYYYIABBhhggAEGGGCAAQYYqNSA4BrASgF22kgR52t0FAMMMMAAAwwwwAADDDDAAAMMMMAAAwwwwAADDDDAAAN9DQiuBdeCawYYYIABBhhggAEGGGCAAQYYYIABBhhggAEGGGCAAQYYYKBSA4JrACsFaDRJ39Ek+kSfMMAAAwwwwAADDDDAAAMMMMAAAwwwwAADDDDAAAMMdJoBwbXgWnDNAAMMMMAAAwwwwAADDDDAAAMMMMAAAwwwwAADDDDAAAMMVGpAcA1gpQA7baSI8zU6igEGGGCAAQYYYIABBhhggAEGGGCAAQYYYIABBhhggIG+BgTXgmvBNQMMMMAAAwwwwAADDDDAAAMMMMAAAwwwwAADDDDAAAMMMFCpAcE1gJUCNJqk72gSfaJPGGCAAQYYYIABBhhggAEGGGCAAQYYYIABBhhggAEGOs2A4FpwLbhmgAEGGGCAAQYYYIABBhhggAEGGGCAAQYYYIABBhhggAEGKjUguAawUoCdNlLE+RodxQADDDDAAAMMMMAAAwwwwAADDDDAAAMMMMAAAwwwwEBfA4JrwbXgmgEGGGCAAQYYYIABBhhggAEGGGCAAQYYYIABBhhggAEGGKjUgOAawEoBGk3SdzSJPtEnDDDAAAMMMMAAAwwwwAADDDDAAAMMMMAAAwwwwAADnWZAcC24FlwzwAADDDDAAAMMMMAAAwwwwAADDDDAAAMMMMAAAwwwwAADlRoQXANYKcBOGynifI2OYoABBhhggAEGGGCAAQYYYIABBhhggAEGGGCAAQYYYKCvAcG14FpwzQADDDDAAAMMMMAAAwwwwAADDDDAAAMMMMAAAwwwwAADDFRqQHANYKUAjSbpO5pEn+gTBhhggAEGGGCAAQYYYIABBhhggAEGGGCAAQYYYICBTjMguBZcC64ZYIABBhhggAEGGGCAAQYYYIABBhhggAEGGGCAAQYYYICBSg0IrgGsFGCnjRRxvkZHMcAAAwwwwAADDDDAAAMMMMAAAwwwwAADDDDAAAMMMNDXgOBacC24ZoABBhhggAEGGGCAAQYYYIABBhhggAEGGGCAAQYYYIABBio1ILgGsFKARpP0HU2iT/QJAwwwwAADDDDAAAMMMMAAAwwwwAADDDDAAAMMMMBApxkQXAuuBdcMMMAAAwwwwAADDDDAAAMMMMAAAwwwwAADDDDAAAMMMMBApQYE1wBWCrDTRoo4X6OjGGCAAQYYYIABBhhggAEGGGCAAQYYYIABBhhggAEGGOhrQHAtuBZcM8AAAwwwwAADDDDAAAMMMMAAAwwwwAADDDDAAAMMMMAAA5UaEFwDWClAo0n6jibRJ/qEAQYYYIABBhhggAEGGGCAAQYYYIABBhhggAEGGGCg0wwIrgXXgmsGGGCAAQYYYIABBhhggAEGGGCAAQYYYIABBhhggAEGGGCgUgOCawArBdhpI0Wcr9FRDDDAAAMMMMAAAwwwwAADDDDAAAMMMMAAAwwwwAADDPQ1ILgWXAuuGWCAAQYYYIABBhhggAEGGGCAAQYYYIABBhhggAEGGGCAgUoNCK4BrBSg0SR9R5PoE33CAAMMMMAAAwwwwAADDDDAAAMMMMAAAwwwwAADDDDQaQYE14JrwTUDDDDAAAMMMMAAAwwwwAADDDDAAAMMMMAAAwwwwAADDDBQqQHBNYCVAuy0kSLO1+goBhhggAEGGGCAAQYYYIABBhhggAEGGGCAAQYYYIABBvoayILrv/71r8JLATYDDDDAAAMMMMAAAwwwwAADDDDAAAMMMMAAAwwwwAADDDDAQCUGBNfgVQLPKJK+o0j0iT5hgAEGGGCAAQYYYIABBhhggAEGGGCAAQYYYIABBhjoVANZcP33v/9deCnAZoABBhhggAEGGGCAAQYYYIABBhhggAEGGGCAAQYYYIABBhioxEAWXKeUkunCjd7o1NEbzpt9BhhggAEGGGCAAQYYYIABBhhggAEGGGCAAQYYYIABBqozEFl1LbhWdV3dhfAh0PcMMMAAAwwwwAADDDDAAAMMMMAAAwwwwAADDDDAAAMMMNCpBiKrrgXXUXX9t7/9rZKy7069AM7blw8DDDDAAAMMMMAAAwwwwAADDDDAAAMMMMAAAwwwwAADDHSygcio41+v4Fp47UPRyR8K584/AwwwwAADDDDAAAMMMMAAAwwwwAADDDDAAAMMMMAAA5+cgTy0Lg2uY2GUYrvn9Sd3QeDX1wwwwAADDDDAAAMMMMAAAwwwwAADDDDAAAMMMMAAAwww0CkGIouOTLr47/8DnH5PtW9nfo0AAAAASUVORK5CYII=;clipPath=inset(16.22% 45.33% 0% 0.67%);" vertex="1" parent="1">
          <mxGeometry x="840" width="600.97" height="230" as="geometry" />
        </mxCell>
        <mxCell id="iMMAIMDJ0-eKG2LeMNLO-4" style="edgeStyle=orthogonalEdgeStyle;rounded=0;orthogonalLoop=1;jettySize=auto;html=1;exitX=0.5;exitY=1;exitDx=0;exitDy=0;exitPerimeter=0;entryX=0.5;entryY=0;entryDx=0;entryDy=0;" edge="1" parent="1" source="iMMAIMDJ0-eKG2LeMNLO-2" target="iMMAIMDJ0-eKG2LeMNLO-3">
          <mxGeometry relative="1" as="geometry" />
        </mxCell>
        <mxCell id="iMMAIMDJ0-eKG2LeMNLO-2" value="Sass下发创建人像库" style="strokeWidth=2;html=1;shape=mxgraph.flowchart.start_1;whiteSpace=wrap;fillColor=#d5e8d4;strokeColor=#82b366;" vertex="1" parent="1">
          <mxGeometry x="1170" y="250" width="100" height="60" as="geometry" />
        </mxCell>
        <mxCell id="iMMAIMDJ0-eKG2LeMNLO-10" style="edgeStyle=orthogonalEdgeStyle;rounded=0;orthogonalLoop=1;jettySize=auto;html=1;exitX=0.5;exitY=1;exitDx=0;exitDy=0;entryX=0.5;entryY=0;entryDx=0;entryDy=0;" edge="1" parent="1" source="iMMAIMDJ0-eKG2LeMNLO-3" target="iMMAIMDJ0-eKG2LeMNLO-9">
          <mxGeometry relative="1" as="geometry" />
        </mxCell>
        <mxCell id="iMMAIMDJ0-eKG2LeMNLO-11" value="Yes" style="edgeLabel;html=1;align=center;verticalAlign=middle;resizable=0;points=[];" vertex="1" connectable="0" parent="iMMAIMDJ0-eKG2LeMNLO-10">
          <mxGeometry x="-0.35" relative="1" as="geometry">
            <mxPoint as="offset" />
          </mxGeometry>
        </mxCell>
        <mxCell id="iMMAIMDJ0-eKG2LeMNLO-3" value="参数校验" style="rhombus;whiteSpace=wrap;html=1;fillColor=#fff2cc;strokeColor=#d6b656;" vertex="1" parent="1">
          <mxGeometry x="1180" y="330" width="80" height="80" as="geometry" />
        </mxCell>
        <mxCell id="iMMAIMDJ0-eKG2LeMNLO-6" value="抛出异常" style="strokeWidth=2;html=1;shape=mxgraph.flowchart.start_1;whiteSpace=wrap;fillColor=#f8cecc;strokeColor=#b85450;" vertex="1" parent="1">
          <mxGeometry x="1310" y="350" width="80" height="40" as="geometry" />
        </mxCell>
        <mxCell id="iMMAIMDJ0-eKG2LeMNLO-7" style="edgeStyle=orthogonalEdgeStyle;rounded=0;orthogonalLoop=1;jettySize=auto;html=1;exitX=1;exitY=0.5;exitDx=0;exitDy=0;entryX=0;entryY=0.5;entryDx=0;entryDy=0;entryPerimeter=0;" edge="1" parent="1" source="iMMAIMDJ0-eKG2LeMNLO-3" target="iMMAIMDJ0-eKG2LeMNLO-6">
          <mxGeometry relative="1" as="geometry" />
        </mxCell>
        <mxCell id="iMMAIMDJ0-eKG2LeMNLO-8" value="No" style="edgeLabel;html=1;align=center;verticalAlign=middle;resizable=0;points=[];" vertex="1" connectable="0" parent="iMMAIMDJ0-eKG2LeMNLO-7">
          <mxGeometry x="-0.16" relative="1" as="geometry">
            <mxPoint as="offset" />
          </mxGeometry>
        </mxCell>
        <mxCell id="iMMAIMDJ0-eKG2LeMNLO-9" value="创建库（插入数据库以及加载库资源）" style="swimlane;whiteSpace=wrap;html=1;fillColor=#ffe6cc;strokeColor=#d79b00;" vertex="1" parent="1">
          <mxGeometry x="1035" y="450" width="370" height="790" as="geometry" />
        </mxCell>
        <mxCell id="iMMAIMDJ0-eKG2LeMNLO-14" style="edgeStyle=orthogonalEdgeStyle;rounded=0;orthogonalLoop=1;jettySize=auto;html=1;exitX=0.5;exitY=1;exitDx=0;exitDy=0;entryX=0.5;entryY=0;entryDx=0;entryDy=0;" edge="1" parent="iMMAIMDJ0-eKG2LeMNLO-9" source="iMMAIMDJ0-eKG2LeMNLO-12" target="iMMAIMDJ0-eKG2LeMNLO-13">
          <mxGeometry relative="1" as="geometry" />
        </mxCell>
        <mxCell id="iMMAIMDJ0-eKG2LeMNLO-12" value="构建新建库参数" style="rounded=0;whiteSpace=wrap;html=1;fillColor=#dae8fc;strokeColor=#6c8ebf;" vertex="1" parent="iMMAIMDJ0-eKG2LeMNLO-9">
          <mxGeometry x="125" y="30" width="145" height="30" as="geometry" />
        </mxCell>
        <mxCell id="iMMAIMDJ0-eKG2LeMNLO-16" style="edgeStyle=orthogonalEdgeStyle;rounded=0;orthogonalLoop=1;jettySize=auto;html=1;exitX=0.5;exitY=1;exitDx=0;exitDy=0;entryX=0.5;entryY=0;entryDx=0;entryDy=0;" edge="1" parent="iMMAIMDJ0-eKG2LeMNLO-9" source="iMMAIMDJ0-eKG2LeMNLO-13" target="iMMAIMDJ0-eKG2LeMNLO-15">
          <mxGeometry relative="1" as="geometry" />
        </mxCell>
        <mxCell id="iMMAIMDJ0-eKG2LeMNLO-13" value="模板模式，根据新建库类型创建对应的库模板" style="rounded=0;whiteSpace=wrap;html=1;fillColor=#dae8fc;strokeColor=#6c8ebf;" vertex="1" parent="iMMAIMDJ0-eKG2LeMNLO-9">
          <mxGeometry x="125" y="75" width="145" height="45" as="geometry" />
        </mxCell>
        <mxCell id="iMMAIMDJ0-eKG2LeMNLO-19" style="edgeStyle=orthogonalEdgeStyle;rounded=0;orthogonalLoop=1;jettySize=auto;html=1;exitX=0.5;exitY=1;exitDx=0;exitDy=0;entryX=0.5;entryY=0;entryDx=0;entryDy=0;" edge="1" parent="iMMAIMDJ0-eKG2LeMNLO-9" source="iMMAIMDJ0-eKG2LeMNLO-15" target="iMMAIMDJ0-eKG2LeMNLO-18">
          <mxGeometry relative="1" as="geometry" />
        </mxCell>
        <mxCell id="iMMAIMDJ0-eKG2LeMNLO-15" value="从Repository数据表中根据name和ID字段查询是否已存在对应的库" style="rounded=0;whiteSpace=wrap;html=1;fillColor=#dae8fc;strokeColor=#6c8ebf;" vertex="1" parent="iMMAIMDJ0-eKG2LeMNLO-9">
          <mxGeometry x="125" y="134.5" width="145" height="60" as="geometry" />
        </mxCell>
        <mxCell id="iMMAIMDJ0-eKG2LeMNLO-17" value="name和ID都是唯一的" style="text;html=1;align=center;verticalAlign=middle;whiteSpace=wrap;rounded=0;dashed=1;strokeColor=default;" vertex="1" parent="iMMAIMDJ0-eKG2LeMNLO-9">
          <mxGeometry x="25" y="149.5" width="80" height="30" as="geometry" />
        </mxCell>
        <mxCell id="iMMAIMDJ0-eKG2LeMNLO-25" style="edgeStyle=orthogonalEdgeStyle;rounded=0;orthogonalLoop=1;jettySize=auto;html=1;exitX=0.5;exitY=1;exitDx=0;exitDy=0;entryX=0.5;entryY=0;entryDx=0;entryDy=0;" edge="1" parent="iMMAIMDJ0-eKG2LeMNLO-9" source="iMMAIMDJ0-eKG2LeMNLO-18" target="iMMAIMDJ0-eKG2LeMNLO-24">
          <mxGeometry relative="1" as="geometry" />
        </mxCell>
        <mxCell id="iMMAIMDJ0-eKG2LeMNLO-18" value="已存在" style="rhombus;whiteSpace=wrap;html=1;fillColor=#fff2cc;strokeColor=#d6b656;" vertex="1" parent="iMMAIMDJ0-eKG2LeMNLO-9">
          <mxGeometry x="161.25" y="210" width="72.5" height="60" as="geometry" />
        </mxCell>
        <mxCell id="iMMAIMDJ0-eKG2LeMNLO-20" value="返回已存在错误信息" style="strokeWidth=2;html=1;shape=mxgraph.flowchart.start_1;whiteSpace=wrap;fillColor=#f8cecc;strokeColor=#b85450;" vertex="1" parent="iMMAIMDJ0-eKG2LeMNLO-9">
          <mxGeometry x="270" y="220" width="80" height="40" as="geometry" />
        </mxCell>
        <mxCell id="iMMAIMDJ0-eKG2LeMNLO-21" style="edgeStyle=orthogonalEdgeStyle;rounded=0;orthogonalLoop=1;jettySize=auto;html=1;exitX=1;exitY=0.5;exitDx=0;exitDy=0;entryX=0;entryY=0.5;entryDx=0;entryDy=0;entryPerimeter=0;" edge="1" parent="iMMAIMDJ0-eKG2LeMNLO-9" source="iMMAIMDJ0-eKG2LeMNLO-18" target="iMMAIMDJ0-eKG2LeMNLO-20">
          <mxGeometry relative="1" as="geometry" />
        </mxCell>
        <mxCell id="iMMAIMDJ0-eKG2LeMNLO-22" value="Yes" style="edgeLabel;html=1;align=center;verticalAlign=middle;resizable=0;points=[];" vertex="1" connectable="0" parent="iMMAIMDJ0-eKG2LeMNLO-21">
          <mxGeometry x="0.0621" y="2" relative="1" as="geometry">
            <mxPoint as="offset" />
          </mxGeometry>
        </mxCell>
        <mxCell id="iMMAIMDJ0-eKG2LeMNLO-24" value="构建参数并插入数据表Repository" style="rounded=0;whiteSpace=wrap;html=1;fillColor=#dae8fc;strokeColor=#6c8ebf;" vertex="1" parent="iMMAIMDJ0-eKG2LeMNLO-9">
          <mxGeometry x="138" y="290" width="120" height="50" as="geometry" />
        </mxCell>
        <mxCell id="iMMAIMDJ0-eKG2LeMNLO-35" style="edgeStyle=orthogonalEdgeStyle;rounded=0;orthogonalLoop=1;jettySize=auto;html=1;exitX=0.5;exitY=1;exitDx=0;exitDy=0;entryX=0.5;entryY=0;entryDx=0;entryDy=0;" edge="1" parent="iMMAIMDJ0-eKG2LeMNLO-9" source="iMMAIMDJ0-eKG2LeMNLO-26" target="iMMAIMDJ0-eKG2LeMNLO-34">
          <mxGeometry relative="1" as="geometry" />
        </mxCell>
        <mxCell id="iMMAIMDJ0-eKG2LeMNLO-26" value="添加库资源关系" style="swimlane;whiteSpace=wrap;html=1;fillColor=#e1d5e7;strokeColor=#9673a6;" vertex="1" parent="iMMAIMDJ0-eKG2LeMNLO-9">
          <mxGeometry x="65" y="370" width="282" height="280" as="geometry" />
        </mxCell>
        <mxCell id="iMMAIMDJ0-eKG2LeMNLO-30" style="edgeStyle=orthogonalEdgeStyle;rounded=0;orthogonalLoop=1;jettySize=auto;html=1;exitX=0.5;exitY=1;exitDx=0;exitDy=0;entryX=0.5;entryY=0;entryDx=0;entryDy=0;" edge="1" parent="iMMAIMDJ0-eKG2LeMNLO-26" source="iMMAIMDJ0-eKG2LeMNLO-28" target="iMMAIMDJ0-eKG2LeMNLO-29">
          <mxGeometry relative="1" as="geometry" />
        </mxCell>
        <mxCell id="iMMAIMDJ0-eKG2LeMNLO-28" value="构建Request参数，并进行参数校验" style="rounded=0;whiteSpace=wrap;html=1;fillColor=#dae8fc;strokeColor=#6c8ebf;" vertex="1" parent="iMMAIMDJ0-eKG2LeMNLO-26">
          <mxGeometry x="73" y="30" width="120" height="40" as="geometry" />
        </mxCell>
        <mxCell id="iMMAIMDJ0-eKG2LeMNLO-29" value="根据业务类型和库类型获取各种handle" style="rounded=0;whiteSpace=wrap;html=1;fillColor=#dae8fc;strokeColor=#6c8ebf;" vertex="1" parent="iMMAIMDJ0-eKG2LeMNLO-26">
          <mxGeometry x="73" y="90" width="120" height="40" as="geometry" />
        </mxCell>
        <mxCell id="iMMAIMDJ0-eKG2LeMNLO-31" value="不同的库和业务类型有不同的资源，包括算子信息以及其他的资源，这些信息需要与库绑定，并存在Repository_Resource数据表中。在新建库时将对应资源加载并保存到数据表以及内存后，方面后续使用。 获取这些资源时需要构建Request信息，从RM服务中通过RPC进行请求" style="rounded=0;whiteSpace=wrap;html=1;fillColor=#b1ddf0;strokeColor=#10739e;" vertex="1" parent="iMMAIMDJ0-eKG2LeMNLO-26">
          <mxGeometry x="31" y="150" width="220" height="120" as="geometry" />
        </mxCell>
        <mxCell id="iMMAIMDJ0-eKG2LeMNLO-32" style="edgeStyle=orthogonalEdgeStyle;rounded=0;orthogonalLoop=1;jettySize=auto;html=1;exitX=0.5;exitY=1;exitDx=0;exitDy=0;entryX=0.473;entryY=-0.022;entryDx=0;entryDy=0;entryPerimeter=0;" edge="1" parent="iMMAIMDJ0-eKG2LeMNLO-26" source="iMMAIMDJ0-eKG2LeMNLO-29" target="iMMAIMDJ0-eKG2LeMNLO-31">
          <mxGeometry relative="1" as="geometry" />
        </mxCell>
        <mxCell id="iMMAIMDJ0-eKG2LeMNLO-27" style="edgeStyle=orthogonalEdgeStyle;rounded=0;orthogonalLoop=1;jettySize=auto;html=1;exitX=0.5;exitY=1;exitDx=0;exitDy=0;entryX=0.472;entryY=-0.015;entryDx=0;entryDy=0;entryPerimeter=0;" edge="1" parent="iMMAIMDJ0-eKG2LeMNLO-9" source="iMMAIMDJ0-eKG2LeMNLO-24" target="iMMAIMDJ0-eKG2LeMNLO-26">
          <mxGeometry relative="1" as="geometry" />
        </mxCell>
        <mxCell id="iMMAIMDJ0-eKG2LeMNLO-34" value="在内存中存在几个Map用来保存人像库和其对应的资源，在创建人像库时，从RM请求到资源后需要将对应关系保存到内存中" style="rounded=0;whiteSpace=wrap;html=1;fillColor=#dae8fc;strokeColor=#6c8ebf;" vertex="1" parent="iMMAIMDJ0-eKG2LeMNLO-9">
          <mxGeometry x="109" y="690" width="194" height="70" as="geometry" />
        </mxCell>
        <mxCell id="iMMAIMDJ0-eKG2LeMNLO-33" value="出现异常会进行回滚" style="rounded=0;whiteSpace=wrap;html=1;fillColor=#d0cee2;strokeColor=#56517e;" vertex="1" parent="1">
          <mxGeometry x="1430" y="640" width="120" height="40" as="geometry" />
        </mxCell>
        <mxCell id="iMMAIMDJ0-eKG2LeMNLO-36" value="返回成功信息" style="strokeWidth=2;html=1;shape=mxgraph.flowchart.start_1;whiteSpace=wrap;fillColor=#d5e8d4;strokeColor=#82b366;" vertex="1" parent="1">
          <mxGeometry x="1170" y="1270" width="97" height="50" as="geometry" />
        </mxCell>
        <mxCell id="iMMAIMDJ0-eKG2LeMNLO-37" style="edgeStyle=orthogonalEdgeStyle;rounded=0;orthogonalLoop=1;jettySize=auto;html=1;exitX=0.5;exitY=1;exitDx=0;exitDy=0;entryX=0.5;entryY=0;entryDx=0;entryDy=0;entryPerimeter=0;" edge="1" parent="1" source="iMMAIMDJ0-eKG2LeMNLO-9" target="iMMAIMDJ0-eKG2LeMNLO-36">
          <mxGeometry relative="1" as="geometry" />
        </mxCell>
      </root>
    </mxGraphModel>
  </diagram>
</mxfile>
